<svg xmlns="http://www.w3.org/2000/svg" xmlns:xlink="http://www.w3.org/1999/xlink" viewBox="0 0 749 500"><defs><style>.cls-1{isolation:isolate;}.cls-2,.cls-38{fill:#fff;}.cls-3{opacity:0.6;fill:url(#Degradado_sin_nombre_16);}.cls-4{fill:#283034;}.cls-5{fill:#b3cafe;}.cls-25,.cls-29,.cls-36,.cls-37,.cls-6{fill:none;}.cls-29,.cls-36,.cls-6{stroke:#283034;}.cls-36,.cls-6{stroke-linecap:round;}.cls-6{stroke-linejoin:round;}.cls-7{fill:#273237;}.cls-8{fill:#315188;}.cls-9{fill:#1a2023;}.cls-10{fill:#365dad;}.cls-11,.cls-12{fill:#ebebeb;}.cls-12,.cls-16,.cls-18,.cls-19,.cls-21,.cls-34{mix-blend-mode:multiply;}.cls-13{fill:#467cfb;}.cls-14{fill:#92b6ff;}.cls-15{fill:url(#Degradado_sin_nombre_7);}.cls-16,.cls-22{fill:#f0c2bf;}.cls-16,.cls-18,.cls-27{opacity:0.5;}.cls-17{fill:url(#Degradado_sin_nombre_7-2);}.cls-19{fill:#dd8373;}.cls-19,.cls-34{opacity:0.3;}.cls-20{fill:url(#Degradado_sin_nombre_7-3);}.cls-23{fill:#f6fcf7;}.cls-24{fill:#155bcc;}.cls-25{stroke:#e0ac19;}.cls-25,.cls-29,.cls-36,.cls-37{stroke-miterlimit:10;}.cls-26{fill:#e0ac19;}.cls-27,.cls-35{fill:#2c61bf;}.cls-28{fill:#0a49a5;}.cls-30,.cls-34{fill:#b78776;}.cls-31{fill:url(#Degradado_sin_nombre_8);}.cls-32{fill:url(#Degradado_sin_nombre_6);}.cls-33{fill:url(#Degradado_sin_nombre_5);}.cls-36,.cls-37{stroke-width:2px;}.cls-37{stroke:#155bcc;}.cls-38{font-size:36.05px;font-family:Montserrat-BoldItalic, Montserrat BoldItalic;font-weight:700;font-style:italic;}.cls-39{letter-spacing:-0.01em;}</style><linearGradient id="Degradado_sin_nombre_16" x1="559.96" y1="193.55" x2="393.52" y2="299.83" gradientUnits="userSpaceOnUse"><stop offset="0" stop-color="#fff" stop-opacity="0"/><stop offset="0.11" stop-color="#fdfdfd" stop-opacity="0.27"/><stop offset="0.24" stop-color="#fbfbfb" stop-opacity="0.56"/><stop offset="0.35" stop-color="#fafafa" stop-opacity="0.76"/><stop offset="0.43" stop-color="#f9f9f9" stop-opacity="0.89"/><stop offset="0.48" stop-color="#f9f9f9" stop-opacity="0.94"/><stop offset="0.68" stop-color="#f6f6f6" stop-opacity="0.98"/><stop offset="1" stop-color="#f5f5f5"/></linearGradient><linearGradient id="Degradado_sin_nombre_7" x1="260.07" y1="180.57" x2="244.28" y2="207.39" gradientUnits="userSpaceOnUse"><stop offset="0" stop-color="#e2948f"/><stop offset="1" stop-color="#f0c2bf"/></linearGradient><linearGradient id="Degradado_sin_nombre_7-2" x1="275.33" y1="165.07" x2="281.6" y2="167.8" xlink:href="#Degradado_sin_nombre_7"/><linearGradient id="Degradado_sin_nombre_7-3" x1="216.56" y1="166.11" x2="210.48" y2="167.69" xlink:href="#Degradado_sin_nombre_7"/><linearGradient id="Degradado_sin_nombre_8" x1="547.93" y1="252.87" x2="545.02" y2="271.61" gradientTransform="matrix(-1, 0, 0, 1, 1067.68, 0)" gradientUnits="userSpaceOnUse"><stop offset="0" stop-color="#8c5d4a"/><stop offset="1" stop-color="#b78776"/></linearGradient><linearGradient id="Degradado_sin_nombre_6" x1="565.02" y1="223.13" x2="587.31" y2="222.81" gradientTransform="matrix(-1, 0, 0, 1, 1067.68, 0)" gradientUnits="userSpaceOnUse"><stop offset="0" stop-color="#8c5d4a"/><stop offset="0.68" stop-color="#b78776"/></linearGradient><linearGradient id="Degradado_sin_nombre_5" x1="504.94" y1="223.09" x2="518.28" y2="222.97" gradientTransform="matrix(-1, 0, 0, 1, 1067.68, 0)" gradientUnits="userSpaceOnUse"><stop offset="0.32" stop-color="#b78776"/><stop offset="1" stop-color="#8c5d4a"/></linearGradient></defs><title>3953180</title><g class="cls-1"><g id="BACKGROUND"><rect class="cls-2" width="749" height="500"/></g><g id="OBJECTS"><path class="cls-3" d="M59.07,427.39l.1.05a55.17,55.17,0,0,0,20.52,3.85H657.56c8.22-.66,15.52-1.4,21.82-2.26,45.54-6.15,55.08-82.85-5.34-105-64.82-23.8-44.31-44.72-51.45-79-15.22-73.12-118.25-27.37-156.36-26.39s-33.29-85.69-36.16-120.2c-6-71.8-89.78-74.52-126.07-29.32-64.46,80.29-110,36.32-139.39,61.12C142,149.25,150,174.19,153.54,182c10.15,22.58,19.8,39.11,12.37,66-22,79.7-75.51,43.24-117.43,89.08C16.83,371.7,42.82,420.85,59.07,427.39Z" transform="translate(-0.5 0)"/><polygon class="cls-4" points="89.9 430.8 164.92 430.31 239.94 430.03 389.99 429.8 540.04 430.03 615.06 430.31 690.08 430.8 615.06 431.29 540.04 431.57 389.99 431.8 239.94 431.56 164.92 431.29 89.9 430.8"/><path class="cls-5" d="M190.72,385.36s1.63-109.17-37.85-123c-42.67-14.92-26.47,67.94-7.35,97.95C170,398.71,191,411.94,190.72,385.36Z" transform="translate(-0.5 0)"/><path class="cls-5" d="M78,295.87s39.15,10.89,56.21,58S74.5,346.24,61.8,326.73,61.38,293.74,78,295.87Z" transform="translate(-0.5 0)"/><path class="cls-6" d="M149,286.91s39.45,97,36.78,142.21c0,0-61.64-83.64-114.11-117.7" transform="translate(-0.5 0)"/><path class="cls-5" d="M557,366.91s0-109.19,39.63-122.42c42.88-14.29,25.48,68.32,5.93,98.05C577.6,380.55,556.36,393.48,557,366.91Z" transform="translate(-0.5 0)"/><path class="cls-5" d="M677,263.92s-39.3,10.32-57,57.18,59.85-6.76,72.83-26.09S693.67,262,677,263.92Z" transform="translate(-0.5 0)"/><path class="cls-6" d="M606.19,253.94S553.86,382.87,555.88,428.1c0,0,24.73-50.67,67.18-93.57s60.1-55,60.1-55" transform="translate(-0.5 0)"/><path class="cls-7" d="M219.57,204.14H519.16a13.07,13.07,0,0,1,13.07,13.07V404.75a0,0,0,0,1,0,0H206.5a0,0,0,0,1,0,0V217.21A13.07,13.07,0,0,1,219.57,204.14Z"/><path class="cls-8" d="M222,215.25H516.69a5.38,5.38,0,0,1,5.38,5.38V415.86a0,0,0,0,1,0,0H216.65a0,0,0,0,1,0,0V220.64A5.38,5.38,0,0,1,222,215.25Z"/><path class="cls-7" d="M170.89,404.75h397a0,0,0,0,1,0,0V412a18.51,18.51,0,0,1-18.51,18.51H189.39A18.51,18.51,0,0,1,170.89,412v-7.26A0,0,0,0,1,170.89,404.75Z"/><path class="cls-9" d="M327.49,404.75h83.75a0,0,0,0,1,0,0v7.92a8.5,8.5,0,0,1-8.5,8.5H336a8.5,8.5,0,0,1-8.5-8.5v-7.92A0,0,0,0,1,327.49,404.75Z"/><rect class="cls-10" x="242.85" y="220.64" width="141.85" height="68.98"/><rect class="cls-10" x="242.85" y="321.38" width="141.85" height="80.18"/><rect class="cls-11" x="126.27" y="191.47" width="244.79" height="122.75" rx="3.79"/><rect class="cls-12" x="225.55" y="223.79" width="130.09" height="6.02"/><rect class="cls-12" x="225.55" y="246.59" width="130.09" height="6.02"/><rect class="cls-12" x="145.1" y="249.83" width="119.8" height="6.02"/><rect class="cls-12" x="134.81" y="259.28" width="130.09" height="6.02"/><rect class="cls-12" x="225.55" y="233.9" width="130.09" height="6.02"/><path class="cls-13" d="M214.37,214.2s-21.06,6.86-28.3,16.59-16.58,83.43-16.58,83.43H320.54s-3.9-77.76-14.86-86.19-30-13.49-30-13.49Z" transform="translate(-0.5 0)"/><path class="cls-14" d="M275.69,214.54c-4.88-2.14-8.42-3.48-8.42-3.48l-44.32,0s-3.69,1.15-8.58,3.12L245,261.31S266.72,231.23,275.69,214.54Z" transform="translate(-0.5 0)"/><path class="cls-15" d="M245,248.87s20.72-32.37,22.26-37.81c-3.27-.85-12.38-3.37-12.38-3.37L254.16,178l-18.5.08.12,25.6-.12,4.1L223,211.08C223.91,215.93,245,248.87,245,248.87Z" transform="translate(-0.5 0)"/><path class="cls-16" d="M265.4,210.56c-4-1.07-10.51-2.87-10.51-2.87L254.16,178l-18.5.08.12,25.6-.12,4.1-9.28,2.43C234.31,214.79,247.62,218.73,265.4,210.56Z" transform="translate(-0.5 0)"/><path class="cls-17" d="M276.78,158.35s8.26-.82,10.09,6.6c1.87,7.6-10.56,9.35-10.56,9.35Z" transform="translate(-0.5 0)"/><g class="cls-18"><path class="cls-19" d="M275.58,161.23s7.15-1.15,9.35,5.71c0,0-6-3.64-9.79-.58Z" transform="translate(-0.5 0)"/></g><path class="cls-20" d="M214.25,158.62s-8.85.61-9.41,8.23c-.57,7.81,12,7.44,12,7.44Z" transform="translate(-0.5 0)"/><g class="cls-21"><path class="cls-19" d="M215.35,161.29s-7.24.07-8.26,7.2c0,0,5.29-4.59,9.55-2.22Z" transform="translate(-0.5 0)"/></g><path class="cls-22" d="M274.54,147.1c-2.36-6.13-2.15-11.53-4.83-15.08a25.61,25.61,0,0,0-14.57-9.45c-6.59,1.05-14.09-3.56-24,3.1-5.33,3.59-15.32,5.16-16.79,24.94-2.33,31.37,4.46,50.95,31.93,50.83C275.91,201.31,283.41,170.16,274.54,147.1Z" transform="translate(-0.5 0)"/><path class="cls-16" d="M269.71,132a25.61,25.61,0,0,0-14.57-9.45c-6.59,1.05-14.09-3.56-24,3.1-1.42,1-3.17,1.77-5,2.82a25.82,25.82,0,0,1-7.15,6.36c-2.29,3.36-4.08,8.25-4.64,15.76a129.22,129.22,0,0,0-.32,15.3c13.28.54,34-12.58,43.57-19.65,5.22-3.87,9.63-5.29,12.84-5.71.33,5,2.14,12.72,7,24.49a5.64,5.64,0,0,0,.55-.58,52.9,52.9,0,0,0-3.46-17.36C272.18,141,272.39,135.57,269.71,132Z" transform="translate(-0.5 0)"/><path class="cls-4" d="M248.31,181.18a3.21,3.21,0,0,0,2-.52,1.62,1.62,0,0,0,.59-1.3c0-1.62-1.31-2.14-2.17-2.48-.36-.15-.77-.31-.84-.47a38.37,38.37,0,0,1-.22-6.53.35.35,0,0,0-.35-.36.32.32,0,0,0-.35.34c0,1-.1,6,.29,6.84.19.41.66.6,1.21.82.85.34,1.73.7,1.73,1.84a.92.92,0,0,1-.33.76c-.7.56-2.34.35-2.92.22a.34.34,0,0,0-.41.27.33.33,0,0,0,.26.41A7.16,7.16,0,0,0,248.31,181.18Z" transform="translate(-0.5 0)"/><path class="cls-4" d="M269.42,163.9c.47-1.1-7.14-7.64-12.28-5-4.54,2.39,4.21,4.39,8.63,5.22S269.42,163.9,269.42,163.9Z" transform="translate(-0.5 0)"/><path class="cls-4" d="M222.08,163.6c-.69-1,5.39-9,11-7.39,4.94,1.39-3.2,5.16-7.35,6.9S222.08,163.6,222.08,163.6Z" transform="translate(-0.5 0)"/><path class="cls-4" d="M277.45,160.91s3.61-3,7.63-15.37-9.28-18.26-11.45-17.95S266,133.05,277.45,160.91Z" transform="translate(-0.5 0)"/><path class="cls-4" d="M276.21,136.77s-7.43-2.89-18.57,5.36-37.56,24.76-49.52,18.16-15.69-24.76,3.71-27.24,15.68-26.41,42.51-24.76C275.54,109.6,273.32,134.7,276.21,136.77Z" transform="translate(-0.5 0)"/><path class="cls-23" d="M255.25,187.18l-19.63-.11a11.41,11.41,0,0,0,10.58,7.35C254,194.54,255.25,187.18,255.25,187.18Z" transform="translate(-0.5 0)"/><ellipse class="cls-4" cx="230.27" cy="169.52" rx="2.87" ry="3.96"/><path class="cls-4" d="M264.1,169.52c0,2.19-1.29,4-2.87,4s-2.87-1.77-2.87-4,1.29-4,2.87-4S264.1,167.33,264.1,169.52Z" transform="translate(-0.5 0)"/><path class="cls-24" d="M314.32,114.94l-63.15,15.7a13,13,0,0,1-8.22.29l-66.72-25.19c-2.14-.62-2.34-3.15-.3-3.71l66.68-16.42a12.85,12.85,0,0,1,6.26-.12l64.77,25.78C315.76,111.74,316.22,114.2,314.32,114.94Z" transform="translate(-0.5 0)"/><path class="cls-13" d="M176.23,105.74l.18.07,66.2-16.31a13,13,0,0,1,6.26-.12l64.69,25.75.76-.19c1.9-.74,1.44-3.2-.68-3.67L248.87,85.49a12.85,12.85,0,0,0-6.26.12L175.93,102C173.89,102.59,174.09,105.12,176.23,105.74Z" transform="translate(-0.5 0)"/><path class="cls-13" d="M248.63,85.45a12.86,12.86,0,0,0-6,.16L175.93,102c-2,.56-1.84,3.09.3,3.71l.18.07,66.2-16.31a13,13,0,0,1,6-.16Z" transform="translate(-0.5 0)"/><path class="cls-13" d="M213.67,108l-.75,25s14.93,5.2,37.94,5.2,26.88-4.52,26.88-4.52V111.17C247.56,91.68,213.67,108,213.67,108Z" transform="translate(-0.5 0)"/><line class="cls-25" x1="189.41" y1="98.58" x2="187.08" y2="135.63"/><path class="cls-26" d="M187.7,133.5s-1.41-.35-2,.31-.41,2,.18,2.22,2.69.95,3.41.36.41-1.63.35-1.89C189.53,133.84,187.7,133.5,187.7,133.5Z" transform="translate(-0.5 0)"/><path class="cls-26" d="M186.14,134.84s-3.38,17.54-2.89,18.19l.49.65s-.81,5.12-1,6.41.73,2.18,1.3-1.3-1.54,9.5-1.05,9.53.76.66,1.43-1,2.05-13.7,2.05-13.7.09,1.79.65,1.79,1.61-20.54,1.61-20.54Z" transform="translate(-0.5 0)"/><path class="cls-27" d="M208.7,314.22s-2.37-16.79-2.11-17.54c.86-2.5,2.7,4.42,2.7,4.42s-1.62-21.74-.65-22,2.27,18.49,3.25,16.43,1.62-10.86,3.13-9.57-5,28.21-5,28.21Z" transform="translate(-0.5 0)"/><path class="cls-27" d="M278.38,314.22s-1-6.52,0-6.63,1.53,2.7,2,2.49-1.93-17.63-.73-18.28,1.77,13,3.06,13,1.69-5.87,2.66-5.53-1.13,15-1.13,15Z" transform="translate(-0.5 0)"/><circle class="cls-12" cx="359.49" cy="197.99" r="2.83"/><circle class="cls-12" cx="348.35" cy="197.99" r="2.83"/><path class="cls-12" d="M340.54,198a2.83,2.83,0,1,1-2.83-2.83A2.83,2.83,0,0,1,340.54,198Z" transform="translate(-0.5 0)"/><path class="cls-13" d="M339,377.77H173.52a10.94,10.94,0,0,1-11-10.94V345.3l-14.23-13.36H339A11,11,0,0,1,350,342.89v23.94A10.94,10.94,0,0,1,339,377.77Z" transform="translate(-0.5 0)"/><rect class="cls-14" x="183.46" y="345.11" width="153.48" height="3.13"/><rect class="cls-14" x="177.22" y="353.29" width="148.48" height="3.13"/><rect class="cls-14" x="196.46" y="361.48" width="141.3" height="3.13"/><path class="cls-28" d="M397.29,95.5a26,26,0,0,0-26,26c0,16.78,16.14,31.31,23,36.72l-.53,2.26h3.55s26-19.41,26-39A26,26,0,0,0,397.29,95.5Zm0,40.72a13.76,13.76,0,1,1,13.76-13.75A13.75,13.75,0,0,1,397.29,136.22Z" transform="translate(-0.5 0)"/><path class="cls-24" d="M393.74,95.5a26,26,0,0,0-26,26c0,21.29,26,39,26,39s26-19.41,26-39A26,26,0,0,0,393.74,95.5Zm0,40.72a13.76,13.76,0,1,1,13.75-13.75A13.75,13.75,0,0,1,393.74,136.22Z" transform="translate(-0.5 0)"/><path class="cls-29" d="M461.6,396.31h85.3a11,11,0,0,0,11-11v-8.54" transform="translate(-0.5 0)"/><path class="cls-29" d="M371.56,230.87H444.7a8.24,8.24,0,0,1,8.25,8.24v30.52" transform="translate(-0.5 0)"/><rect class="cls-11" x="418.6" y="244.81" width="244.79" height="122.75" rx="3.79"/><path class="cls-12" d="M457.61,255.13a2.83,2.83,0,1,1-2.83-2.83A2.83,2.83,0,0,1,457.61,255.13Z" transform="translate(-0.5 0)"/><path class="cls-12" d="M446.47,255.13a2.83,2.83,0,1,1-2.83-2.83A2.83,2.83,0,0,1,446.47,255.13Z" transform="translate(-0.5 0)"/><path class="cls-12" d="M435.33,255.13a2.83,2.83,0,1,1-2.83-2.83A2.83,2.83,0,0,1,435.33,255.13Z" transform="translate(-0.5 0)"/><rect class="cls-12" x="426.61" y="280.43" width="51.69" height="33.85"/><rect class="cls-12" x="426.61" y="320.94" width="51.69" height="12.48"/><rect class="cls-12" x="589.21" y="253.98" width="51.69" height="12.48"/><path class="cls-30" d="M647.43,283.28s9.42-32.77,7.53-43.38-1.46-18.19-3-18.41c-1.94-.27-1,9.09-2.33,9.14-.42,0-.39-11.65-3-11.73s-.53,11.69-1.35,12-1.8-12.51-5-13.65c-1.95-.71-.86,4.9-.3,9.66.53,4.48,1,7.09.45,7.24-.35.09-2.1-12.43-4.64-11.23-1.56.74,2.51,16.79,1.24,25-.26,1.65-6.46,16.07-10.17,21.34Z" transform="translate(-0.5 0)"/><path class="cls-30" d="M641.05,245.62s-6.61-10.1-10.12-10.12,5.42,10.88,4.59,16.22S641.05,245.62,641.05,245.62Z" transform="translate(-0.5 0)"/><path class="cls-14" d="M624.29,270.47l3.28-7.91s29.44,25,30.93,27.59L652.19,301Z" transform="translate(-0.5 0)"/><path class="cls-13" d="M454.15,368H619.59c21.46-24.22,40.3-69.56,39.36-70.61-1.3-1.44-34.36-30.65-34.36-30.65-4.76,10.37-17.7,40.27-21.65,40.92S586,285.4,583.47,282.81c-5.84-5.95-25.53-9.19-25.53-9.19l-12.91.32.73,3.74-52.64-4.06H488s-15.13,7.7-17.4,10.05c-10.85,11.25-17.23,49.31-16.68,59.69C454.16,347.83,454.19,357.94,454.15,368Z" transform="translate(-0.5 0)"/><path class="cls-14" d="M568.88,275.75c-5.74-1.43-10.94-2.13-10.94-2.13l-12.91.32.73,3.74-52.64-4.06H488s-5,2.44-9.73,5c8,7.85,29.63,27.88,47.15,32.72C525.43,311.35,556.1,290.21,568.88,275.75Z" transform="translate(-0.5 0)"/><path class="cls-4" d="M532.33,189.7s-32.24,12.18-32.24,23.21S511,265.13,511,265.13s-20.26-5.7-21.49-6.33,5.41-12.89,1.61-24.51-12.89-22.06,1.72-35.77C506.45,185.76,525.11,172,532.33,189.7Z" transform="translate(-0.5 0)"/><path class="cls-31" d="M509.45,264c5.05-5.05,5.9-26.2,5.9-26.2H530.6s.85,21.15,5.9,26.2,21.44,9.65,21.44,9.65L521.55,301.4c-9.43-2.48-33.54-27.78-33.54-27.78S504.41,269,509.45,264Z" transform="translate(-0.5 0)"/><path class="cls-32" d="M501.22,221.43s-9.4-10.48-15.58-7.26,1.07,18.27,13.16,18.27S501.22,221.43,501.22,221.43Z" transform="translate(-0.5 0)"/><path class="cls-33" d="M544.74,221.43s9.4-10.48,15.58-7.26-1.08,18.27-13.17,18.27S544.74,221.43,544.74,221.43Z" transform="translate(-0.5 0)"/><path class="cls-30" d="M494,225.72V211.06a29,29,0,0,1,29-29h0a29,29,0,0,1,29,29v14.66s.54,31.81-29,34.49C493.43,257.53,494,225.72,494,225.72Z" transform="translate(-0.5 0)"/><path class="cls-34" d="M552,225.72V211.06a28.85,28.85,0,0,0-4.55-15.59c-15-6.18-33.63-14.05-28.28-2.15,6.08,13.52,19.7,12.41,18.78,23.93-2.08,26.1,2.77,30.33,1.76,36.65C552.29,243.86,552,225.72,552,225.72Z" transform="translate(-0.5 0)"/><path class="cls-4" d="M520.59,236.63a3,3,0,0,1-1.82-.49,1.5,1.5,0,0,1-.55-1.21c0-1.5,1.21-2,2-2.31.34-.13.72-.28.78-.43a36.54,36.54,0,0,0,.21-6.07.32.32,0,0,1,.32-.33.3.3,0,0,1,.33.32c0,.92.09,5.58-.27,6.35-.17.38-.61.56-1.12.76-.79.32-1.61.65-1.61,1.71a.84.84,0,0,0,.3.7c.65.53,2.18.33,2.72.21a.32.32,0,0,1,.38.25.33.33,0,0,1-.24.39A7.39,7.39,0,0,1,520.59,236.63Z" transform="translate(-0.5 0)"/><path class="cls-4" d="M501,217.42c-.44-1,6.63-7.1,11.41-4.59,4.22,2.21-3.91,4.07-8,4.84S501,217.42,501,217.42Z" transform="translate(-0.5 0)"/><path class="cls-4" d="M545,217.14c.64-.9-5-8.32-10.21-6.86-4.59,1.28,3,4.79,6.84,6.41S545,217.14,545,217.14Z" transform="translate(-0.5 0)"/><path class="cls-23" d="M514.15,242.2l18.24-.1a10.62,10.62,0,0,1-9.83,6.83C515.35,249,514.15,242.2,514.15,242.2Z" transform="translate(-0.5 0)"/><path class="cls-4" d="M534.42,223.5c0,2,1.15,3.57,2.58,3.57s2.59-1.6,2.59-3.57-1.16-3.58-2.59-3.58S534.42,221.52,534.42,223.5Z" transform="translate(-0.5 0)"/><path class="cls-4" d="M507,223.5c0,2,1.15,3.57,2.58,3.57s2.59-1.6,2.59-3.57-1.16-3.58-2.59-3.58S507,221.52,507,223.5Z" transform="translate(-0.5 0)"/><path class="cls-4" d="M539.17,261.73l25.7-2.2s7.82-13.61,1.9-22.9-4.77-5.71-5-18.17.82-18.1-5.57-20.61c-15.39-6-40.24-18-34.16-4.53s19.7,12.41,18.78,23.93C538,252,547.55,248,539.17,261.73Z" transform="translate(-0.5 0)"/><path class="cls-24" d="M593.16,184.74l-62.59,11.14a12.62,12.62,0,0,1-8-.26l-63.38-28.94c-2-.74-2.06-3.22,0-3.64l66.07-11.62a12.75,12.75,0,0,1,6.12.3l61.43,29.39C594.78,181.71,595.06,184.13,593.16,184.74Z" transform="translate(-0.5 0)"/><path class="cls-13" d="M459.15,166.68l.18.08,65.6-11.54a12.7,12.7,0,0,1,6.11.29l61.36,29.36.76-.13c1.9-.61,1.62-3-.43-3.63L531.3,151.72a12.75,12.75,0,0,0-6.12-.3L459.11,163C457.09,163.46,457.11,165.94,459.15,166.68Z" transform="translate(-0.5 0)"/><path class="cls-13" d="M531.07,151.66a12.67,12.67,0,0,0-5.89-.24L459.11,163c-2,.42-2,2.9,0,3.64l.18.08,65.6-11.54a12.63,12.63,0,0,1,5.88.24Z" transform="translate(-0.5 0)"/><path class="cls-13" d="M495.5,171.36l-2.38,24.37s14.22,6,36.64,7.56,26.5-2.64,26.5-2.64l1-15.22.46-6.78C529.61,157.67,495.5,171.36,495.5,171.36Z" transform="translate(-0.5 0)"/><line class="cls-25" x1="472.47" y1="160.61" x2="467.76" y2="196.57"/><path class="cls-26" d="M468.51,194.5s-1.35-.43-1.94.17-.53,1.93,0,2.18,2.56,1.1,3.3.57.5-1.57.47-1.82C470.28,195,468.51,194.5,468.51,194.5Z" transform="translate(-0.5 0)"/><path class="cls-26" d="M466.91,195.7s-4.45,16.87-4,17.54l.43.66s-1.13,4.94-1.37,6.19.57,2.18,1.35-1.19-2.12,9.17-1.65,9.23.7.7,1.47-.91S466,214,466,214s0,1.75.51,1.79,2.92-19.92,2.92-19.92Z" transform="translate(-0.5 0)"/><path class="cls-35" d="M488.8,368s-2.79-17.25-2.21-17.25,2.21,2.87,2.21,2.87-2.45-11.3-1.14-12.06,2.67,16.27,3,16.81,1.79-4.7,3.16-4.75S491,368,491,368Z" transform="translate(-0.5 0)"/><path class="cls-35" d="M569.85,354.79,573.09,368s5.08-2.33,6.22-3.62-1.3-1.25-2.76-.6,2.76-10.06.54-9.41-3.19,9.52-3.19,9.19-1.57-15.73-2.59-15.62S568.82,350.6,569.85,354.79Z" transform="translate(-0.5 0)"/><path class="cls-36" d="M582.46,224.09c1.76-1.76,4.58,1.07,6.34-.69s-1.07-4.59.69-6.35,4.59,1.07,6.35-.69-1.06-4.59.7-6.35,4.59,1.06,6.35-.7-1.06-4.59.7-6.36" transform="translate(-0.5 0)"/><path class="cls-37" d="M324.71,167.21c1.42-2,4.71.24,6.13-1.81s-1.87-4.32-.45-6.37,4.71.24,6.13-1.81-1.87-4.32-.45-6.37,4.71.24,6.13-1.81-1.86-4.33-.44-6.38" transform="translate(-0.5 0)"/><path class="cls-37" d="M583.06,405.87c2.1-1.33,4.24,2.05,6.35.72s0-4.71,2.06-6,4.25,2.05,6.35.72,0-4.72,2.07-6,4.25,2,6.36.72,0-4.71,2.07-6.05" transform="translate(-0.5 0)"/><path class="cls-36" d="M91.53,280.4c2.15,1.24.15,4.71,2.3,6s4.16-2.21,6.32-1,.15,4.71,2.3,5.95,4.16-2.21,6.32-1,.15,4.71,2.31,6,4.16-2.21,6.32-1" transform="translate(-0.5 0)"/><rect class="cls-13" x="361.03" y="379.3" width="136.28" height="40.54" rx="5.83"/><text class="cls-38" transform="translate(403.68 411.17)">Li<tspan class="cls-39" x="25.45" y="0">v</tspan><tspan x="42.43" y="0">e</tspan></text><circle class="cls-2" cx="381.08" cy="399.57" r="8.31"/><circle class="cls-36" cx="443.14" cy="187.8" r="6.47"/><path class="cls-36" d="M149.11,421.75a3.51,3.51,0,1,1-3.51-3.51A3.51,3.51,0,0,1,149.11,421.75Z" transform="translate(-0.5 0)"/><path class="cls-36" d="M692.06,341.55a5.73,5.73,0,1,1-5.73-5.72A5.74,5.74,0,0,1,692.06,341.55Z" transform="translate(-0.5 0)"/></g></g></svg>