<svg xmlns="http://www.w3.org/2000/svg" viewBox="0 0 646.12 389.47"><defs><style>.cls-1{fill:#e4eff9;}.cls-2{fill:#9dc3ea;}.cls-3{fill:#c1dbf4;}.cls-4{fill:#fff;}.cls-5{fill:#c46a44;}.cls-6{fill:#864e39;}.cls-7{fill:#f8cdd4;}.cls-8{fill:#d58898;}.cls-9{fill:#2d353e;}.cls-10{fill:#d35744;}.cls-11{fill:#0491fc;}.cls-12{fill:#f1ca58;}.cls-13{fill:#5c2a28;}.cls-14{fill:#a14647;}.cls-15{fill:#2c353e;}.cls-16{fill:#fdb680;}.cls-17{fill:#d7725d;}.cls-18{fill:#439d83;}.cls-19{fill:#b25e50;}.cls-20{fill:#853936;}.cls-21{fill:#244b82;}</style></defs><title>3977648</title><g id="OBJECTS"><path class="cls-1" d="M115.73,412.83s-73.47-97.13,24.15-165c0,0,39.25-25.56,103.66-35.06,0,0,115.73-18.26,166-89.09,0,0,78.5-61.35,138.88-22.64,0,0,73.47,38,82.52,126.34,0,0,15.1,127.8-22.14,187Z" transform="translate(-51.98 -48.75)"/><path class="cls-1" d="M647.92,387.24c1.59-14.91,11.42-26.91,24-31-.21-.68-.42-1.35-.63-1.94C658,358.68,647.7,371.34,646,387.07a40.91,40.91,0,0,0,0,9.06l2,.33A38.82,38.82,0,0,1,647.92,387.24Z" transform="translate(-51.98 -48.75)"/><path class="cls-1" d="M672.19,349.56a8.87,8.87,0,0,0-1.26,6.51,10.13,10.13,0,0,0,5.22-4.56,8.93,8.93,0,0,0,1.26-6.51A10.13,10.13,0,0,0,672.19,349.56Z" transform="translate(-51.98 -48.75)"/><path class="cls-1" d="M676.29,353.27a11.1,11.1,0,0,0-6.81,2.17,12.39,12.39,0,0,0,13.7-.21A11.11,11.11,0,0,0,676.29,353.27Z" transform="translate(-51.98 -48.75)"/><path class="cls-1" d="M670.54,357.78a11.33,11.33,0,0,0-7.12,1.09,10.84,10.84,0,0,0,6.43,3,11.33,11.33,0,0,0,7.12-1.08A10.84,10.84,0,0,0,670.54,357.78Z" transform="translate(-51.98 -48.75)"/><path class="cls-1" d="M663.77,362.2a11.05,11.05,0,0,0-6.84,2.09,12.42,12.42,0,0,0,13.7,0A11.09,11.09,0,0,0,663.77,362.2Z" transform="translate(-51.98 -48.75)"/><path class="cls-1" d="M659.23,367.46a10.87,10.87,0,0,0-6.56,2.74,11.25,11.25,0,0,0,7.06,1.36,10.9,10.9,0,0,0,6.56-2.75A11.25,11.25,0,0,0,659.23,367.46Z" transform="translate(-51.98 -48.75)"/><path class="cls-1" d="M655.14,373.28a10.68,10.68,0,0,0-6.31,3.2,11.35,11.35,0,0,0,7.15.85,10.71,10.71,0,0,0,6.31-3.2A11.37,11.37,0,0,0,655.14,373.28Z" transform="translate(-51.98 -48.75)"/><path class="cls-1" d="M652.49,379.43a10.27,10.27,0,0,0-5.62,4.14,11.38,11.38,0,0,0,7.2-.28,10.33,10.33,0,0,0,5.62-4.14A11.24,11.24,0,0,0,652.49,379.43Z" transform="translate(-51.98 -48.75)"/><path class="cls-1" d="M651.24,385.47a10.16,10.16,0,0,0-5.36,4.42,11.43,11.43,0,0,0,7.18-.65,10.2,10.2,0,0,0,5.36-4.42A11.28,11.28,0,0,0,651.24,385.47Z" transform="translate(-51.98 -48.75)"/><path class="cls-1" d="M663.14,353.09a9.06,9.06,0,0,0,2.13,6.31,9.89,9.89,0,0,0,.25-12.55A9.15,9.15,0,0,0,663.14,353.09Z" transform="translate(-51.98 -48.75)"/><path class="cls-1" d="M655.88,358.52a9.06,9.06,0,0,0,2.13,6.32,9.91,9.91,0,0,0,.25-12.56A9.1,9.1,0,0,0,655.88,358.52Z" transform="translate(-51.98 -48.75)"/><path class="cls-1" d="M650.67,364.18a9.3,9.3,0,0,0,3.06,6,8.92,8.92,0,0,0,1.41-6.48,9.31,9.31,0,0,0-3.06-6A9,9,0,0,0,650.67,364.18Z" transform="translate(-51.98 -48.75)"/><path class="cls-1" d="M644.89,372.14a10.13,10.13,0,0,0,5.16,4.62,8.91,8.91,0,0,0-1.16-6.52,10.11,10.11,0,0,0-5.16-4.63A8.94,8.94,0,0,0,644.89,372.14Z" transform="translate(-51.98 -48.75)"/><path class="cls-1" d="M642,380.41a10.77,10.77,0,0,0,6.29,3.25,9.24,9.24,0,0,0-3-6,10.7,10.7,0,0,0-6.28-3.24A9.27,9.27,0,0,0,642,380.41Z" transform="translate(-51.98 -48.75)"/><path class="cls-1" d="M640.63,388.53a11.18,11.18,0,0,0,7,1.6A9.79,9.79,0,0,0,643,385a11.2,11.2,0,0,0-7-1.59A9.76,9.76,0,0,0,640.63,388.53Z" transform="translate(-51.98 -48.75)"/><path class="cls-2" d="M690.6,397.83a20.89,20.89,0,0,0,.34-3.74c0-10.4-7.63-18.83-17.05-18.83a15.86,15.86,0,0,0-9.8,3.43c-3.11-8.68-10.76-14.82-19.72-14.82-9.69,0-17.86,7.19-20.39,17a15.19,15.19,0,0,0-10.92-4.74c-8.86,0-16,7.94-16,17.74a19.14,19.14,0,0,0,.41,4Z" transform="translate(-51.98 -48.75)"/><path class="cls-3" d="M639,414.29a41.6,41.6,0,0,0,.66-7.38c0-20.54-15.06-37.18-33.64-37.18a31.32,31.32,0,0,0-19.36,6.78c-6.13-17.13-21.25-29.26-38.93-29.26-19.14,0-35.27,14.19-40.26,33.57a30,30,0,0,0-21.56-9.36c-17.5,0-31.69,15.68-31.69,35a38.53,38.53,0,0,0,.81,7.81Z" transform="translate(-51.98 -48.75)"/><path class="cls-2" d="M561.82,398.75c2.67-25.13,19.24-45.34,40.37-52.31-.35-1.14-.71-2.27-1.07-3.27-22.26,7.45-39.68,28.79-42.5,55.3a68.81,68.81,0,0,0,.08,15.26l3.33.56A65.46,65.46,0,0,1,561.82,398.75Z" transform="translate(-51.98 -48.75)"/><path class="cls-2" d="M602.7,335.26c-2.24,3.84-2.91,7.89-2.11,11a17.14,17.14,0,0,0,8.8-7.68c2.24-3.85,2.91-7.89,2.11-11A17.12,17.12,0,0,0,602.7,335.26Z" transform="translate(-51.98 -48.75)"/><path class="cls-2" d="M609.62,341.51c-4.76.08-8.94,1.51-11.48,3.66,2.62,2.06,6.85,3.36,11.61,3.29s8.94-1.51,11.48-3.66C618.61,342.74,614.38,341.44,609.62,341.51Z" transform="translate(-51.98 -48.75)"/><path class="cls-2" d="M599.93,349.11c-4.71-.66-9.09.11-12,1.83,2.2,2.43,6.13,4.38,10.83,5s9.09-.11,12-1.83C608.56,351.72,604.63,349.77,599.93,349.11Z" transform="translate(-51.98 -48.75)"/><path class="cls-2" d="M588.53,356.56c-4.76,0-9,1.4-11.53,3.51,2.58,2.1,6.8,3.46,11.56,3.44s9-1.4,11.53-3.51C597.5,357.91,593.29,356.55,588.53,356.56Z" transform="translate(-51.98 -48.75)"/><path class="cls-2" d="M580.87,365.41c-4.73.49-8.74,2.27-11,4.63,2.81,1.83,7.16,2.76,11.89,2.28s8.75-2.27,11.06-4.62C590,365.87,585.6,364.93,580.87,365.41Z" transform="translate(-51.98 -48.75)"/><path class="cls-2" d="M574,375.22c-4.68.82-8.53,2.88-10.64,5.39,3,1.63,7.38,2.25,12,1.44s8.53-2.88,10.64-5.39C583.07,375,578.65,374.41,574,375.22Z" transform="translate(-51.98 -48.75)"/><path class="cls-2" d="M569.51,385.58c-4.45,1.53-7.86,4.18-9.47,7,3.22,1.13,7.69,1.06,12.14-.48s7.87-4.17,9.47-7C578.43,384,574,384,569.51,385.58Z" transform="translate(-51.98 -48.75)"/><path class="cls-2" d="M567.41,395.76c-4.35,1.76-7.6,4.57-9,7.45,3.28,1,7.74.67,12.09-1.09s7.6-4.58,9-7.45C576.22,393.7,571.76,394,567.41,395.76Z" transform="translate(-51.98 -48.75)"/><path class="cls-2" d="M587.47,341.2a15.23,15.23,0,0,0,3.58,10.64,16.67,16.67,0,0,0,.42-21.16A15.36,15.36,0,0,0,587.47,341.2Z" transform="translate(-51.98 -48.75)"/><path class="cls-2" d="M575.23,350.35A15.34,15.34,0,0,0,578.81,361a16.67,16.67,0,0,0,.42-21.16A15.36,15.36,0,0,0,575.23,350.35Z" transform="translate(-51.98 -48.75)"/><ellipse class="cls-2" cx="570.22" cy="359.47" rx="3.79" ry="10.6" transform="translate(-95.17 31.26) rotate(-7.73)"/><path class="cls-2" d="M556.71,373.3a17.08,17.08,0,0,0,8.69,7.79c.85-3.07.23-7.13-2-11a17.06,17.06,0,0,0-8.68-7.79C553.91,365.37,554.52,369.42,556.71,373.3Z" transform="translate(-51.98 -48.75)"/><path class="cls-2" d="M551.81,387.25a18.11,18.11,0,0,0,10.59,5.46c0-3.16-1.78-6.93-5-10.15a18.16,18.16,0,0,0-10.59-5.47C546.86,380.25,548.6,384,551.81,387.25Z" transform="translate(-51.98 -48.75)"/><path class="cls-2" d="M549.52,400.93a18.87,18.87,0,0,0,11.8,2.68c-1-3-3.73-6.25-7.76-8.57a18.87,18.87,0,0,0-11.8-2.68C542.73,395.4,545.49,398.61,549.52,400.93Z" transform="translate(-51.98 -48.75)"/><path class="cls-1" d="M89.23,392.78a32.22,32.22,0,0,0-22.43-27c.19-.59.4-1.17.59-1.69A34.12,34.12,0,0,1,91,392.63a33,33,0,0,1,0,7.89l-1.86.29A30.74,30.74,0,0,0,89.23,392.78Z" transform="translate(-51.98 -48.75)"/><path class="cls-1" d="M66.51,360a7.3,7.3,0,0,1,1.18,5.67,9.32,9.32,0,0,1-4.89-4A7.29,7.29,0,0,1,61.63,356,9.31,9.31,0,0,1,66.51,360Z" transform="translate(-51.98 -48.75)"/><path class="cls-1" d="M62.67,363.2a10.87,10.87,0,0,1,6.38,1.88,10.93,10.93,0,0,1-6.45,1.71,11,11,0,0,1-6.38-1.89A11,11,0,0,1,62.67,363.2Z" transform="translate(-51.98 -48.75)"/><path class="cls-1" d="M68.06,367.12a11.27,11.27,0,0,1,6.66.95,10.43,10.43,0,0,1-6,2.6,11.2,11.2,0,0,1-6.66-.94A10.46,10.46,0,0,1,68.06,367.12Z" transform="translate(-51.98 -48.75)"/><path class="cls-1" d="M74.39,371a10.94,10.94,0,0,1,6.41,1.82,11,11,0,0,1-6.42,1.78A10.94,10.94,0,0,1,68,372.75,11,11,0,0,1,74.39,371Z" transform="translate(-51.98 -48.75)"/><path class="cls-1" d="M78.65,375.55a10.57,10.57,0,0,1,6.14,2.39,11.23,11.23,0,0,1-6.61,1.18A10.54,10.54,0,0,1,72,376.73,11.14,11.14,0,0,1,78.65,375.55Z" transform="translate(-51.98 -48.75)"/><path class="cls-1" d="M82.48,380.62a10.34,10.34,0,0,1,5.91,2.78,11.33,11.33,0,0,1-6.7.75,10.28,10.28,0,0,1-5.91-2.79A11.33,11.33,0,0,1,82.48,380.62Z" transform="translate(-51.98 -48.75)"/><path class="cls-1" d="M85,386a9.6,9.6,0,0,1,5.26,3.61,11.38,11.38,0,0,1-6.74-.25,9.63,9.63,0,0,1-5.27-3.6A11.41,11.41,0,0,1,85,386Z" transform="translate(-51.98 -48.75)"/><path class="cls-1" d="M86.13,391.23a9.44,9.44,0,0,1,5,3.85,11.36,11.36,0,0,1-6.72-.56,9.35,9.35,0,0,1-5-3.85A11.37,11.37,0,0,1,86.13,391.23Z" transform="translate(-51.98 -48.75)"/><path class="cls-1" d="M75,363a7.57,7.57,0,0,1-2,5.51,7.69,7.69,0,0,1-2.22-5.44,7.55,7.55,0,0,1,2-5.5A7.64,7.64,0,0,1,75,363Z" transform="translate(-51.98 -48.75)"/><path class="cls-1" d="M81.78,367.77a7.55,7.55,0,0,1-2,5.5,7.69,7.69,0,0,1-2.22-5.44,7.55,7.55,0,0,1,2-5.5A7.65,7.65,0,0,1,81.78,367.77Z" transform="translate(-51.98 -48.75)"/><path class="cls-1" d="M86.66,372.69a7.92,7.92,0,0,1-2.87,5.21,7.35,7.35,0,0,1-1.31-5.64,7.91,7.91,0,0,1,2.86-5.21A7.35,7.35,0,0,1,86.66,372.69Z" transform="translate(-51.98 -48.75)"/><path class="cls-1" d="M92.07,379.62a9.29,9.29,0,0,1-4.82,4A7.24,7.24,0,0,1,88.33,378a9.31,9.31,0,0,1,4.83-4A7.29,7.29,0,0,1,92.07,379.62Z" transform="translate(-51.98 -48.75)"/><path class="cls-1" d="M94.8,386.83a10.36,10.36,0,0,1-5.89,2.83,7.82,7.82,0,0,1,2.78-5.25,10.37,10.37,0,0,1,5.88-2.83A7.84,7.84,0,0,1,94.8,386.83Z" transform="translate(-51.98 -48.75)"/><path class="cls-1" d="M96.07,393.9a11.18,11.18,0,0,1-6.56,1.39,8.83,8.83,0,0,1,4.32-4.43,11.15,11.15,0,0,1,6.55-1.39A8.76,8.76,0,0,1,96.07,393.9Z" transform="translate(-51.98 -48.75)"/><path class="cls-2" d="M60.13,401.33a22.59,22.59,0,0,1-.28-3.62c0-10,6.29-18.2,14-18.2A11.92,11.92,0,0,1,82,382.83c2.56-8.39,8.87-14.33,16.26-14.33,8,0,14.72,6.95,16.8,16.44a11.73,11.73,0,0,1,9-4.59c7.31,0,13.23,7.68,13.23,17.15a21.74,21.74,0,0,1-.34,3.83Z" transform="translate(-51.98 -48.75)"/><path class="cls-2" d="M429.41,414.29a94.26,94.26,0,0,0,1.07-14.21c0-39.53-24.28-71.57-54.24-71.57-11.62,0-22.38,4.84-31.21,13.05-9.89-33-34.25-56.32-62.77-56.32-30.85,0-56.85,27.32-64.89,64.62-9.12-11.18-21.33-18-34.76-18-28.22,0-51.09,30.18-51.09,67.41a89,89,0,0,0,1.29,15Z" transform="translate(-51.98 -48.75)"/><path class="cls-3" d="M255.06,399.7c2.63-23.59,18.9-42.57,39.66-49.11-.35-1.07-.71-2.13-1.05-3.07-21.87,7-39,27-41.75,51.92a61.8,61.8,0,0,0,.07,14.33l3.28.52A58.2,58.2,0,0,1,255.06,399.7Z" transform="translate(-51.98 -48.75)"/><path class="cls-3" d="M295.22,340.09c-2.21,3.61-2.86,7.41-2.07,10.3a16.67,16.67,0,0,0,8.64-7.22c2.2-3.61,2.86-7.41,2.07-10.3A16.63,16.63,0,0,0,295.22,340.09Z" transform="translate(-51.98 -48.75)"/><ellipse class="cls-3" cx="302.08" cy="349.22" rx="11.34" ry="3.26" transform="translate(-57.05 -44.3) rotate(-0.84)"/><path class="cls-3" d="M292.49,353.1c-4.62-.63-8.93.09-11.77,1.71,2.16,2.29,6,4.11,10.64,4.73s8.93-.1,11.78-1.71C301,355.54,297.11,353.72,292.49,353.1Z" transform="translate(-51.98 -48.75)"/><path class="cls-3" d="M281.3,360.09c-4.68,0-8.81,1.31-11.33,3.3,2.54,2,6.68,3.24,11.35,3.23s8.81-1.32,11.33-3.3C290.11,361.35,286,360.08,281.3,360.09Z" transform="translate(-51.98 -48.75)"/><path class="cls-3" d="M273.78,368.4c-4.65.45-8.6,2.13-10.86,4.34,2.76,1.72,7,2.6,11.68,2.15s8.59-2.13,10.86-4.34C282.69,368.83,278.42,368,273.78,368.4Z" transform="translate(-51.98 -48.75)"/><path class="cls-3" d="M267,377.61c-4.59.76-8.38,2.71-10.44,5.06,2.9,1.53,7.24,2.11,11.83,1.35s8.38-2.7,10.45-5.06C275.93,377.44,271.59,376.85,267,377.61Z" transform="translate(-51.98 -48.75)"/><path class="cls-3" d="M262.62,387.33c-4.38,1.45-7.73,3.93-9.31,6.55a19.62,19.62,0,0,0,11.93-.44c4.37-1.44,7.73-3.92,9.3-6.55A19.59,19.59,0,0,0,262.62,387.33Z" transform="translate(-51.98 -48.75)"/><path class="cls-3" d="M260.55,396.89c-4.27,1.66-7.46,4.3-8.87,7a19.61,19.61,0,0,0,11.88-1c4.28-1.65,7.46-4.29,8.87-7A19.53,19.53,0,0,0,260.55,396.89Z" transform="translate(-51.98 -48.75)"/><path class="cls-3" d="M280.26,345.67a14,14,0,0,0,3.51,10,15.12,15.12,0,0,0,.41-19.87A14.07,14.07,0,0,0,280.26,345.67Z" transform="translate(-51.98 -48.75)"/><path class="cls-3" d="M268.23,354.26a14,14,0,0,0,3.52,10,14.09,14.09,0,0,0,3.93-9.88,13.91,13.91,0,0,0-3.52-10A14.09,14.09,0,0,0,268.23,354.26Z" transform="translate(-51.98 -48.75)"/><path class="cls-3" d="M259.61,363.21a14.49,14.49,0,0,0,5.07,9.47A13.64,13.64,0,0,0,267,362.42a14.48,14.48,0,0,0-5.06-9.46A13.67,13.67,0,0,0,259.61,363.21Z" transform="translate(-51.98 -48.75)"/><path class="cls-3" d="M250,375.8a16.54,16.54,0,0,0,8.53,7.32c.84-2.88.24-6.69-1.92-10.32a16.5,16.5,0,0,0-8.53-7.32C247.29,368.36,247.89,372.17,250,375.8Z" transform="translate(-51.98 -48.75)"/><path class="cls-3" d="M245.23,388.9a18,18,0,0,0,10.4,5.13c0-3-1.75-6.51-4.91-9.53a18.07,18.07,0,0,0-10.4-5.14C240.37,382.33,242.07,385.88,245.23,388.9Z" transform="translate(-51.98 -48.75)"/><path class="cls-3" d="M243,401.75a19.34,19.34,0,0,0,11.58,2.52c-.94-2.86-3.66-5.87-7.62-8a19.26,19.26,0,0,0-11.58-2.52C236.3,396.55,239,399.57,243,401.75Z" transform="translate(-51.98 -48.75)"/><path class="cls-2" d="M160.63,401.54A51.18,51.18,0,0,0,125,358.6c.31-.94.63-1.86,1-2.68a54.16,54.16,0,0,1,37.5,45.38,52.45,52.45,0,0,1-.07,12.53l-2.94.46A49.31,49.31,0,0,0,160.63,401.54Z" transform="translate(-51.98 -48.75)"/><path class="cls-2" d="M124.55,349.42c2,3.16,2.57,6.48,1.86,9a14.82,14.82,0,0,1-7.76-6.31c-2-3.15-2.57-6.47-1.86-9A14.83,14.83,0,0,1,124.55,349.42Z" transform="translate(-51.98 -48.75)"/><path class="cls-2" d="M118.45,354.55c4.2.07,7.89,1.25,10.13,3-2.31,1.69-6.05,2.76-10.25,2.7s-7.89-1.24-10.13-3C110.51,355.56,114.25,354.49,118.45,354.55Z" transform="translate(-51.98 -48.75)"/><path class="cls-2" d="M127,360.79a17.93,17.93,0,0,1,10.58,1.5c-1.94,2-5.41,3.6-9.56,4.14a17.93,17.93,0,0,1-10.58-1.5C119.38,362.93,122.85,361.34,127,360.79Z" transform="translate(-51.98 -48.75)"/><path class="cls-2" d="M137.06,366.91c4.2,0,7.91,1.15,10.17,2.88-2.28,1.72-6,2.83-10.19,2.82s-7.91-1.15-10.18-2.88C129.14,368,132.86,366.9,137.06,366.91Z" transform="translate(-51.98 -48.75)"/><path class="cls-2" d="M143.81,374.17c4.18.4,7.72,1.87,9.76,3.8-2.48,1.5-6.32,2.27-10.49,1.87s-7.72-1.86-9.76-3.79C135.8,374.55,139.64,373.78,143.81,374.17Z" transform="translate(-51.98 -48.75)"/><path class="cls-2" d="M149.9,382.22c4.12.67,7.53,2.37,9.38,4.43a18,18,0,0,1-10.63,1.18c-4.12-.67-7.53-2.37-9.38-4.42A18,18,0,0,1,149.9,382.22Z" transform="translate(-51.98 -48.75)"/><path class="cls-2" d="M153.84,390.72c3.93,1.26,6.94,3.43,8.36,5.73a18.11,18.11,0,0,1-10.71-.39c-3.94-1.26-7-3.42-8.36-5.72A18.1,18.1,0,0,1,153.84,390.72Z" transform="translate(-51.98 -48.75)"/><path class="cls-2" d="M155.69,399.08c3.85,1.45,6.71,3.75,8,6.12a18.17,18.17,0,0,1-10.68-.9c-3.84-1.45-6.7-3.75-8-6.12A18.13,18.13,0,0,1,155.69,399.08Z" transform="translate(-51.98 -48.75)"/><path class="cls-2" d="M138,354.3a12,12,0,0,1-3.16,8.74,12.2,12.2,0,0,1-3.53-8.64,12,12,0,0,1,3.17-8.73A12.13,12.13,0,0,1,138,354.3Z" transform="translate(-51.98 -48.75)"/><path class="cls-2" d="M148.79,361.81a12,12,0,0,1-3.16,8.74,12.17,12.17,0,0,1-3.53-8.63,12,12,0,0,1,3.16-8.74A12.09,12.09,0,0,1,148.79,361.81Z" transform="translate(-51.98 -48.75)"/><path class="cls-2" d="M156.54,369.64a12.6,12.6,0,0,1-4.55,8.27,11.64,11.64,0,0,1-2.09-9,12.54,12.54,0,0,1,4.55-8.28A11.7,11.7,0,0,1,156.54,369.64Z" transform="translate(-51.98 -48.75)"/><path class="cls-2" d="M165.14,380.64a14.79,14.79,0,0,1-7.67,6.4c-.75-2.52-.21-5.85,1.73-9a14.76,14.76,0,0,1,7.66-6.39C167.61,374.14,167.07,377.47,165.14,380.64Z" transform="translate(-51.98 -48.75)"/><path class="cls-2" d="M169.46,392.09a16.47,16.47,0,0,1-9.34,4.49c0-2.6,1.57-5.69,4.4-8.34a16.44,16.44,0,0,1,9.35-4.48C173.83,386.35,172.3,389.45,169.46,392.09Z" transform="translate(-51.98 -48.75)"/><path class="cls-2" d="M171.48,403.32a17.68,17.68,0,0,1-10.41,2.21c.85-2.5,3.3-5.13,6.85-7a17.76,17.76,0,0,1,10.41-2.2C177.48,398.78,175,401.42,171.48,403.32Z" transform="translate(-51.98 -48.75)"/><path class="cls-3" d="M388.3,402.93c-2.22-18.38-15.95-33.16-33.46-38.26.29-.83.59-1.66.89-2.39,18.44,5.44,32.88,21.05,35.22,40.44a44.28,44.28,0,0,1-.07,11.16l-2.76.41A41.82,41.82,0,0,0,388.3,402.93Z" transform="translate(-51.98 -48.75)"/><path class="cls-3" d="M354.42,356.49c1.86,2.81,2.41,5.77,1.75,8a13.77,13.77,0,0,1-7.29-5.62c-1.87-2.81-2.42-5.77-1.75-8A13.9,13.9,0,0,1,354.42,356.49Z" transform="translate(-51.98 -48.75)"/><path class="cls-3" d="M348.68,361.07c3.95.05,7.41,1.1,9.52,2.67-2.17,1.51-5.68,2.46-9.62,2.41s-7.41-1.11-9.52-2.68A17.07,17.07,0,0,1,348.68,361.07Z" transform="translate(-51.98 -48.75)"/><path class="cls-3" d="M356.72,366.62a17.61,17.61,0,0,1,9.93,1.34c-1.82,1.78-5.08,3.2-9,3.69a17.6,17.6,0,0,1-9.93-1.34C349.56,368.53,352.82,367.11,356.72,366.62Z" transform="translate(-51.98 -48.75)"/><path class="cls-3" d="M366.16,372.07a17,17,0,0,1,9.56,2.57,16.89,16.89,0,0,1-9.58,2.51c-3.94,0-7.43-1-9.56-2.56A17,17,0,0,1,366.16,372.07Z" transform="translate(-51.98 -48.75)"/><path class="cls-3" d="M372.51,378.55c3.92.35,7.25,1.66,9.16,3.38a17.55,17.55,0,0,1-9.86,1.67c-3.91-.35-7.24-1.66-9.16-3.38A17.38,17.38,0,0,1,372.51,378.55Z" transform="translate(-51.98 -48.75)"/><path class="cls-3" d="M378.22,385.72c3.88.59,7.07,2.11,8.82,3.94a17.67,17.67,0,0,1-10,1c-3.87-.59-7.07-2.11-8.81-3.94A17.63,17.63,0,0,1,378.22,385.72Z" transform="translate(-51.98 -48.75)"/><path class="cls-3" d="M381.92,393.29c3.69,1.13,6.52,3.06,7.85,5.11a17.9,17.9,0,0,1-10.06-.35c-3.69-1.12-6.52-3.05-7.85-5.1A17.89,17.89,0,0,1,381.92,393.29Z" transform="translate(-51.98 -48.75)"/><path class="cls-3" d="M383.67,400.74c3.6,1.29,6.29,3.34,7.48,5.45a17.77,17.77,0,0,1-10-.8c-3.61-1.29-6.3-3.35-7.49-5.45A17.8,17.8,0,0,1,383.67,400.74Z" transform="translate(-51.98 -48.75)"/><path class="cls-3" d="M367,360.84a10.34,10.34,0,0,1-3,7.78,10.53,10.53,0,0,1-3.31-7.69,10.34,10.34,0,0,1,3-7.78A10.53,10.53,0,0,1,367,360.84Z" transform="translate(-51.98 -48.75)"/><path class="cls-3" d="M377.18,367.53a10.38,10.38,0,0,1-3,7.79,10.55,10.55,0,0,1-3.31-7.7,10.41,10.41,0,0,1,3-7.78A10.53,10.53,0,0,1,377.18,367.53Z" transform="translate(-51.98 -48.75)"/><path class="cls-3" d="M384.46,374.5a11.1,11.1,0,0,1-4.28,7.38,10,10,0,0,1-2-8,11.1,11.1,0,0,1,4.28-7.38A10,10,0,0,1,384.46,374.5Z" transform="translate(-51.98 -48.75)"/><path class="cls-3" d="M392.53,384.31a13.72,13.72,0,0,1-7.19,5.7c-.71-2.24-.2-5.21,1.61-8a13.78,13.78,0,0,1,7.2-5.7C394.85,378.51,394.35,381.48,392.53,384.31Z" transform="translate(-51.98 -48.75)"/><path class="cls-3" d="M396.6,394.51a15.79,15.79,0,0,1-8.78,4c0-2.31,1.48-5.07,4.14-7.43a15.77,15.77,0,0,1,8.77-4C400.69,389.4,399.26,392.16,396.6,394.51Z" transform="translate(-51.98 -48.75)"/><path class="cls-3" d="M398.49,404.52a17.37,17.37,0,0,1-9.77,2c.79-2.22,3.09-4.57,6.43-6.27a17.46,17.46,0,0,1,9.77-2C404.12,400.47,401.83,402.82,398.49,404.52Z" transform="translate(-51.98 -48.75)"/><path class="cls-3" d="M337.32,414.29a50.77,50.77,0,0,0,.82-9.14c0-25.41-18.64-46-41.63-46a38.82,38.82,0,0,0-24,8.39c-7.59-21.21-26.29-36.21-48.18-36.21-23.68,0-43.63,17.56-49.81,41.54a37.16,37.16,0,0,0-26.68-11.58c-21.66,0-39.22,19.4-39.22,43.33a47.9,47.9,0,0,0,1,9.67Z" transform="translate(-51.98 -48.75)"/><path class="cls-2" d="M255.4,400.81c-2-21.82-14.59-39.36-30.62-45.41.26-1,.54-2,.81-2.83,16.88,6.46,30.1,25,32.24,48a68.12,68.12,0,0,1-.06,13.25l-2.53.48A64.4,64.4,0,0,0,255.4,400.81Z" transform="translate(-51.98 -48.75)"/><path class="cls-2" d="M224.39,345.7a14.64,14.64,0,0,1,1.6,9.52,13.67,13.67,0,0,1-6.67-6.67,14.59,14.59,0,0,1-1.6-9.52A13.67,13.67,0,0,1,224.39,345.7Z" transform="translate(-51.98 -48.75)"/><path class="cls-2" d="M219.14,351.13a13,13,0,0,1,8.71,3.17,14.22,14.22,0,0,1-17.51-.31A12.91,12.91,0,0,1,219.14,351.13Z" transform="translate(-51.98 -48.75)"/><path class="cls-2" d="M226.49,357.72a12.85,12.85,0,0,1,9.1,1.59,13.18,13.18,0,0,1-8.22,4.37,12.82,12.82,0,0,1-9.09-1.58A13.16,13.16,0,0,1,226.49,357.72Z" transform="translate(-51.98 -48.75)"/><path class="cls-2" d="M235.14,364.19a12.94,12.94,0,0,1,8.75,3.05,14.23,14.23,0,0,1-17.52-.07A13,13,0,0,1,235.14,364.19Z" transform="translate(-51.98 -48.75)"/><path class="cls-2" d="M241,371.87a13.13,13.13,0,0,1,8.38,4,12.89,12.89,0,0,1-9,2,13.13,13.13,0,0,1-8.38-4A12.84,12.84,0,0,1,241,371.87Z" transform="translate(-51.98 -48.75)"/><path class="cls-2" d="M246.18,380.38a13.27,13.27,0,0,1,8.07,4.68,12.84,12.84,0,0,1-9.15,1.25,13.22,13.22,0,0,1-8.06-4.68A12.85,12.85,0,0,1,246.18,380.38Z" transform="translate(-51.98 -48.75)"/><path class="cls-2" d="M249.57,389.37a13.56,13.56,0,0,1,7.18,6.06,12.84,12.84,0,0,1-9.21-.41,13.48,13.48,0,0,1-7.18-6.06A12.84,12.84,0,0,1,249.57,389.37Z" transform="translate(-51.98 -48.75)"/><path class="cls-2" d="M251.16,398.21a13.69,13.69,0,0,1,6.85,6.46,12.79,12.79,0,0,1-9.17-.94,13.62,13.62,0,0,1-6.85-6.47A12.8,12.8,0,0,1,251.16,398.21Z" transform="translate(-51.98 -48.75)"/><path class="cls-2" d="M235.94,350.86a14.47,14.47,0,0,1-2.71,9.23,16.07,16.07,0,0,1-.32-18.36A14.39,14.39,0,0,1,235.94,350.86Z" transform="translate(-51.98 -48.75)"/><path class="cls-2" d="M245.23,358.8a14.54,14.54,0,0,1-2.72,9.24,16.13,16.13,0,0,1-.32-18.37A14.47,14.47,0,0,1,245.23,358.8Z" transform="translate(-51.98 -48.75)"/><path class="cls-2" d="M251.89,367.07a14.33,14.33,0,0,1-3.92,8.76,14.59,14.59,0,0,1-1.79-9.48,14.27,14.27,0,0,1,3.91-8.76A14.65,14.65,0,0,1,251.89,367.07Z" transform="translate(-51.98 -48.75)"/><path class="cls-2" d="M259.27,378.71a13.68,13.68,0,0,1-6.58,6.76,14.6,14.6,0,0,1,1.48-9.54,13.65,13.65,0,0,1,6.59-6.76A14.61,14.61,0,0,1,259.27,378.71Z" transform="translate(-51.98 -48.75)"/><path class="cls-2" d="M263,390.82a13.19,13.19,0,0,1-8,4.74,14.36,14.36,0,0,1,3.79-8.81,13.21,13.21,0,0,1,8-4.74A14.31,14.31,0,0,1,263,390.82Z" transform="translate(-51.98 -48.75)"/><path class="cls-2" d="M264.73,402.69a12.85,12.85,0,0,1-9,2.33,13.89,13.89,0,0,1,5.89-7.43,12.83,12.83,0,0,1,8.95-2.33A13.89,13.89,0,0,1,264.73,402.69Z" transform="translate(-51.98 -48.75)"/><path class="cls-2" d="M279.35,405.34c1.23-14.49,8.88-26.13,18.64-30.15-.16-.66-.33-1.3-.5-1.88-10.27,4.29-18.32,16.59-19.62,31.86a49.66,49.66,0,0,0,0,8.8l1.54.32A46.8,46.8,0,0,1,279.35,405.34Z" transform="translate(-51.98 -48.75)"/><path class="cls-2" d="M298.22,368.75a10.53,10.53,0,0,0-1,6.32,8.73,8.73,0,0,0,4.06-4.43,10.4,10.4,0,0,0,1-6.32A8.73,8.73,0,0,0,298.22,368.75Z" transform="translate(-51.98 -48.75)"/><path class="cls-2" d="M301.42,372.35a7.5,7.5,0,0,0-5.3,2.11,7.48,7.48,0,0,0,5.36,1.9,7.63,7.63,0,0,0,5.3-2.11A7.5,7.5,0,0,0,301.42,372.35Z" transform="translate(-51.98 -48.75)"/><path class="cls-2" d="M296.94,376.73a7.28,7.28,0,0,0-5.53,1,7.82,7.82,0,0,0,5,2.91,7.27,7.27,0,0,0,5.53-1.05A7.82,7.82,0,0,0,296.94,376.73Z" transform="translate(-51.98 -48.75)"/><path class="cls-2" d="M291.68,381a7.48,7.48,0,0,0-5.32,2A8.1,8.1,0,0,0,297,383,7.55,7.55,0,0,0,291.68,381Z" transform="translate(-51.98 -48.75)"/><path class="cls-2" d="M288.15,386.13a7.7,7.7,0,0,0-5.11,2.66,7.38,7.38,0,0,0,5.49,1.32,7.76,7.76,0,0,0,5.11-2.67A7.34,7.34,0,0,0,288.15,386.13Z" transform="translate(-51.98 -48.75)"/><path class="cls-2" d="M285,391.78a8,8,0,0,0-4.91,3.1,7.24,7.24,0,0,0,5.57.83,8,8,0,0,0,4.91-3.1A7.24,7.24,0,0,0,285,391.78Z" transform="translate(-51.98 -48.75)"/><path class="cls-2" d="M282.9,397.75a8.45,8.45,0,0,0-4.37,4,7.18,7.18,0,0,0,5.6-.28,8.44,8.44,0,0,0,4.38-4A7.2,7.2,0,0,0,282.9,397.75Z" transform="translate(-51.98 -48.75)"/><path class="cls-2" d="M281.93,403.61a8.69,8.69,0,0,0-4.17,4.3,7.26,7.26,0,0,0,5.58-.63,8.69,8.69,0,0,0,4.17-4.3A7.22,7.22,0,0,0,281.93,403.61Z" transform="translate(-51.98 -48.75)"/><path class="cls-2" d="M291.19,372.17a10.25,10.25,0,0,0,1.66,6.14,11.54,11.54,0,0,0,.19-12.2A10.18,10.18,0,0,0,291.19,372.17Z" transform="translate(-51.98 -48.75)"/><path class="cls-2" d="M285.54,377.45a10.21,10.21,0,0,0,1.66,6.13,11.52,11.52,0,0,0,.19-12.19A10.15,10.15,0,0,0,285.54,377.45Z" transform="translate(-51.98 -48.75)"/><path class="cls-2" d="M281.49,382.94a9.83,9.83,0,0,0,2.38,5.81,10.37,10.37,0,0,0,1.09-6.29,9.86,9.86,0,0,0-2.38-5.82A10.46,10.46,0,0,0,281.49,382.94Z" transform="translate(-51.98 -48.75)"/><path class="cls-2" d="M277,390.67a8.74,8.74,0,0,0,4,4.49,10.53,10.53,0,0,0-.9-6.34,8.74,8.74,0,0,0-4-4.49A10.53,10.53,0,0,0,277,390.67Z" transform="translate(-51.98 -48.75)"/><path class="cls-2" d="M274.73,398.71a8,8,0,0,0,4.89,3.15,10,10,0,0,0-2.31-5.86,8,8,0,0,0-4.89-3.15A10.09,10.09,0,0,0,274.73,398.71Z" transform="translate(-51.98 -48.75)"/><path class="cls-2" d="M273.67,406.59a7.36,7.36,0,0,0,5.45,1.55,9.22,9.22,0,0,0-3.59-4.94,7.34,7.34,0,0,0-5.44-1.55A9.15,9.15,0,0,0,273.67,406.59Z" transform="translate(-51.98 -48.75)"/><path class="cls-4" d="M565.62,271.66a13.05,13.05,0,0,0,5.19-1.52,12.86,12.86,0,0,0-5.19-1.18,15.15,15.15,0,0,0-1.27-5.48,15.25,15.25,0,0,0-1.27,5.55,13,13,0,0,0-5.19,1.53,13.2,13.2,0,0,0,5.19,1.18,15.36,15.36,0,0,0,1.27,5.48A15.36,15.36,0,0,0,565.62,271.66Z" transform="translate(-51.98 -48.75)"/><path class="cls-4" d="M532.22,172.63a15,15,0,0,0,5.92-1.73,14.7,14.7,0,0,0-5.93-1.35,17.5,17.5,0,0,0-1.45-6.27,17.5,17.5,0,0,0-1.45,6.35,15,15,0,0,0-5.92,1.74,14.7,14.7,0,0,0,5.93,1.35,17.4,17.4,0,0,0,1.44,6.26A17.38,17.38,0,0,0,532.22,172.63Z" transform="translate(-51.98 -48.75)"/><path class="cls-4" d="M481.25,130.19a17.66,17.66,0,0,0,7.11-2.13,17.24,17.24,0,0,0-7.11-1.66,22.06,22.06,0,0,0-1.74-7.7,22.15,22.15,0,0,0-1.75,7.8,17.76,17.76,0,0,0-7.1,2.14,17.36,17.36,0,0,0,7.11,1.66,21.89,21.89,0,0,0,1.74,7.7A22,22,0,0,0,481.25,130.19Z" transform="translate(-51.98 -48.75)"/><path class="cls-4" d="M443.55,178.21a14.29,14.29,0,0,0,5.67-1.66,14.12,14.12,0,0,0-5.67-1.29,16.46,16.46,0,0,0-1.39-6,16.88,16.88,0,0,0-1.39,6.07A14.29,14.29,0,0,0,435.1,177a14.13,14.13,0,0,0,5.68,1.29,16.68,16.68,0,0,0,1.38,6A16.47,16.47,0,0,0,443.55,178.21Z" transform="translate(-51.98 -48.75)"/><path class="cls-4" d="M452.68,299a19.79,19.79,0,0,0,7.86-2.31,19.83,19.83,0,0,0-7.87-1.79,23.07,23.07,0,0,0-1.92-8.31,23.45,23.45,0,0,0-1.93,8.43,19.9,19.9,0,0,0-7.86,2.31,19.7,19.7,0,0,0,7.87,1.79,23.07,23.07,0,0,0,1.92,8.31A23.24,23.24,0,0,0,452.68,299Z" transform="translate(-51.98 -48.75)"/><path class="cls-4" d="M358,266.45a17.79,17.79,0,0,0,7.1-2.08,17.72,17.72,0,0,0-7.11-1.62,20.88,20.88,0,0,0-1.74-7.51,21,21,0,0,0-1.74,7.61,18,18,0,0,0-7.11,2.09,17.76,17.76,0,0,0,7.11,1.62,21.14,21.14,0,0,0,1.74,7.51A21,21,0,0,0,358,266.45Z" transform="translate(-51.98 -48.75)"/><path class="cls-4" d="M495.81,209.39a10.59,10.59,0,0,0,4.18-1.23,10.27,10.27,0,0,0-4.18-.95,12.34,12.34,0,0,0-1-4.42,12.24,12.24,0,0,0-1,4.48,10.59,10.59,0,0,0-4.19,1.23,10.62,10.62,0,0,0,4.19.95,12.36,12.36,0,0,0,1,4.42A12.23,12.23,0,0,0,495.81,209.39Z" transform="translate(-51.98 -48.75)"/><path class="cls-4" d="M506.77,329.65a15,15,0,0,0,5.9-1.73,14.64,14.64,0,0,0-5.91-1.35,17.23,17.23,0,0,0-1.44-6.23,17.22,17.22,0,0,0-1.45,6.32,15,15,0,0,0-5.9,1.73,14.65,14.65,0,0,0,5.91,1.34,17.34,17.34,0,0,0,1.44,6.24A17.32,17.32,0,0,0,506.77,329.65Z" transform="translate(-51.98 -48.75)"/><path class="cls-4" d="M426.23,238.05a20.69,20.69,0,0,0,8.21-2.41,20.39,20.39,0,0,0-8.22-1.87,24.24,24.24,0,0,0-2-8.69,24.41,24.41,0,0,0-2,8.81A20.69,20.69,0,0,0,414,236.3a20.56,20.56,0,0,0,8.22,1.87,24.18,24.18,0,0,0,2,8.68A24.3,24.3,0,0,0,426.23,238.05Z" transform="translate(-51.98 -48.75)"/><path class="cls-4" d="M532.9,247.7a13.05,13.05,0,0,0,5.18-1.52,12.78,12.78,0,0,0-5.19-1.18,15.15,15.15,0,0,0-1.27-5.48,15.51,15.51,0,0,0-1.27,5.56,13.05,13.05,0,0,0-5.18,1.52,13,13,0,0,0,5.19,1.18,15.37,15.37,0,0,0,1.26,5.48A15.34,15.34,0,0,0,532.9,247.7Z" transform="translate(-51.98 -48.75)"/><path class="cls-4" d="M263.66,256.08a20.58,20.58,0,0,0,8.22-2.41,20.61,20.61,0,0,0-8.23-1.87,24,24,0,0,0-2-8.68,24.36,24.36,0,0,0-2,8.8,20.74,20.74,0,0,0-8.22,2.42,20.61,20.61,0,0,0,8.23,1.87,24.19,24.19,0,0,0,2,8.68A24.15,24.15,0,0,0,263.66,256.08Z" transform="translate(-51.98 -48.75)"/><path class="cls-1" d="M303,125.28a13.07,13.07,0,0,0,5.15-1.51A12.83,12.83,0,0,0,303,122.6a15.19,15.19,0,0,0-1.26-5.44,15.09,15.09,0,0,0-1.26,5.52,12.74,12.74,0,0,0-5.15,1.51,12.83,12.83,0,0,0,5.15,1.17,15.19,15.19,0,0,0,1.26,5.44A15.14,15.14,0,0,0,303,125.28Z" transform="translate(-51.98 -48.75)"/><path class="cls-1" d="M468.11,75.53a15.12,15.12,0,0,0,5.94-1.74,14.79,14.79,0,0,0-5.94-1.35,17.4,17.4,0,0,0-1.45-6.27,17.64,17.64,0,0,0-1.46,6.35,15.12,15.12,0,0,0-5.93,1.74,14.74,14.74,0,0,0,5.94,1.36,17.5,17.5,0,0,0,1.45,6.27A17.5,17.5,0,0,0,468.11,75.53Z" transform="translate(-51.98 -48.75)"/><path class="cls-1" d="M175.8,151.46a23.48,23.48,0,0,0,9.37-2.74,23.31,23.31,0,0,0-9.38-2.14,27.51,27.51,0,0,0-2.29-9.9,27.58,27.58,0,0,0-2.3,10,23.64,23.64,0,0,0-9.37,2.75,23.48,23.48,0,0,0,9.38,2.13,27.56,27.56,0,0,0,2.29,9.91A27.59,27.59,0,0,0,175.8,151.46Z" transform="translate(-51.98 -48.75)"/><path class="cls-1" d="M247,183.62a25.45,25.45,0,0,0,10.07-3A25.15,25.15,0,0,0,247,178.37a29.62,29.62,0,0,0-2.47-10.64,29.92,29.92,0,0,0-2.47,10.79A25.46,25.46,0,0,0,232,181.47a25.14,25.14,0,0,0,10.07,2.3,29.52,29.52,0,0,0,2.46,10.63A29.6,29.6,0,0,0,247,183.62Z" transform="translate(-51.98 -48.75)"/><path class="cls-1" d="M246.9,96.69a13.86,13.86,0,0,0,5.49-1.61,13.65,13.65,0,0,0-5.5-1.25,15.79,15.79,0,0,0-1.34-5.8,16.39,16.39,0,0,0-1.35,5.88,13.92,13.92,0,0,0-5.49,1.61,13.73,13.73,0,0,0,5.5,1.25,16.31,16.31,0,0,0,1.34,5.81A16.29,16.29,0,0,0,246.9,96.69Z" transform="translate(-51.98 -48.75)"/><path class="cls-1" d="M394.77,103.73a17.52,17.52,0,0,0,6.92-2,17.28,17.28,0,0,0-6.93-1.58,20.4,20.4,0,0,0-1.69-7.31,20.45,20.45,0,0,0-1.7,7.42,17.47,17.47,0,0,0-6.92,2,17.2,17.2,0,0,0,6.92,1.57,20.39,20.39,0,0,0,1.7,7.32A20.45,20.45,0,0,0,394.77,103.73Z" transform="translate(-51.98 -48.75)"/><path class="cls-1" d="M349.71,159.33a15,15,0,0,0,6-1.75,14.84,14.84,0,0,0-6-1.35,17.77,17.77,0,0,0-1.46-6.29,17.56,17.56,0,0,0-1.46,6.38,15.1,15.1,0,0,0-6,1.74,14.89,14.89,0,0,0,6,1.36,17.34,17.34,0,0,0,1.46,6.29A17.56,17.56,0,0,0,349.71,159.33Z" transform="translate(-51.98 -48.75)"/><path class="cls-1" d="M357,71.9a21.82,21.82,0,0,0,8.71-2.56,21.92,21.92,0,0,0-8.72-2,25.94,25.94,0,0,0-2.13-9.22,25.53,25.53,0,0,0-2.14,9.35A21.87,21.87,0,0,0,344,70.05a21.92,21.92,0,0,0,8.72,2,25.71,25.71,0,0,0,2.14,9.22A26,26,0,0,0,357,71.9Z" transform="translate(-51.98 -48.75)"/><path class="cls-1" d="M601.08,103.05a25.39,25.39,0,0,0,10.07-3,25.24,25.24,0,0,0-10.08-2.29,29.58,29.58,0,0,0-2.46-10.64A29.66,29.66,0,0,0,596.14,98a25.29,25.29,0,0,0-10.07,3,25.16,25.16,0,0,0,10.08,2.29,29.58,29.58,0,0,0,2.46,10.64A29.87,29.87,0,0,0,601.08,103.05Z" transform="translate(-51.98 -48.75)"/><path class="cls-1" d="M536.27,63.89a15.37,15.37,0,0,0,6.16-1.8,15.38,15.38,0,0,0-6.16-1.41,18.25,18.25,0,0,0-1.51-6.51,18.26,18.26,0,0,0-1.51,6.61,15.37,15.37,0,0,0-6.16,1.8A15.42,15.42,0,0,0,533.25,64a18.25,18.25,0,0,0,1.51,6.51A18.26,18.26,0,0,0,536.27,63.89Z" transform="translate(-51.98 -48.75)"/><path class="cls-1" d="M647.59,139.4a13.73,13.73,0,0,0,5.42-1.59,13.5,13.5,0,0,0-5.42-1.24,15.9,15.9,0,0,0-1.33-5.72,16,16,0,0,0-1.33,5.8,13.67,13.67,0,0,0-5.41,1.59,13.46,13.46,0,0,0,5.42,1.24,15.91,15.91,0,0,0,1.32,5.72A15.9,15.9,0,0,0,647.59,139.4Z" transform="translate(-51.98 -48.75)"/><path class="cls-1" d="M159.09,191.41a13.07,13.07,0,0,0,5.14-1.51,12.79,12.79,0,0,0-5.15-1.17,15.19,15.19,0,0,0-1.26-5.44,15.09,15.09,0,0,0-1.26,5.52,12.74,12.74,0,0,0-5.15,1.51,12.87,12.87,0,0,0,5.15,1.17,15.19,15.19,0,0,0,1.26,5.44A15.33,15.33,0,0,0,159.09,191.41Z" transform="translate(-51.98 -48.75)"/><path class="cls-1" d="M94.08,160.24a17.39,17.39,0,0,0,6.86-2,17.15,17.15,0,0,0-6.86-1.56,20.21,20.21,0,0,0-1.68-7.24,20.27,20.27,0,0,0-1.68,7.34,17.34,17.34,0,0,0-6.85,2,17.15,17.15,0,0,0,6.86,1.56,20,20,0,0,0,1.67,7.24A20.07,20.07,0,0,0,94.08,160.24Z" transform="translate(-51.98 -48.75)"/><path class="cls-1" d="M113.93,225.16A25.34,25.34,0,0,0,124,222.21a25.2,25.2,0,0,0-10.08-2.29,29.58,29.58,0,0,0-2.46-10.64A29.66,29.66,0,0,0,109,220.07a25.34,25.34,0,0,0-10.07,3A25.2,25.2,0,0,0,109,225.31,29.58,29.58,0,0,0,111.46,236,29.66,29.66,0,0,0,113.93,225.16Z" transform="translate(-51.98 -48.75)"/><path class="cls-1" d="M147.62,111.29a13.92,13.92,0,0,0,5.5-1.61,13.91,13.91,0,0,0-5.5-1.25,16.25,16.25,0,0,0-1.34-5.8,16,16,0,0,0-1.35,5.88,13.81,13.81,0,0,0-5.49,1.61,13.48,13.48,0,0,0,5.49,1.25,16.09,16.09,0,0,0,1.35,5.81A16.31,16.31,0,0,0,147.62,111.29Z" transform="translate(-51.98 -48.75)"/><path class="cls-1" d="M59.66,217.43a13.07,13.07,0,0,0,5.14-1.51,12.79,12.79,0,0,0-5.15-1.17,15.19,15.19,0,0,0-1.26-5.44,15.08,15.08,0,0,0-1.26,5.51A13.07,13.07,0,0,0,52,216.33a12.87,12.87,0,0,0,5.15,1.18A15.19,15.19,0,0,0,58.39,223,15.38,15.38,0,0,0,59.66,217.43Z" transform="translate(-51.98 -48.75)"/><path class="cls-1" d="M692.17,159.18a14.79,14.79,0,0,0,5.93-1.74,14.92,14.92,0,0,0-5.94-1.35,17.5,17.5,0,0,0-1.45-6.27,17.5,17.5,0,0,0-1.45,6.36,15,15,0,0,0-5.94,1.74,14.79,14.79,0,0,0,5.94,1.35,17.4,17.4,0,0,0,1.45,6.27A17.65,17.65,0,0,0,692.17,159.18Z" transform="translate(-51.98 -48.75)"/><path class="cls-1" d="M661,233.37a15.58,15.58,0,0,0,6.16-1.8,15.43,15.43,0,0,0-6.17-1.41,18,18,0,0,0-1.5-6.51,18,18,0,0,0-1.51,6.6,15.52,15.52,0,0,0-6.16,1.81,15.22,15.22,0,0,0,6.16,1.4,18.15,18.15,0,0,0,1.51,6.51A18.15,18.15,0,0,0,661,233.37Z" transform="translate(-51.98 -48.75)"/><path class="cls-1" d="M655,184.94a15,15,0,0,0,6-1.75,14.85,14.85,0,0,0-6-1.35,17.62,17.62,0,0,0-1.45-6.3,17.4,17.4,0,0,0-1.46,6.38,15.16,15.16,0,0,0-6,1.75,14.85,14.85,0,0,0,6,1.36,17.34,17.34,0,0,0,1.46,6.29A17.76,17.76,0,0,0,655,184.94Z" transform="translate(-51.98 -48.75)"/><path class="cls-1" d="M670.93,311.33A25.46,25.46,0,0,0,681,308.38a25.14,25.14,0,0,0-10.07-2.3,29.52,29.52,0,0,0-2.46-10.63A29.6,29.6,0,0,0,666,306.23a25.45,25.45,0,0,0-10.07,3A25.15,25.15,0,0,0,666,311.48a29.83,29.83,0,0,0,2.47,10.64A29.92,29.92,0,0,0,670.93,311.33Z" transform="translate(-51.98 -48.75)"/><path class="cls-1" d="M691,271a10.67,10.67,0,0,0,4.29-1.26,10.57,10.57,0,0,0-4.29-1,12.71,12.71,0,0,0-1.05-4.54,12.58,12.58,0,0,0-1.06,4.6,10.77,10.77,0,0,0-4.29,1.26,10.78,10.78,0,0,0,4.3,1,12.49,12.49,0,0,0,1,4.53A12.8,12.8,0,0,0,691,271Z" transform="translate(-51.98 -48.75)"/><path class="cls-1" d="M72.7,293.54a10.39,10.39,0,0,0,4.13-1.22,10.41,10.41,0,0,0-4.14-.94,12.13,12.13,0,0,0-1-4.37,12,12,0,0,0-1,4.43,10.39,10.39,0,0,0-4.14,1.22,10.41,10.41,0,0,0,4.14.94,12.13,12.13,0,0,0,1,4.37A12.21,12.21,0,0,0,72.7,293.54Z" transform="translate(-51.98 -48.75)"/><path class="cls-5" d="M567.48,105.79c-.07.73-.09,1.36-.18,2-.75,5.14-5.45,5.17-8.8,4.19a10.63,10.63,0,0,1-3.45-2.1c-1.64-1.3-1.68-3.3-1.89-5.08a87,87,0,0,0-4.11-18.33c-.73-2.09-1.11-4.28-2-6.31a1.74,1.74,0,0,0-1.4-1.05,14.55,14.55,0,0,1-6.94-3.47c-1-.94-2-1.84-3-2.78-4-3.75-3.35-9.95,1.81-13.06,4.68-2.83,9.32-1.12,12.71,1.75,2.57,2.16,4,5.1,5.5,8.14,3,6.26,5.09,12.85,7.57,19.29C565.34,94.41,567.1,100,567.48,105.79Z" transform="translate(-51.98 -48.75)"/><path class="cls-6" d="M542.23,71.28A8.75,8.75,0,0,1,544,65.62a2.85,2.85,0,0,1,1.11-1c.32-.13.62-.21.88.06a.57.57,0,0,1-.06.85c-2.63,2.94-2.12,6.29-1.27,9.69.11.44.46,1.08-.18,1.31a1,1,0,0,1-1.32-.88C542.75,74.08,542.47,72.47,542.23,71.28Z" transform="translate(-51.98 -48.75)"/><path class="cls-6" d="M537.4,72.32c-2.06-1.49-1.62-3.67-1.47-5.68a7.41,7.41,0,0,1,4.94-6.76c-1.33,1.78-2.93,3.39-3.3,5.71A26.56,26.56,0,0,0,537.4,72.32Z" transform="translate(-51.98 -48.75)"/><path class="cls-6" d="M538.87,70.32A10.3,10.3,0,0,1,540.72,64a4.17,4.17,0,0,1,.95-1c.29-.22.65-.71,1.05-.25s0,.7-.25,1c-2.23,2.53-2.44,5.51-2,8.64a5,5,0,0,1,.08.54c0,.41.12.94-.38,1.06s-.77-.44-.91-.83A8,8,0,0,1,538.87,70.32Z" transform="translate(-51.98 -48.75)"/><path class="cls-7" d="M573.54,83c0,3.46-3.74,8.24-7.46,9.15A3.79,3.79,0,0,1,563,91.2a92,92,0,0,1-12.69-10.43c-.79-.76-1.66-1.43-2.45-2.2a7.5,7.5,0,0,1-.43-9.4,2.21,2.21,0,0,1,3-.69c5,2.36,10.16,4.41,15.08,7,1.82,1,3.67,1.84,5.5,2.77S573.61,80.61,573.54,83Z" transform="translate(-51.98 -48.75)"/><path class="cls-7" d="M513,58.86c.75-6.07,5.22-10.51,11.36-10.09a1,1,0,0,1,.94.45c1.53,2.75,4.2,4.4,6.34,6.55a33.83,33.83,0,0,1,3.86,4.08c.39.57.58,1.06,0,1.67a7.83,7.83,0,0,0-2.33,5.8c0,1.06-.12,1.57-1.45,1.32a75.47,75.47,0,0,1-8.5-2.53c-2.75-.84-5.37-2.07-8.16-2.78-1.59-.41-1.7-1.87-2-3.15A6.39,6.39,0,0,1,513,58.86Z" transform="translate(-51.98 -48.75)"/><path class="cls-8" d="M570.89,84.53a6.21,6.21,0,0,0-2.29,2.62c-.16.24-.26.54-.57.48s-.39-.5-.32-.79a4.91,4.91,0,0,1,2.42-3.32,1.43,1.43,0,0,1,1.57.1A1.53,1.53,0,0,1,572,85.4a9.06,9.06,0,0,1-4.18,4.89c-.88.57-1.84,1.51-3,.72s-.75-2.08-.41-3.16a15.46,15.46,0,0,1,6-7.78c.38-.28,1-.86,1.41-.16s-.39.78-.72,1.06c-2.24,1.92-4.32,4-5.37,6.81,0,.13-.16.24-.17.37-.06.58-.46,1.29,0,1.7s1.11-.21,1.56-.5a13.5,13.5,0,0,0,3-2.57A2.3,2.3,0,0,0,570.89,84.53Z" transform="translate(-51.98 -48.75)"/><path class="cls-8" d="M546.43,74.76a4.34,4.34,0,0,1,.36-.92,12.73,12.73,0,0,1,3.91-4c.46-.3.94-.47,1.33.06s.06.9-.3,1.2a12,12,0,0,0-3.51,4.32A.93.93,0,0,1,547,76C546.53,75.82,546.43,75.35,546.43,74.76Z" transform="translate(-51.98 -48.75)"/><path class="cls-7" d="M535.49,59.85" transform="translate(-51.98 -48.75)"/><path class="cls-9" d="M580.15,110.32c3.48,6.81,6.49,13.79,7.28,21.49A58.28,58.28,0,0,1,585.56,153c-4.36,16.19-13,29.84-24.85,41.58a124.78,124.78,0,0,1-14.83,12.23,1.21,1.21,0,0,1-1.4.23,1,1,0,0,1-.51-1.28.56.56,0,0,0-.19-.71c-1.83-1.65-2.41-3.94-3.09-6.17a51.47,51.47,0,0,1-1.62-19.45c.28-3.47.28-7,.35-10.45a29.93,29.93,0,0,0,.27-3.68c-.06-.64.54-1.14,1-1.61a93.72,93.72,0,0,0,8.26-10.95,20.51,20.51,0,0,0,3.37-9.15c.31-2.81-.73-5.5-1.42-8.19a68.53,68.53,0,0,0-7-17.33,8.76,8.76,0,0,1-.37-.89,9,9,0,0,1,1.27-.5c5.57-1.36,11.09-2.89,16.72-4A136.82,136.82,0,0,1,580.15,110.32Z" transform="translate(-51.98 -48.75)"/><path class="cls-10" d="M580.15,110.32a136.82,136.82,0,0,0-18.69,2.37c-5.63,1.14-11.15,2.67-16.72,4a9,9,0,0,0-1.27.5,78.31,78.31,0,0,1-6.83-8.87c-.58-.89.29-1.09.8-1.36a58.15,58.15,0,0,1,11-4.11c5.12-1.45,10.36-1.7,15.61-1.89,3-.11,5.9-.78,8.89-.32a3.8,3.8,0,0,1,2.62,1.29A27.88,27.88,0,0,1,580.15,110.32Z" transform="translate(-51.98 -48.75)"/><path class="cls-5" d="M555.93,416.73c-.39-3.83,1.28-4.22,4.54-5.28,1.54-.5,3.32-.43,4,1.33,1.11,2.91,1.24,6.18,2.18,9.14a6.32,6.32,0,0,1-1.77,7.2c-2.65,2.38-5.28,1.58-7-1C556.88,424.38,556.7,419.46,555.93,416.73Z" transform="translate(-51.98 -48.75)"/><path class="cls-11" d="M539.77,316.47c6.37.5,10.8,3.8,13.83,9.17a3,3,0,0,1,.15,2.77c-.44,1,.1,2,.28,2.95.6,3.09,1.05,6.21,1.51,9.33.74,5.12,1.4,10.25,2.13,15.36q2,13.84,4,27.68c1,6.79,2.12,13.55,3.16,20.33.38,2.48.66,5,1.07,7.47.23,1.38-.09,2.14-1.6,2.42-2.46.45-4.87,1.24-7.38,1.47-1.39.13-2.11-.29-2.45-1.59-2.6-10-5.7-19.86-8.67-29.76-3.84-12.75-7.5-25.55-11.2-38.34-1.36-4.7-2.64-9.43-4-14.14a2,2,0,0,0-.28-.77c-2.4-2.76-.93-5.45.46-7.83a15.28,15.28,0,0,1,5.84-5.69A7.84,7.84,0,0,1,539.77,316.47Z" transform="translate(-51.98 -48.75)"/><path class="cls-9" d="M575.66,435.88c-5,.18-9.63.13-14.26-.06-3.1-.13-3.71-.7-4.07-3.79-.22-1.86-.4-3.57-.65-5.57-.5-3.14.77-2,2.28-1.49a6.85,6.85,0,0,0,3.29.71c1.87-.29,2.91-1.58,3.89-3,.55-.79.91-1.55,2-.32.65.74,2,.91,2.94,1.36a141.75,141.75,0,0,0,15.43,5.91,22.23,22.23,0,0,1,5.38,2.36c.67.43,1.5.88,1.31,1.89s-1.08,1.2-1.87,1.4a28.24,28.24,0,0,1-7.11.43C581.24,435.71,578.26,435.73,575.66,435.88Z" transform="translate(-51.98 -48.75)"/><path class="cls-9" d="M532,97.84a22,22,0,0,0-4-2.3,179.74,179.74,0,0,1-17.75-8.25,3.82,3.82,0,0,0-4.75.45c-6.87,5.26-13.79,10.46-20.7,15.68a4.11,4.11,0,0,0-1.24,1.39l1.91,1.36c2.34,1.19,4.54,2.37,6.8,3.38a2,2,0,0,1,1.37,1.77,21.28,21.28,0,0,0,1,4.54c.25.68.6.93,1.44.67a77,77,0,0,1,19.24-3.07,70.38,70.38,0,0,1,8.34.3c1.07.08,1.52-.29,1.45-1.39s.25-2-.07-2.87c-.79-2.08.28-3.23,1.61-4.53a53.83,53.83,0,0,0,5.16-5.72C532.18,98.83,532.68,98.3,532,97.84Z" transform="translate(-51.98 -48.75)"/><rect class="cls-9" x="431.68" y="55.93" width="0.79" height="12.54"/><path class="cls-12" d="M483,111.59a1.84,1.84,0,0,1,1.68-.23c2.14.56,2.9,2.47,1.56,4.14a2.63,2.63,0,0,0-.6,2c.29,3.43.16,6.86.15,10.29,0,1.67-.17,1.79-1.86,1.72a.57.57,0,0,0-.13,0c-3.15-.08-3.25-.09-3.11-3.28.13-3,.2-6,1.75-8.75a1,1,0,0,0,0-1C481,114,481,113.58,483,111.59Z" transform="translate(-51.98 -48.75)"/><path class="cls-5" d="M533.92,139.87c-.36-2.58-3.36-4.92-6-3.17-.84.57-.88,0-.91-.62a22.85,22.85,0,0,0-4.15-12.56s-4-8.17-19.3-5.43c0,0-8.1,2.43-10,16.56-.17.4-.45.57-1.17.4a4.6,4.6,0,0,0-3.12.72c-3.29,1.72-3.67,6.4-2.29,8.86a5.52,5.52,0,0,0,6.93,2.57c.65-.21.93.17,1.13.66a19.12,19.12,0,0,0,7.67,9.58c.47.29,1.11.7.87,1.41-.43,1.31-.1,2.63-.21,3.6a26.71,26.71,0,0,0,.24,5.26c.48,2.76.93,5.49,2.74,7.83,2.79,3.62,7.48,4,10.18-.12a14.11,14.11,0,0,0,2.23-7.71c0-2.66.09-5.33,0-8-.09-2.14-.17-4.17,2.17-5.26.15-.07.23-.28.34-.42a24.41,24.41,0,0,0,3.34-5.6c.27-.57.48-.9,1.15-.32a2.56,2.56,0,0,0,2.23.33C532.69,147.62,534.45,143.6,533.92,139.87Z" transform="translate(-51.98 -48.75)"/><path class="cls-13" d="M490.6,125.65a3.87,3.87,0,0,1-3-3.65,4.52,4.52,0,0,1,2.06-4.17,8.27,8.27,0,0,1,4.76-1.75c-.1-.62-.65-.81-1-1a12.18,12.18,0,0,1-4.57-6.38c-.7-2,.09-4.08,1.35-5.82,2.37-3.27,5.62-5.25,9.63-5.06,3.76.17,6.74,2.26,8.92,5.38.65.92,1.31,1.83,2,2.71.28.35.75.69,1,0,1.21-3.42,4.72-2.69,6.67-.77a15.64,15.64,0,0,1,3.55,5.37c.23.55.45.81,1.17.43a4,4,0,0,1,5.43,1.69,16.42,16.42,0,0,1,1.88,6.25c.72,5.77-.45,11.32-2.13,16.82a11.12,11.12,0,0,1-1.58,2.77.8.8,0,0,1-1.14.33c-.44-.26-.38-.59-.41-1.07-.16-3.79.53-7.59-.69-11.37-1-3-5-5.94-8-5.81a15.72,15.72,0,0,0-6.82,1.34c-2.11,1.08-4.48,1-6.79.9-4.49-.25-5.45,1.77-6.28,5.37a40.44,40.44,0,0,0-.8,9.87,2.53,2.53,0,0,1,0,.55c-.08.43-.11,1-.68,1a.91.91,0,0,1-.94-1c.09-2.36-1.44-3.91-2.81-5.47C489.23,130.64,488.88,128.31,490.6,125.65Z" transform="translate(-51.98 -48.75)"/><path class="cls-14" d="M510.19,119.57c0,.42.05.83-.33.92s-.49-.29-.58-.59c-.54-1.64-1.07-3.28-1.62-4.92A12.65,12.65,0,0,0,499.9,107a6.32,6.32,0,0,0-1.33-.24c-.35-.07-.84-.1-.74-.6s.55-.5.9-.44a10.29,10.29,0,0,1,3,.92c4.81,2.37,7,6.61,8.19,11.52C510,118.68,510.11,119.18,510.19,119.57Z" transform="translate(-51.98 -48.75)"/><path class="cls-14" d="M496.94,109.58a5.1,5.1,0,0,1,2,.73,19.35,19.35,0,0,1,7.18,7.7c.33.7,1,1.84.2,2.16s-.84-1-1.19-1.67c-2-3.61-4.6-6.54-8.62-8-.31-.11-.92,0-.85-.44S496.32,109.55,496.94,109.58Z" transform="translate(-51.98 -48.75)"/><path class="cls-14" d="M528.92,122.32c-.16,1.13-.34,2.44-.55,3.74-.08.49-.23,1.2-.8,1.08-.74-.15-.4-1-.29-1.38a13.58,13.58,0,0,0,.21-6.49c-.36-1.65-.74-3.3-2.13-4.45-.24-.2-.43-.39-.21-.67s.42,0,.61.06a3.74,3.74,0,0,1,1.6,1.62C528.52,117.78,528.63,120,528.92,122.32Z" transform="translate(-51.98 -48.75)"/><path class="cls-14" d="M525.13,121.59c0,.25,0,.39,0,.53,0,.5-.05,1.16-.64,1.2s-.5-.65-.62-1.06c-.43-1.39-.81-2.79-1.23-4.19a6.32,6.32,0,0,0-1.31-2.53c-.2-.22-.54-.42-.19-.79a.72.72,0,0,1,.88-.15,2.91,2.91,0,0,1,1.33,1.15A12.37,12.37,0,0,1,525.13,121.59Z" transform="translate(-51.98 -48.75)"/><path class="cls-14" d="M496.73,122.69a1.79,1.79,0,0,1-1.81-.24c-1.54-.89-3.08-1.29-4.72-.26-.16.1-.44.27-.62,0s0-.52.18-.7a3.72,3.72,0,0,1,3.69-.87A6.19,6.19,0,0,1,496.73,122.69Z" transform="translate(-51.98 -48.75)"/><path class="cls-14" d="M499.6,122.46c-2-1.27-3.34-3.61-6.44-2.89a2.07,2.07,0,0,1,2.61-.9A5.55,5.55,0,0,1,499.6,122.46Z" transform="translate(-51.98 -48.75)"/><path class="cls-14" d="M494.66,130.1a7.29,7.29,0,0,0-3.12-.39c-.23,0-.5,0-.56-.28a.58.58,0,0,1,.21-.45C491.91,128.36,493.91,128.86,494.66,130.1Z" transform="translate(-51.98 -48.75)"/><path class="cls-14" d="M494.61,132.25a1.54,1.54,0,0,1-.41.19A2.92,2.92,0,0,1,492,132c-.1-.09,0-.36.24-.4A2.41,2.41,0,0,1,494.61,132.25Z" transform="translate(-51.98 -48.75)"/><path class="cls-6" d="M487.74,141c0-2.5,2.48-4.43,4.34-3.6a5.06,5.06,0,0,1,2.06,3.64c-.12.65-.57.69-1,.45-.88-.44-1.71-.48-1.92.62s.53,1.46,1.53,1.39c.33,0,.73,0,.81.35s-.3.61-.63.77a1.88,1.88,0,0,1-2.54-.93,2.31,2.31,0,0,1,1.05-3.43c.62-.31,1-.53.6-1.29a1,1,0,0,0-1.63-.33,2.81,2.81,0,0,0-.88,1,6.3,6.3,0,0,0-.46,1.28c-.12.41,0,1.06-.64,1S487.72,141.32,487.74,141Z" transform="translate(-51.98 -48.75)"/><path class="cls-6" d="M528.47,139.2c1.1-.77,2.21-1.12,3.36-.09a1.69,1.69,0,0,1,.63,1.31c0,.32,0,.68-.41.78s-.38-.32-.5-.58c-.35-.76-.89-1.14-1.75-.73-.3.14-.59.37-.6.69,0,.49.46.31.73.39a2.08,2.08,0,0,1,1.62,2.48,3,3,0,0,1-2.67,2.19.78.78,0,0,1-.75-.49c-.12-.41.26-.52.54-.66a4.44,4.44,0,0,1,.49-.24c.57-.24,1.09-.52,1.09-1.25,0-.37-.06-.77-.49-.89a1.26,1.26,0,0,0-1.54.56.6.6,0,0,1-.85.18c-.28-.15-.24-.47-.23-.73a8.37,8.37,0,0,1,.76-2.33l0-.1a.6.6,0,0,0,.53-.53Z" transform="translate(-51.98 -48.75)"/><path class="cls-6" d="M511.19,141.79l-1.26,0a30.7,30.7,0,0,1,.22-7.48c0-.35.16-.8.57-.84.58-.05.58.51.62.87A26.41,26.41,0,0,1,511.19,141.79Z" transform="translate(-51.98 -48.75)"/><path class="cls-9" d="M506.81,130.39c0,.6-.52.5-.77.35-2.28-1.3-4.18-.39-6,.93-.38.27-.85.54-1.19.06-.23-.32,0-.68.28-1a5.79,5.79,0,0,1,6.87-1.23C506.31,129.74,506.71,129.9,506.81,130.39Z" transform="translate(-51.98 -48.75)"/><path class="cls-9" d="M519,137a2.07,2.07,0,0,1-.77,2.21.63.63,0,0,1-.87-.08,2.77,2.77,0,0,1-.52-2.57,3.62,3.62,0,0,1,.21-.8,1.14,1.14,0,0,1,1.25-.84c.69.09.68.63.7,1.14C519,136.31,519,136.58,519,137Z" transform="translate(-51.98 -48.75)"/><path class="cls-9" d="M503.7,138c-.16.82,0,2-1.16,2s-.94-1.14-1.14-1.88a2.37,2.37,0,0,1,.09-.94c.11-.6.27-1.24,1-1.22s1,.62,1.08,1.32C503.62,137.58,503.66,137.8,503.7,138Z" transform="translate(-51.98 -48.75)"/><path class="cls-9" d="M517.93,129.38a3.88,3.88,0,0,0-1.46.26c-.24.11-.67.27-.81-.16s.25-.55.51-.72c1.51-1,5-.11,5.88,1.46.12.21.2.37,0,.6-.32.4-.62,0-.81-.09C520.22,130.09,519.25,129.32,517.93,129.38Z" transform="translate(-51.98 -48.75)"/><path class="cls-4" d="M527.93,137.13c-.45-.42-.92.19-1.27.54-1,1-2,1.92-2.9,2.92a2.47,2.47,0,0,1-2,.87c-3.7,0-7.41,0-11.11,0l-1.26,0c-1.82.07-3.63.41-5.47.33a29.14,29.14,0,0,0-4.38.11,1.28,1.28,0,0,1-1.35-.52c-.95-1.11-2-2.12-3.06-3.16-.32-.31-.76-.48-1.09-.12s0,.67.28.93c.51.53,1.06,1,1.54,1.57.78.89,1.65,1.79,1.3,3.13-.47,1.86-.15,3.74-.25,5.6A7.62,7.62,0,0,0,501,156.5a17.36,17.36,0,0,0,10.85,2.34c6.56-.69,10.38-4.74,13.26-10.12a1.75,1.75,0,0,0,.09-1.07,10.17,10.17,0,0,0-.69-3.32c-1-1.72-.42-2.82,1-3.81C525.47,140.52,528.63,137.79,527.93,137.13Z" transform="translate(-51.98 -48.75)"/><path class="cls-5" d="M480.1,109.41c-.64,3.6-.87,7.29-2,10.77a5.6,5.6,0,0,1-4.33,3.78,5.27,5.27,0,0,0-3.54,2.91,18.79,18.79,0,0,0-2.85,8c-.07.93.61,1.61.7,2.55a5.11,5.11,0,0,1-2.14,5c-2.74,2-7.46,1.91-10.33,0a7.37,7.37,0,0,1-2.93-7.65,42.89,42.89,0,0,1,5.57-12.45c1-1.57,1.78-3.25,2.68-4.87a2.39,2.39,0,0,0,.15-1.34,30.68,30.68,0,0,1,2.5-13.67c1.72-3.95,4.52-5.81,9-4.26,4.32,1.48,6.56,4.58,7.22,9A11.79,11.79,0,0,1,480.1,109.41Z" transform="translate(-51.98 -48.75)"/><path class="cls-6" d="M473.65,116c-.62-.21-1.18-.36-1.7-.59-.35-.15-.63-.43-.43-.87s.48-.33.83-.29c2.78.31,4.19-.5,5.39-3.06.25-.55.49-1.29,1.2-1.07s.5,1,.36,1.65a3.69,3.69,0,0,1-1.37,2.3c-1,.7-1.91,1.35-2.07,2.67-.05.41-.45.52-.84.59a2.73,2.73,0,0,0-2.3,2.07c-.11.38-.15,1-.84.84s-.52-.78-.47-1.25C471.56,117.59,472.65,116.85,473.65,116Z" transform="translate(-51.98 -48.75)"/><path class="cls-6" d="M475.61,103a6.27,6.27,0,0,1-6.59,6.26,3,3,0,0,1-1.93-.94A.93.93,0,0,1,467,107c.4-.45.85-.23,1.18.13,1,1,2.06.84,3.15.35a5.07,5.07,0,0,0,2.88-6c0-.13-.12-.25-.15-.38-.08-.39-.35-.9.11-1.1s.75.36,1,.74A3.78,3.78,0,0,1,475.61,103Z" transform="translate(-51.98 -48.75)"/><path class="cls-6" d="M471.16,112.54a1.87,1.87,0,0,1-.67,0c-.44-.2-1.29,0-1.21-.75s.74-.32,1.13-.35a6.65,6.65,0,0,0,6.18-4.77c.12-.34.23-.69.36-1s.27-.52.58-.49a.63.63,0,0,1,.54.69,6.74,6.74,0,0,1-.07,1.49A6.88,6.88,0,0,1,471.16,112.54Z" transform="translate(-51.98 -48.75)"/><path class="cls-6" d="M470.92,102.3a4.91,4.91,0,0,1-1,2.57c-.19.24-.47.54-.8.32s-.22-.61-.06-.87a4,4,0,0,0,.78-2.7c0-.38,0-.82.46-.86s.48.47.6.79A3.31,3.31,0,0,1,470.92,102.3Z" transform="translate(-51.98 -48.75)"/><path class="cls-9" d="M478.83,150.27c-1.55,1.79-3.48,3.24-4.74,5.31a13.37,13.37,0,0,0-2,9.16,8,8,0,0,0,4.54,6.14,17.81,17.81,0,0,0,7.85,1.69c3.93.13,3.38-.77,4.64,3.61a27.33,27.33,0,0,1-3,22.83c-.65,1.05-1.62,1.91-2.25,2.93-1.65,2.72-4,1.68-6.18,1.35-7.65-1.15-15-3.21-21.75-7.15-14.69-8.62-21.76-21.5-21.29-38.52a54.9,54.9,0,0,1,2.59-13.86,20.33,20.33,0,0,1,1-3.78,38,38,0,0,1,12.93.49,113,113,0,0,1,20.33,6.67C474,148.17,476.41,149.23,478.83,150.27Z" transform="translate(-51.98 -48.75)"/><path class="cls-10" d="M478.83,150.27c-2.42-1-4.83-2.1-7.26-3.13a113,113,0,0,0-20.33-6.67,38,38,0,0,0-12.93-.49,21.39,21.39,0,0,1,2.8-8.07c.85-1.31,2.61-1.13,4-1.21a48.85,48.85,0,0,1,18.17,2.74,86.21,86.21,0,0,1,15.41,7.38A21,21,0,0,1,483,144.4a1.3,1.3,0,0,1-.16,2.2C481.42,147.72,480.39,149.28,478.83,150.27Z" transform="translate(-51.98 -48.75)"/><path class="cls-5" d="M492.15,411.35a5.57,5.57,0,0,1,4.18,2.57,8.67,8.67,0,0,1,1.06,6.39c-.32,1.73-.47,3.5-.85,5.22a5,5,0,0,1-4,4.13,3.67,3.67,0,0,1-1.84-.19,6.66,6.66,0,0,1-4.91-6.28c0-2.87.06-5.75,1.42-8.37A5.75,5.75,0,0,1,492.15,411.35Z" transform="translate(-51.98 -48.75)"/><path class="cls-11" d="M491.08,417.29c-.82,0-1.65,0-2.47,0-2.33-.08-3-.78-3.12-3.18-.16-4.76-.29-9.53-.42-14.3-.36-13.75-.89-27.49-1.18-41.25-.17-7.56-.49-15.12-.5-22.69a4.66,4.66,0,0,0-.54-2.33c-.77-1.46-.32-3.06.16-4.54,2.06-6.3,9.77-11.25,16.38-10.57a9.5,9.5,0,0,1,8.36,8.63c.46,4.86-.46,9.6-.93,14.38-.77,7.89-1.76,15.75-2.69,23.63q-2.29,19.44-4.64,38.89-.62,5.19-1.16,10.38a2.9,2.9,0,0,1-1.19,1.86C495.33,418,493.17,417.33,491.08,417.29Z" transform="translate(-51.98 -48.75)"/><path class="cls-9" d="M486,436.87c-7.15,0-14.25.85-21.37,1.33a13.22,13.22,0,0,1-1.78,0c-.71-.05-1.41-.22-1.65-1a1.7,1.7,0,0,1,.66-1.84,11.31,11.31,0,0,1,2-1.51c6.89-3.85,13.77-7.72,20.93-11.07a2.93,2.93,0,0,1,3.44.32,5.48,5.48,0,0,0,1.33.71c2.05.79,4,.94,5.67-.88.49-.53,1.14-1.09,1.92-.66s.62,1.21.56,1.86c-.31,3.73-.91,7.43-1.53,11.12-.17,1-.92,1.6-3,1.73-1.18.08-2.38-.07-3.57-.09S487.17,436.87,486,436.87Z" transform="translate(-51.98 -48.75)"/><path class="cls-2" d="M530.5,167.81c-.27,2.44-1.36,4.63-2.14,6.92-2,5.88-4.83,11.42-7.14,17.17-1.55,3.85-3.33,7.6-4.77,11.48-.35.93-.63,1-1.43.37a22.41,22.41,0,0,1-4.54-5.28c-5.86-8.3-10.44-17.35-15.21-26.28-.23-.43-.37-.92-.56-1.38,1.84-.7,3-2.27,4.56-3.4,1.09-.82,2-1.83,3.05-2.74.87-.76,1.26-.61,1.74.49a8.14,8.14,0,0,0,2.36,2.63c1.78,1.62,3.67,3.12,5.48,4.71.49.43.79.38,1.08-.1,1.89-3.17,4.42-5.91,5.95-9.31.53-1.17,1.29-.67,2-.27,2.08,1.14,4.13,2.33,6.22,3.44C528.25,166.84,529.39,167.3,530.5,167.81Z" transform="translate(-51.98 -48.75)"/><path class="cls-9" d="M512.85,172.3c1.37-.41,2.06.55,2.91,1.74a4.36,4.36,0,0,1,.42,5.13,6.17,6.17,0,0,0-.16,5.54c1.4,3.76,3.16,7.39,4.23,11.27a3.46,3.46,0,0,1-.43,3,56.56,56.56,0,0,0-3.45,6.36c-.3.67-.68,1.41-1.53,1.37s-1-.81-1.31-1.43a15.07,15.07,0,0,0-2.14-3.48,8.59,8.59,0,0,1-2-7.47c.67-3.49.6-7.11,1.7-10.52a2.47,2.47,0,0,0-.63-2.88,3.65,3.65,0,0,1-.49-.66c-2.13-3.11-2.07-4.45.33-7.38C510.73,172.3,510.73,172.3,512.85,172.3Z" transform="translate(-51.98 -48.75)"/><path class="cls-15" d="M540.08,164.56c.74-1.15,1.23-.29,1.59.28a18.63,18.63,0,0,1,2.54,7c1.19,6.86,1.75,13.81,2.8,20.69,1.64,10.71,1.83,21.54,2.77,32.31s2.37,21.67,4.2,32.42c2.43,14.26,4.85,28.52,7.36,42.77,1.12,6.4,2.59,12.73,4.21,19a15.3,15.3,0,0,1,.67,5.16c-.08.93-.08,2.24-1.74,1.5a.73.73,0,0,0-.51.13,59.77,59.77,0,0,1-5.56,2.6A33.35,33.35,0,0,1,540.57,332c-2.51-.21-5-.58-7.49-.9-6.72-.86-13.1.79-19.47,2.59-4.19,1.18-8.37,2.36-12.65,3.18a32.9,32.9,0,0,1-13.76-.25,72.12,72.12,0,0,1-14.94-5,13.23,13.23,0,0,1-4.31-3.72c-.49-.58-.25-1.31-.12-2,1.53-8.33,3.39-16.58,5.16-24.86a143.83,143.83,0,0,0,2.41-18.5c.49-6.12,1.05-12.23,1.53-18.35.36-4.66.64-9.33.94-14,.53-8.23,1.08-16.46,1.55-24.7.3-5.44.72-10.88,1.23-16.31.41-4.51.91-9,1.41-13.52s1-8.91,1.63-13.34a32,32,0,0,1,3-9.86,1,1,0,0,1,.51,1.4c-.58,1.37.12,2.46.62,3.6,2.8,6.37,6.69,12.15,10.09,18.2,2.66,4.72,6.32,8.72,9.5,13.06a66.9,66.9,0,0,0,7.57,8.81,1.44,1.44,0,0,0,2.13.18c1.33-.85,2-2.24,3.1-3.24a28.41,28.41,0,0,0,4.43-5.57c4.59-6.79,7.46-14.42,10.48-22a100.71,100.71,0,0,0,4.26-13.71C540.07,170.39,540.86,167.53,540.08,164.56Z" transform="translate(-51.98 -48.75)"/><path class="cls-10" d="M540.08,164.56c.78,3,0,5.83-.7,8.65a100.71,100.71,0,0,1-4.26,13.71c-3,7.55-5.89,15.18-10.48,22a28.41,28.41,0,0,1-4.43,5.57c-1.12,1-1.77,2.39-3.1,3.24a1.44,1.44,0,0,1-2.13-.18,66.9,66.9,0,0,1-7.57-8.81c-3.18-4.34-6.84-8.34-9.5-13.06-3.4-6.05-7.29-11.83-10.09-18.2-.5-1.14-1.2-2.23-.62-3.6a1,1,0,0,0-.51-1.4c2.71-.36,5.26-1.54,8-1.64.19.46.33.95.56,1.38,4.77,8.93,9.35,18,15.21,26.28a22.41,22.41,0,0,0,4.54,5.28c.8.6,1.08.56,1.43-.37,1.44-3.88,3.22-7.63,4.77-11.48,2.31-5.75,5.15-11.29,7.14-17.17.78-2.29,1.87-4.48,2.14-6.92C533.67,166.66,536.7,165.12,540.08,164.56Z" transform="translate(-51.98 -48.75)"/><path class="cls-16" d="M164.28,116.92A110.74,110.74,0,0,1,165.84,105c1.2-7.53,4.11-14.51,7.08-21.46,1.34-3.14,4-5.11,6.66-7.1a16.08,16.08,0,0,1,7-3.26c3.25-.59,5.55.3,7.23,3.22a19,19,0,0,1,2.69,7.4,4.13,4.13,0,0,1-1.76,3.8c-.48.37-1,.67-1.21,1.26a6.75,6.75,0,0,1-3.87,4.18c-4.27,2.06-6.23,5.59-7.12,10.05-1,4.85-2.6,9.57-3.22,14.49a56,56,0,0,1-2.26,9.68,9.82,9.82,0,0,1-.58,1.38c-1.88,3.81-6.32,4.08-8.94.69S164.28,122.11,164.28,116.92Z" transform="translate(-51.98 -48.75)"/><path class="cls-17" d="M182.39,78.75c.57,0,.7.37.87.67a49.93,49.93,0,0,1,3,6.17c.3.75.3,2,1.76,1.27s1.38-.7.78-2.26a28.24,28.24,0,0,0-3.38-6.83c-.2-.27-.49-.81-.06-1.12s.84.15,1.09.5a31.8,31.8,0,0,1,3.81,7.54c.3.75.6,1.42,1.63,1.21a.51.51,0,0,1,.63.55c0,.27-.25.34-.5.37-3.09.38-5.44,2.2-7.77,4-.5.4-1,.84-1.46,1.24-.28.22-.57.54-1,.25s-.31-.73-.18-1.12A3.25,3.25,0,0,1,183,89.75c2.76-2,2.8-2,1.56-5.06-.66-1.64-1.48-3.22-2.22-4.84C182.13,79.46,181.85,79,182.39,78.75Z" transform="translate(-51.98 -48.75)"/><path class="cls-17" d="M193.86,85c-.08.32,0,.83-.45.86s-.47-.49-.55-.81A27.28,27.28,0,0,0,189,76.2c-.15-.22-.38-.47,0-.69a.69.69,0,0,1,.88.1,7.47,7.47,0,0,1,1.29,2.08,39.81,39.81,0,0,1,2.56,6.44A5.19,5.19,0,0,1,193.86,85Z" transform="translate(-51.98 -48.75)"/><path class="cls-7" d="M216,72.55c-.31,1.55-.45,3.29-2.32,4.31a149.27,149.27,0,0,1-15.44,7.73c-1.58.64-2.43.17-2.57-1.44a15.18,15.18,0,0,0-3.42-8.34c-.93-1.13-.53-1.77.34-2.46,2.95-2.31,6.14-4.27,9.27-6.32,1-.63,2-1.12,2.93-1.78a5,5,0,0,1,5.41-.23A9.7,9.7,0,0,1,216,72.55Z" transform="translate(-51.98 -48.75)"/><path class="cls-7" d="M160.92,106.8c-1.24-.12-1.94-1.2-2.8-1.91a11,11,0,0,1-3.49-6.37,3.57,3.57,0,0,0-.3-1c-.89-1.48-.47-2.35,1.12-3.12,2.22-1.07,4.32-2.37,6.47-3.57a148.13,148.13,0,0,1,13.34-6.67c.33-.15.84-.28.93-.54.55-1.57,1.48-.72,2.08-.24,2.17,1.75,4,3.78,4.16,6.77,0,.13,0,.33,0,.4,1.68,1.51,0,2.06-.85,2.68-5.67,4.14-11.38,8.23-17.07,12.35A5.14,5.14,0,0,1,160.92,106.8Z" transform="translate(-51.98 -48.75)"/><path class="cls-8" d="M163.77,103a2.47,2.47,0,0,1-1.44,2.59,2.59,2.59,0,0,1-2.9-.68,10.86,10.86,0,0,1-3.06-4.49,1.63,1.63,0,0,1,.47-2c.71-.49,1.38-.08,2,.41a5.38,5.38,0,0,1,1.88,2.64c.16.5.08,1-.36,1.19-.61.23-.52-.42-.68-.76a5.85,5.85,0,0,0-1.51-2.1c-.2-.17-.44-.4-.72-.16a.54.54,0,0,0-.05.64,9.06,9.06,0,0,0,3.5,4,1,1,0,0,0,1.29,0,1.54,1.54,0,0,0,.5-1.62,5.91,5.91,0,0,0-1.39-2.49,16.37,16.37,0,0,0-4.82-3.37c-.41-.2-.92-.35-.73-1s.73-.42,1.16-.46H157C159.52,95.6,163.79,100.48,163.77,103Z" transform="translate(-51.98 -48.75)"/><path class="cls-9" d="M179.23,122.18A28.88,28.88,0,0,0,183.65,138,58.13,58.13,0,0,0,205,159.26a19.54,19.54,0,0,0,8.33,2.93,1.48,1.48,0,0,1,1.57,1.78,64.37,64.37,0,0,0,.4,8.09,36.12,36.12,0,0,0,1.16,6.19c.59,2.15.08,3-2.09,3.65a36.56,36.56,0,0,1-14.45,1c-18-2-32.79-10.19-45-23.33a53.86,53.86,0,0,1-12.57-21.63c-.47-1.6-1.59-3-2-4.63-.05-.21-.07-.44-.1-.66l4.73-1.3c4.29-1.21,8.57-2.46,12.87-3.62,4.61-1.25,9.24-2.44,13.87-3.61A67.49,67.49,0,0,1,179.23,122.18Z" transform="translate(-51.98 -48.75)"/><path class="cls-10" d="M179.23,122.18a67.49,67.49,0,0,0-7.53,1.91c-4.63,1.17-9.26,2.36-13.87,3.61-4.3,1.16-8.58,2.41-12.87,3.62l-4.73,1.3a33,33,0,0,1-1.59-9.28,1.72,1.72,0,0,1,1.24-1.82c3.7-1.66,7.67-2.07,11.57-2.78,5.67-1,11.13-2.88,16.75-4.12,3.62-.8,7.29-1.28,10.91-2.05.43-.1.62.09.79.51a2.88,2.88,0,0,1,.16,1.75A32.49,32.49,0,0,0,179.23,122.18Z" transform="translate(-51.98 -48.75)"/><path class="cls-16" d="M289.41,293.24a20.54,20.54,0,0,1-1.31-7.76c.07-3.24,0-6.48,0-9.71q0-4.56,0-9.12a7.31,7.31,0,0,0-1.23-4c-.38-.67-1-1.4-1.77-1.41-1.31,0-2.47-.61-3.75-.72a2.84,2.84,0,0,0-.92.05c-3.53.74-7.2,4.78-6.63,8.85.52,3.73,1.25,7.44,1.78,11.17.27,2,.84,4,.59,6a81.76,81.76,0,0,1-1.49,8c-.06.27-.1.53-.15.79v0l0,.22a16.22,16.22,0,0,0-.25,2c-.2,1.6-.43,3.51-.43,3.77s-.65,2.47,1.82,2.12l.06.09c.37,1.13,1.56,4.62,2.37,4.7a3.93,3.93,0,0,0,2.93-1.21,11,11,0,0,0,2.3,0c4.16-.36,7.35-2.39,7.3-7.46A18.56,18.56,0,0,0,289.41,293.24Z" transform="translate(-51.98 -48.75)"/><path class="cls-9" d="M267.32,263.69c-1.12-10.06-1.94-20.15-2.81-30.23-.79-9.22-1.61-18.43-2.38-27.65-.7-8.44-1.34-16.89-2-25.33-.27-3.33-.56-6.65-.78-10,0-.63-.39-1.46.3-1.92s1.3.1,1.88.45A37.22,37.22,0,0,1,271.68,179a121,121,0,0,1,16.79,32.79,203.85,203.85,0,0,1,6.95,25.95c1.12,5.49,2.19,11,3.15,16.49a6.12,6.12,0,0,1,0,1,49.15,49.15,0,0,0-6.73,1.71c-3.74,1-7.46,2-11.18,3.05Z" transform="translate(-51.98 -48.75)"/><path class="cls-10" d="M267.32,263.69l13.38-3.78c3.72-1,7.44-2.08,11.18-3.05a49.15,49.15,0,0,1,6.73-1.71l1.44,7.29s0,.09,0,.14c.28,3.3.24,3.35-3,4.15-8.24,2-16.44,4.22-24.73,6-1,.22-1.93.53-2.9.79-.69.19-1.28,0-1.32-.75C268,269.77,267.15,266.77,267.32,263.69Z" transform="translate(-51.98 -48.75)"/><path class="cls-16" d="M185.09,426.31c-.05-3,.78-5.48,1.17-8s1.28-5.3,1.79-8c1.25-5.87,6.43-5.65,9.44-3.48,2,1.45,2.93,1.62,2.25,5.37s-1,6.38-1.69,9.5a26.35,26.35,0,0,1-5,8.89c-2.54,2.8-5.5,1.62-7.17-1A5.06,5.06,0,0,1,185.09,426.31Z" transform="translate(-51.98 -48.75)"/><path class="cls-18" d="M217.84,313.54c3.48.56,6.66,1.64,8.87,5.24,1.14,1.86.82,3.09.33,4.73q-7.2,23.81-14.36,47.6c-3.76,12.4-7.54,24.79-11.46,37.14-.71,3.63-.43,3.11-4.38,2.48-.91-.15-1.8-.42-2.7-.51s-1.69-.18-2.5-.23a5.38,5.38,0,0,1-2.7-.91c-.92-.71-.39-1.77-.27-2.7,1.4-10.16,2.77-20.33,4.21-30.48q2.52-17.75,5.14-35.48c.56-3.8,1.09-7.61,1.79-11.39.55-2.92.68-6,3.05-8.32C207,316.65,211.72,314,217.84,313.54Z" transform="translate(-51.98 -48.75)"/><path class="cls-9" d="M197.81,428.37a24.16,24.16,0,0,1-.57,3.89c-.51,1.62-2.08,1.94-3.53,2.13-3.08.4-6.18.71-9.27,1.05-5.18.57-10.32,1.39-15.44,2.43-1,.2-2.33.86-3-.41s.64-1.95,1.42-2.65c4-3.5,8.53-6.16,12.84-9.16a19.2,19.2,0,0,0,2.5-1.69,6.3,6.3,0,0,1,5.28-1.66c2.46.2,4.93.25,7.4.35,2.66-.22,2.28.51,2.38,1.71S197.64,427,197.81,428.37Z" transform="translate(-51.98 -48.75)"/><path class="cls-16" d="M255,421c-.47,3.38-.11,6.89-1.11,10.26a10.88,10.88,0,0,1-1.11,2.63,3.3,3.3,0,0,1-3.18,1.72,3.42,3.42,0,0,1-2.87-2.42A15.58,15.58,0,0,1,246,429a67,67,0,0,1-.58-12.66,11.46,11.46,0,0,1,1.18-4.87c1.35-2.4,3.68-2.33,6.07-.16a5.21,5.21,0,0,1,1.61,3.64C254.39,416.94,254.92,418.94,255,421Z" transform="translate(-51.98 -48.75)"/><path class="cls-18" d="M255.59,307.77a11.63,11.63,0,0,1,9.88,6.5,3.43,3.43,0,0,1,.42,2.1q-1.38,12.84-2.73,25.69c-.86,8.25-1.69,16.5-2.56,24.75-.77,7.34-1.58,14.67-2.38,22-.84,7.74-1.72,15.48-2.53,23.22-.41,3.87-.52,4.08-4.38,4a30.63,30.63,0,0,1-4.77-.59c-1.61-.29-2.08-1.14-2-2.82a106.52,106.52,0,0,0-.3-10.72c-.16-4.07-.51-8.14-.74-12.21-.47-8.42-.91-16.84-1.38-25.25-.62-11.22-1.28-22.42-1.9-33.63-.2-3.71-.52-7.42-.45-11.12.08-4.36,2.54-7.45,6.14-9.67C248.44,308.44,251.22,307.71,255.59,307.77Z" transform="translate(-51.98 -48.75)"/><path class="cls-9" d="M273.79,437.77c-5.62-.42-11.24-.86-16.86-1.25-2.33-.16-4.67-.22-7-.33-.64,0-1.28-.05-1.91-.12-2-.07-2.33-.7-2.3-2a41,41,0,0,1-.4-5.67c0-1.23-.33-1.87.89-2,2.21-.31,6.17-.78,8.37-1.15a1.37,1.37,0,0,1,.78.14c7.18,2.75,14.36,5.48,21.52,8.25,1,.4,2.43.65,2.22,2.18s-1.62,1.72-2.83,1.92a14.52,14.52,0,0,1-2.47,0Z" transform="translate(-51.98 -48.75)"/><path class="cls-9" d="M264.59,99.34C256.38,94.66,248.14,90,240,85.28a2.64,2.64,0,0,0-2.92.07Q225.51,92,214,98.57c-1.22.7-2.27,1.32-2,2.88,1.16.65,2.34,1.33,3.2,1.84,2.86,1.45,5.88,2.53,8.79,3.86,1.44.65,2.3,1.67,1.94,3.13-.32,1.29.32,1.19,1.09,1.16,2.32-.1,4.64-.22,7-.34.17-.22.34-.23.53,0h3.6a.78.78,0,0,1,1.08,0,40.4,40.4,0,0,1,4.06.47c2.21.46,4.5.52,6.69,1.21.67.21,1.43,0,2.14.29.41.19.76-.07.94-.55a3.63,3.63,0,0,0,.22-1.34,4,4,0,0,1,2.28-4c3.12-1.63,6.08-3.53,9.1-5.35C265.88,101.07,265.88,100.08,264.59,99.34Z" transform="translate(-51.98 -48.75)"/><rect class="cls-9" x="160.16" y="51.98" width="0.58" height="14.24"/><path class="cls-12" d="M211.74,107.61l1.22,0c1.94,1.06,2.55,3.17,1.22,4.85-.86,1.07.16,1.71.38,2.44a18.11,18.11,0,0,1,1,5.45,26.39,26.39,0,0,0,.22,3.54c.32,1.52-.55,2.43-2.1,2.45a20.18,20.18,0,0,0-2.2,0c-1.19.13-1.47-.39-1.43-1.49.08-2.24,0-4.48,0-6.73a6.72,6.72,0,0,1,.83-3.81,1.1,1.1,0,0,0-.21-1.54C208.69,110.79,209.11,108.79,211.74,107.61Z" transform="translate(-51.98 -48.75)"/><path class="cls-16" d="M253.85,128.51c3.67-.06,5.72,3.77,3.88,7.13a6,6,0,0,1-5.17,3.3,1.38,1.38,0,0,0-1.44,1,17.35,17.35,0,0,1-5.92,7.88c-.31.26-.55.51-.41.91.52,1.49.39,3.07.68,4.58.42,2.12-.4,4.16-.56,6.25a11.27,11.27,0,0,1-2.77,6.83c-2.28,2.56-6.45,4.86-10.07,2.35a7.81,7.81,0,0,1-3.32-5.43,15.34,15.34,0,0,0-.75-3.73c-.26-.61.16-1.16.17-1.74a51.31,51.31,0,0,1,.44-9,.9.9,0,0,0-.49-.91c-2.69-1.93-4.32-4.66-5.74-7.55-.24-.48-.37-1-1.19-.63-3.43,1.55-6.61-.67-7.46-3.73a9.22,9.22,0,0,1,.35-5.87,4.53,4.53,0,0,1,5.41-2.87c1,.21,1.14-.23,1.24-.92a20.41,20.41,0,0,1,6.37-12.55c5.92-5.41,13.61-5.15,19.38.12a16.49,16.49,0,0,1,4.92,7.46,44.35,44.35,0,0,1,1.15,6.08C252.69,128.38,253,128.79,253.85,128.51Z" transform="translate(-51.98 -48.75)"/><path class="cls-6" d="M220.06,130.87c.24.37.49.73.73,1.09.17.58.26,1.11-.64,1.11a1,1,0,0,0-.59.3c-.75.71-1.49,1.57-1,2.62s1.41.27,2.22.08a1.3,1.3,0,0,1-1.43,1.58,1.84,1.84,0,0,1-2-1.66,4,4,0,0,1,2.18-4c-1.32-1.08-1.84-1-2.39.39a15.82,15.82,0,0,0-.52,2c-.06.26-.08.57-.45.58s-.5-.32-.53-.65a4,4,0,0,1,1.37-3.7C218,129.79,219.06,130.39,220.06,130.87Z" transform="translate(-51.98 -48.75)"/><path class="cls-6" d="M254.56,131.1a2.55,2.55,0,0,1,2.38,2.25c0,.35-.07.67-.44.75s-.39-.3-.5-.53c-.29-.62-.53-1.3-1.4-1.3a.86.86,0,0,0-.81.41c-.24.43.15.54.41.7.76.45,1.34,1.07,1.08,2a2.76,2.76,0,0,1-1.79,1.75c-.44.18-1,.18-1.17-.37-.26-.72.31-.62.76-.74.61-.17,1.38-.46,1-1.28s-.94-.77-1.57-.22a.64.64,0,0,1-1.06-.61A4,4,0,0,1,254.56,131.1Z" transform="translate(-51.98 -48.75)"/><path class="cls-6" d="M236.3,134.14a1.66,1.66,0,0,1-1.1,0,72.68,72.68,0,0,1,.54-9.44c0-.3-.06-.72.41-.71s.43.5.43.82C236.5,127.92,236.39,131,236.3,134.14Z" transform="translate(-51.98 -48.75)"/><path class="cls-9" d="M232.64,124.34a.69.69,0,0,1-.78.12c-2.19-1-4.07-.22-5.92.9-.51.31-1.24,1-1.65.32s.5-1,1-1.36c1.93-1.19,3.93-1.93,6.2-.95C232,123.58,232.57,123.67,232.64,124.34Z" transform="translate(-51.98 -48.75)"/><path class="cls-9" d="M227.51,129.6a3.21,3.21,0,0,1,0-.82c.13-.48.27-1,.93-1s.64.47.76.94a2.62,2.62,0,0,1,0,1.87c-.19.41-.33.91-.93.84s-.69-.62-.75-1.12a5.3,5.3,0,0,1,0-.69Z" transform="translate(-51.98 -48.75)"/><path class="cls-9" d="M244,130.19c-.06.41.13,1.37-1,1.47-.89.08-1-.62-.95-1.32s-.05-2,1-2.05C243.93,128.23,244.06,129.14,244,130.19Z" transform="translate(-51.98 -48.75)"/><path class="cls-19" d="M223.06,132.86c-1.67-1-2.27-2.63-2.83-4.32a32.24,32.24,0,0,1-1.82-10.93,15.58,15.58,0,0,1,3.87-10,11.34,11.34,0,0,1,7.59-3.79,18.17,18.17,0,0,1,5.41-.06c.42.09.51-.23.7-.48a6.81,6.81,0,0,1,9.94-.65c.93.93,1.88,1.86,2.73,2.86,1.7,2,4.11,2.06,6.4,2.49a11.29,11.29,0,0,1,2.83.81c2.49,1.16,2.7,3.76,2.5,5.92a17,17,0,0,1-1.41,5.18,2.86,2.86,0,0,0,.61,3.05c2,2.39,1.94,4.56,0,6.21-.79.64-1.58,1.14-2.63.27a4.66,4.66,0,0,0-2-.76c-1.88-.4-2.6.08-3.27,2-.26.75-.52,1.9-1.4,1.71-.64-.14-.77-1.31-.77-2.14,0-1.1,0-2.2,0-3.3,0-.81,0-1.16-1.06-.8a12.33,12.33,0,0,1-4.41,1.18,5.54,5.54,0,0,1-5.57-5.47,14.05,14.05,0,0,0-1.12-6,4.62,4.62,0,0,0-4.21-2.31c-5.81.92-8.49,3-9.77,9.5A27,27,0,0,0,223.06,132.86Z" transform="translate(-51.98 -48.75)"/><path class="cls-20" d="M238.84,107.48a7.48,7.48,0,0,1-.82,0c-.27,0-.58-.07-.58-.44s.22-.37.44-.45a4.88,4.88,0,0,1,3.73.24c2.6,1,3.9,3.18,4.9,5.61.47,1.14.93,2.28,1.47,3.38a4.49,4.49,0,0,0,4.33,2.82c.27,0,.59-.11.73.2s-.16.6-.39.8a2.43,2.43,0,0,1-2.7.31,6.66,6.66,0,0,1-3.4-3.43,44.77,44.77,0,0,1-1.74-4.6C243.62,109,241.56,107.45,238.84,107.48Z" transform="translate(-51.98 -48.75)"/><path class="cls-20" d="M220,122.13c.39-5,3.32-8.38,7.85-10.52a9.46,9.46,0,0,1,4.59-1.17,2.25,2.25,0,0,1,1.28.39c.11.08.14.33.13.49s-.23.22-.41.24c-6.72.76-10.65,4-12.16,10.12a9,9,0,0,1-.28,1.19c-.19.46.15,1.37-.61,1.28-.61-.07-.26-.93-.39-1.43A3.65,3.65,0,0,1,220,122.13Z" transform="translate(-51.98 -48.75)"/><path class="cls-20" d="M245.47,125.42a3.62,3.62,0,0,1-3.38-2.56,12.22,12.22,0,0,1-.57-3.91,7.64,7.64,0,0,0-3.38-6.79c-.22-.15-.54-.27-.37-.61s.53-.25.83-.1a7.24,7.24,0,0,1,4,5.52c.28,1.38.34,2.81.57,4.2.4,2.38,1.94,3.2,4.18,2.29.3-.13.66-.58,1-.15s-.13.68-.34,1A2.88,2.88,0,0,1,245.47,125.42Z" transform="translate(-51.98 -48.75)"/><path class="cls-20" d="M221.15,114.46a2.53,2.53,0,0,1,.24-2.72,12.63,12.63,0,0,1,6.83-4.76,2.76,2.76,0,0,1,.81-.09c.43,0,.89,0,.92.58s-.41.47-.78.54a9.77,9.77,0,0,0-5,3C223.17,112,222.29,113.14,221.15,114.46Z" transform="translate(-51.98 -48.75)"/><path class="cls-20" d="M256.86,114.15c-.64,1.25-1.69,1.63-3.46,1.19a5.2,5.2,0,0,1-3.26-2.34c-.54-.85-1-1.75-1.49-2.62-.11-.18-.32-.35-.09-.59s.41-.07.61,0a2.2,2.2,0,0,1,1,1c1.38,2.64,3.42,4,6.49,3.27C256.7,114,256.78,114.11,256.86,114.15Z" transform="translate(-51.98 -48.75)"/><path class="cls-20" d="M255.17,128.7c.18-1,.29-1.82.46-2.61a4.35,4.35,0,0,0-1.36-4.07c-.25-.27-.57-.56-.22-.93s.65-.19,1,0C257.46,122.33,257.67,127.09,255.17,128.7Z" transform="translate(-51.98 -48.75)"/><path class="cls-20" d="M252.25,126.69a4.51,4.51,0,0,0-.83-3.13c-.22-.32-.43-.67-.13-1s.77-.06,1.09.16a4.3,4.3,0,0,1,1,4.87c-.21.33-.44.82-.9.68s-.11-.63-.18-1A3.36,3.36,0,0,1,252.25,126.69Z" transform="translate(-51.98 -48.75)"/><path class="cls-4" d="M220.12,130.39c.32-.66.74-.71,1.31-.27,1.18.93,2.45,1.75,3.53,2.78a3.35,3.35,0,0,0,2.66,1,67.39,67.39,0,0,0,7.65-.3,1.57,1.57,0,0,0,1.09,0c3.12.07,6.23-.13,9.34.1.83.06,1.4-.65,1.8-1.27.95-1.46,2.56-2.21,3.64-3.52a.79.79,0,0,1,1.23,0c.51.52,0,.75-.35,1.06-1.42,1.3-2.81,2.62-4.23,3.92a1.64,1.64,0,0,0-.53,1.81c.63,2.86.4,5.81.66,8.72a1.62,1.62,0,0,1-.51,1.37c-1.95,1.74-3.89,3.44-6.66,3.84-1.29.18-2.56.7-3.87.76a12.78,12.78,0,0,1-9.61-3.19,6.67,6.67,0,0,1-1.89-5.1c-.06-2.19-.4-4.36-.33-6.57,0-1.39-1.26-2-2.16-2.82-.59-.52-1.12-1.23-2-1.27C220.61,131.11,220.36,130.75,220.12,130.39Z" transform="translate(-51.98 -48.75)"/><path class="cls-2" d="M249.73,159.27a7,7,0,0,0-3.23-3.75l-.11-.05c-1.23,1.59-4,5.21-5.71,7.33q-.42.58-.9,1.14a5,5,0,0,1-.43.49,2.89,2.89,0,0,1-4.12-.22q-.48-.69-1-1.35c-1.07-1.16-2.84-3.1-4.37-4.84-.09-.09-.17-.19-.26-.29-1-1.19-1.91-2.23-2.31-2.81h0a14.84,14.84,0,0,0-5.05,6.93,31.29,31.29,0,0,0,.06,6.12,36.66,36.66,0,0,0,.76,6.26,59,59,0,0,0,7.77,18.16,38.2,38.2,0,0,0,5,6.84c.65.65,1,.71,1.45-.24,2.32-4.48,4.81-8.88,6.77-13.56,3.18-7.6,5.62-15.36,5.58-23.71,0-.48.1-.91.65-1.07C250.11,160.2,250,159.72,249.73,159.27Z" transform="translate(-51.98 -48.75)"/><path class="cls-9" d="M236.28,164.48c1.52.07,2.89.39,3.62,2,.53,1.1,1.63,1.87,1.78,3.2.06.48.12.89-.26,1.25-1,1-1.56,2.25-2.47,3.28a2,2,0,0,0-.22,2c1.14,4.78,1.33,9.69,2.07,14.53.58,3.71-.88,6.65-3.33,9.25-.13.14-.24.28-.36.42-1.55,2-2,2-3.06-.31a7,7,0,0,0-.78-1.12,18,18,0,0,1-3-5.19,1.49,1.49,0,0,1-.16-1.05c2-5.58,2.51-11.51,4.32-17.13a.89.89,0,0,0-.15-1c-1.1-1.07-1.63-2.54-2.6-3.7a1.64,1.64,0,0,1-.1-2.23,21.06,21.06,0,0,1,3-3.41A2.18,2.18,0,0,1,236.28,164.48Z" transform="translate(-51.98 -48.75)"/><path class="cls-15" d="M259.36,168.86c1-.86,1.12,0,1.33.64,1,3.19,1.35,6.54,2.1,9.79,1.62,7,2,14.12,2.55,21.25.94,12.4,1,24.81,1.07,37.24,0,7.56.48,15.11,1,22.66.77,12,2.38,24,3.44,36a83.23,83.23,0,0,0,1.91,10.83,80.42,80.42,0,0,1,1.62,14.18c.09,2.24.6,4.45.56,6.7,0,.7,0,1.44-.69,1.83s-1.22,0-1.63-.58c-.06-.09-.23-.12-.36-.14-6-.83-11.66-2.73-17.47-4.17a55.51,55.51,0,0,0-26,.11,165.55,165.55,0,0,1-22.33,3.68,37.32,37.32,0,0,1-24-5.77,13.76,13.76,0,0,1-4.31-4.18,3.72,3.72,0,0,1-.35-4,71,71,0,0,0,3.57-8.59c2.22-7.68,5.06-15.19,6.37-23.11,1.19-7.18,2.16-14.4,3.43-21.57,1.34-7.59,1.62-15.32,3.06-22.87,1.24-6.49,2.26-13,3.13-19.53.33-2.4.28-4.85.57-7.26.61-4.84,1.52-9.63,1.78-14.52a69,69,0,0,1,1.6-12,63.72,63.72,0,0,1,6.4-16.59,24.92,24.92,0,0,1,5.34-6.23,1,1,0,0,1,1.26-.2c-1.19,2-.92,4.22-.85,6.39a56.7,56.7,0,0,0,3,15.69c2.3,7.19,6.22,13.5,10.75,19.46a30.69,30.69,0,0,0,6.17,6.4c2.2,1.62,3.37,1.66,5.45,0a27.74,27.74,0,0,0,3.76-4,67.39,67.39,0,0,0,9.58-15.72,106.74,106.74,0,0,0,5.54-15A60,60,0,0,1,259.36,168.86Z" transform="translate(-51.98 -48.75)"/><path class="cls-10" d="M259.36,168.86a60,60,0,0,0-1.69,6.75,106.74,106.74,0,0,1-5.54,15,67.39,67.39,0,0,1-9.58,15.72,27.74,27.74,0,0,1-3.76,4c-2.08,1.7-3.25,1.66-5.45,0a30.69,30.69,0,0,1-6.17-6.4c-4.53-6-8.45-12.27-10.75-19.46a56.7,56.7,0,0,1-3-15.69c-.07-2.17-.34-4.38.85-6.39a16,16,0,0,0,6.74-.63,1.7,1.7,0,0,1,1.18.07,31.29,31.29,0,0,0,.06,6.12,36.66,36.66,0,0,0,.76,6.26,59,59,0,0,0,7.77,18.16,38.2,38.2,0,0,0,5,6.84c.65.65,1,.71,1.45-.24,2.32-4.48,4.81-8.88,6.77-13.56,3.18-7.6,5.62-15.36,5.58-23.71,0-.48.1-.91.65-1.07C253,163.78,256.38,166.08,259.36,168.86Z" transform="translate(-51.98 -48.75)"/><path class="cls-16" d="M421.38,164.9a43,43,0,0,1-1.42,8.59c-.23.88-.08,1.46.61,1.85,2.69,1.53,3.87,5.37,2.42,8.72a45.14,45.14,0,0,0-1.9,6.12,7.47,7.47,0,0,1-5.3,5.4c-2.32.69-4.34-.67-5.19-3-.66-1.84-.62-3.81-1-5.71-.62-3.06-.72-6.22-1.34-9.3a2.79,2.79,0,0,1,1.19-3.13c1.45-.76,1.32-1.81,1.07-3a20.32,20.32,0,0,1-.4-5.71,4.18,4.18,0,0,1,1.53-3.37c1.16-.83,1.73-.65,2.24.69a26.42,26.42,0,0,1,.86,4.68c.37,2,.3,4.09.84,6.09.1.37.16.81.6.79.68,0,.18-.56.22-.85.52-3.67.52-7.45,2.2-10.89.34-.69.63-1.61,1.63-1.33s1.13,1.11,1.14,2Z" transform="translate(-51.98 -48.75)"/><path class="cls-17" d="M411.82,172a6.07,6.07,0,0,1,3.86,2.07c.77.82,1.33.8,1.91-.14a3.09,3.09,0,0,1,.65-.7.72.72,0,0,1,1-.06.7.7,0,0,1,0,1c-.34.49-.74.93-1.12,1.39-.23.28-.53.56-.5.95a2.06,2.06,0,0,0,.81,1.65c.57.3.77-.53,1.1-.93.48-.59.9-1.85,1.77-1.29s-.25,1.27-.55,1.89c-.55,1.1-1.2,2.14-1.66,3.3-.25.63-.42,1.7-1.56.61-.69-.65-1.59-.09-1.75.92a4.65,4.65,0,0,1-1.74,3c-.31.25-.68.38-1,.09-.51-.48.18-.6.34-.8,1.9-2.22,1.46-4.75-1.11-6.28-.67-.4-1.78-.78-1.13-1.78s1.5-.24,2.19.17a9.78,9.78,0,0,1,2.25,2.2c.32.37.82,1,1.35.64s.06-.91-.14-1.37c-1.08-2.49-2.64-4.46-5.33-5.33-.31-.11-.79-.25-.73-.7S411.37,172.06,411.82,172Z" transform="translate(-51.98 -48.75)"/><path class="cls-17" d="M421.91,179.39c.52.1.73.33.54.79-.43,1-.86,2-1.32,3-.15.31-.41.66-.86.49s-.41-.54-.33-.92a10.92,10.92,0,0,1,1.36-2.94C421.41,179.59,421.73,179.5,421.91,179.39Z" transform="translate(-51.98 -48.75)"/><path class="cls-9" d="M394.91,188.65c.08-.7.5-.42.86-.3a26.11,26.11,0,0,1,4.94,7.47,52.93,52.93,0,0,1,3.12,8.28,7.41,7.41,0,0,0,.52,1V193.55c.75.21,1.51.37,2.23.63a132.32,132.32,0,0,1,23.29,11.73c.14,10.25-1.36,20.2-5.47,29.66a25.57,25.57,0,0,1-5.45,8.15c-5.1,5-11.33,4.94-16.32-.2-3.81-3.91-6-8.71-7.53-13.85a70.86,70.86,0,0,1-.78-38.85c.09-.35,0-.81.44-.94C395.75,189.56,395,189.08,394.91,188.65Z" transform="translate(-51.98 -48.75)"/><path class="cls-10" d="M429.87,205.91a132.32,132.32,0,0,0-23.29-11.73c-.72-.26-1.48-.42-2.23-.63,0-1.51-.06-3-.08-4.52a2.84,2.84,0,0,0-.39-1.71c-.23-.31-.57-.51-.23-.89s.72-.29,1.14-.18c2.46.65,4.94,1.23,7.38,1.94,5.93,1.71,11.18,4.86,16.46,7.92,2.29,1.32,2.29,3.6,2.05,5.81A14.52,14.52,0,0,1,429.87,205.91Z" transform="translate(-51.98 -48.75)"/><path class="cls-9" d="M347,425.9a12.83,12.83,0,0,0,8.19,0,17.14,17.14,0,0,1,1.35,6.86c.16,3.24-.15,3.59-3.19,3.82s-5.85.36-8.77.59c-3.63.28-7.26.62-10.9.95a1.05,1.05,0,0,1-1.09-.43,1.22,1.22,0,0,1,0-1.38A6.82,6.82,0,0,1,335,433.9C339.11,431.46,342.85,428.35,347,425.9Z" transform="translate(-51.98 -48.75)"/><path class="cls-16" d="M355.11,328.34c4.92-.18,8.31,2.49,10.65,7.11a6.09,6.09,0,0,1,.27,5.4c-.9,1.86-.82,3.84-.86,5.72-.12,4.83-.57,9.61-1,14.4a63.43,63.43,0,0,1-1.61,9.53c-1.62,6.34-7.79,9.09-12.68,5.44-3.11-2.32-4.55-5.83-4.72-10-.26-6.65-.44-13.31-.84-19.94a36.17,36.17,0,0,1,.31-10c1-4.61,3.63-7.11,7.84-7.44A10.66,10.66,0,0,1,355.11,328.34Z" transform="translate(-51.98 -48.75)"/><path class="cls-21" d="M347,425.9c-.23-10.1-.43-20.2-.67-30.3-.23-9.2-.51-18.4-.75-27.6-.05-2.11,0-2,1.93-1.94,2.51.06,5,0,7.55-.16a70.82,70.82,0,0,1,7.28.23,1.65,1.65,0,0,1,1.37,2c-1.11,2.63-1.15,5.48-1.54,8.24-2.28,16.14-4.47,32.29-6.69,48.44-.06.38-.19.76-.29,1.14A12.83,12.83,0,0,1,347,425.9Z" transform="translate(-51.98 -48.75)"/><path class="cls-9" d="M391.54,428.17c.72,1.09,1.62.42,2.48.31,2.46-.31,4.93-.6,7.39-.9,4.79,1.49,9.41,3.51,14.09,5.33a17.25,17.25,0,0,1,3.38,1.63,1.75,1.75,0,0,1,1,1.77,1.8,1.8,0,0,1-1.36,1.5,10.48,10.48,0,0,1-3.81.39c-6.74-.24-13.48-.51-20.21-.76a2.62,2.62,0,0,0-.28,0c-4.47.19-3.77-.39-3.22-4.52A27,27,0,0,0,391.54,428.17Z" transform="translate(-51.98 -48.75)"/><path class="cls-16" d="M387.66,331.41c5.32,0,8.57,3.45,9.61,9.63a43.12,43.12,0,0,1,.65,8.28c-.14,4.48.11,9-.36,13.44a16,16,0,0,1-2,6.09,6.18,6.18,0,0,1-7.08,3.26c-4.6-1.12-6.27-3.62-6.84-9-.3-2.81-1-5.53-1.23-8.36-.31-4.11-1.5-8.06-1.92-12.14a8.14,8.14,0,0,1,1.9-6.71,22.74,22.74,0,0,1,3.27-3.24A5.43,5.43,0,0,1,387.66,331.41Z" transform="translate(-51.98 -48.75)"/><path class="cls-21" d="M391.54,428.17a105.29,105.29,0,0,1-1.7-10.45c-2.12-15.26-4.52-30.47-7-45.66-.42-2.55-.45-5.16-1.21-7.65-.21-.69,0-1,.71-1.08,3.14-.29,6.28-.59,9.42-.92,1.4-.15,2.79-.45,4.2-.59,1.9-.19,1.94,0,2.19,2,1,8,.89,16.14,1.35,24.21.72,12.57,1.31,25.15,1.95,37.73,0,.59,0,1.19,0,1.79-2.46.3-4.93.59-7.39.9C393.16,428.59,392.26,429.26,391.54,428.17Z" transform="translate(-51.98 -48.75)"/><path class="cls-9" d="M398,110.86c-1.11-.33-1.86-1.2-2.84-1.73-4.38-2.38-9-4.33-13.49-6.39-2.88-1.3-5.53-3-8.43-4.29a3.65,3.65,0,0,0-3.46.2c-7.09,3.55-14,7.54-21.27,10.65a2.87,2.87,0,0,0-1.44,1.29l2.47,1.61c2.33,1.35,4.58,2.69,6.88,3.9a1.75,1.75,0,0,1,1.11,1.88c-.08,2.45-.05,2.38,2.39,2.27a56.31,56.31,0,0,1,13.82,1.14,37,37,0,0,1,9.61,3.43c2.5.52,2.75.32,2.77-2.25a32.68,32.68,0,0,0,0-3.43c-.07-.8.24-1.09.9-1.41,3.25-1.57,6.31-3.51,9.63-4.93a6.48,6.48,0,0,0,1.39-.87C398.43,111.6,398.55,111,398,110.86Z" transform="translate(-51.98 -48.75)"/><path class="cls-20" d="M403.56,161.35a8.78,8.78,0,0,0,.35-12,17.63,17.63,0,0,1-4.33-8.38c-.09-.45-.16-.9-.23-1.35a10.19,10.19,0,0,1-1.37,1.33l.37-7.84c-23.53,30.08-48.9-2.11-48.9-2.11l-.17.67-.07-.13a33.86,33.86,0,0,1-7.21,9.91c-2.33,2.39-5,4.43-6.32,7.67-1.42,3.5-2.24,7.05-1.47,10.81a21.08,21.08,0,0,0,2.37,5.26,5.72,5.72,0,0,1-.13,6.24c-1.14,1.63-2.46,3.13-3.76,4.65-3.39,4-5.28,8.35-3.72,13.67,1,3.57,2.85,6.52,6.59,7.82,34.38,19.66,62.78-9.64,62.78-9.64,2.26-1.9,3.25-4.54,4.1-7.23a4.87,4.87,0,0,0,.18-2.24,12.66,12.66,0,0,0-2.31-4.95c-1.29-2-2.35-4.1-1-6.52A29.25,29.25,0,0,1,403.56,161.35Z" transform="translate(-51.98 -48.75)"/><path class="cls-16" d="M383.19,126.09c-.32.49.19.64.4.84a15,15,0,0,1,4.64,10.2,22.55,22.55,0,0,1-.11,6.81c.71.27,1.23-.28,1.78-.48a4.06,4.06,0,0,1,4.67,2.15c1.94,4.13.34,9.78-5.14,10.41a4.9,4.9,0,0,1-2.73-.57c-.46-.21-.91-.37-1,.35a10.35,10.35,0,0,1-5.79,8c-1.44.77-1.09,2-.95,3.2.52,4.42.86,8.83-1.27,13-1.19,2.33-2.78,4.3-5.42,5.08a6.13,6.13,0,0,1-7.2-3,17.87,17.87,0,0,1-2-7.05,29,29,0,0,1,.3-8.42,1,1,0,0,0-.59-1.24c-2.86-1.5-4.66-4-6.16-6.73-.29-.52-.6-1-1.29-.59-1.83,1-3.37,0-4.68-1a7.49,7.49,0,0,1-3.18-5.06c-.45-3.3,2.14-6.94,5.47-7.32.69-.08.77-.39.82-1a26.2,26.2,0,0,1,3.57-11.76,16.71,16.71,0,0,1,5-5.19c3.27-2.13,6.68-4,10.77-3.86a1.4,1.4,0,0,0,.48-.2A36.87,36.87,0,0,1,383.19,126.09Z" transform="translate(-51.98 -48.75)"/><path class="cls-6" d="M354.31,155.24a2.83,2.83,0,0,1-2.54-1.75,2.53,2.53,0,0,1,.83-2.85c.4-.37,1.19-.6.46-1.35s-1.29-.52-1.9.09c-.09.1-.16.23-.25.32-.29.31-.41,1.09-.93.74s-.17-1,.13-1.47a2.33,2.33,0,0,1,4-.31,8.8,8.8,0,0,1,1.43,2.32.7.7,0,0,1-.19,1,.6.6,0,0,1-.84-.2c-.57-.71-1.05-.38-1.43.17a1.06,1.06,0,0,0,.27,1.66,10.1,10.1,0,0,0,1.27.48c.32.15,1-.21.92.47S354.89,155.24,354.31,155.24Z" transform="translate(-51.98 -48.75)"/><path class="cls-6" d="M392.73,149.11c-.6-.15-.6-.64-.82-1a1,1,0,0,0-1.93.08c-.24.43-.41.73.33,1a1.92,1.92,0,0,1,1.51,2.48,2.55,2.55,0,0,1-2.66,1.91c-.34,0-.68-.11-.76-.45-.11-.5.4-.41.64-.53.4-.2.89-.22,1.24-.54a.92.92,0,0,0,.24-1.33.75.75,0,0,0-1.26-.18c-.36.29-.73.62-1.21.21s-.18-.84,0-1.26c.34-1,.48-2.11,1.58-2.72a1.9,1.9,0,0,1,2.18,0A2.27,2.27,0,0,1,392.73,149.11Z" transform="translate(-51.98 -48.75)"/><path class="cls-6" d="M371.8,150.82l-1.45-.07c0-.38-.07-.77-.11-1.15,0-.14.09-.27.13-.41a17.55,17.55,0,0,1,.33-3.39c.13-.42.25-.83.78-.77s.44.53.43.86A35.26,35.26,0,0,1,371.8,150.82Z" transform="translate(-51.98 -48.75)"/><path class="cls-9" d="M364.74,139.82a7,7,0,0,0-3.77.94c-.34.16-.72.43-1,.07s.06-.78.41-1c1.56-1,3.21-1.71,5.13-1.13.49.14,1.15.31,1.09.84s-.76.18-1.16.27A3.34,3.34,0,0,1,364.74,139.82Z" transform="translate(-51.98 -48.75)"/><path class="cls-9" d="M365.44,147.86c-.41.66.19,2.17-1.12,2-1-.1-.9-1.4-.91-2.31a3.38,3.38,0,0,1,.09-.54c.09-.61.25-1.3,1-1.29s.76.75.84,1.34C365.34,147.33,365.39,147.56,365.44,147.86Z" transform="translate(-51.98 -48.75)"/><path class="cls-9" d="M379.43,147.57c.17-1-.14-2.33,1.24-2.22s.75,1.43.75,2.22-.23,1.87-1.23,1.79S379.55,148.19,379.43,147.57Z" transform="translate(-51.98 -48.75)"/><path class="cls-9" d="M381.44,137.89a1.41,1.41,0,0,1,.5,0c.45.22,1.3.1,1.27.73s-.81.42-1.27.52a13.14,13.14,0,0,0-2.55.35.49.49,0,0,1-.67-.3.53.53,0,0,1,.33-.67A8.77,8.77,0,0,1,381.44,137.89Z" transform="translate(-51.98 -48.75)"/><path class="cls-20" d="M399.35,139.6a42.14,42.14,0,0,0-1-6.51c-.71-2.35-1.45-4.75-3.33-6.36A12.5,12.5,0,0,0,383.59,124c-.61.14-1,.34-1.45-.58-2.53-5.37-7.17-7.78-12.81-8.43a18.78,18.78,0,0,0-9.44,1.35A11,11,0,0,0,355,119.8c-2.52,3.4-4,7.36-5.53,11.18l-.24.54c1.54,2.73.39,2.62,1.93,7.93,0-.1,2.63,5.31,2.65,5.21.32-1.72,3.69-5.36,5.42-6.43a16.09,16.09,0,0,1,6.07-2.22,22.25,22.25,0,0,0,11.84-6c.68-.68.95-.23,1,.35a15.27,15.27,0,0,0,.69,2.74c.84,2.37,2.71,3.76,4.7,5.06a6.34,6.34,0,0,1,3.29,5.13,9.17,9.17,0,0,0,.31,2c.59-.12,1.17-.24,1.74-.38a2.14,2.14,0,0,1,.1-.22,2.4,2.4,0,0,1,1.6-1.32,2,2,0,0,1,2,.46A15.41,15.41,0,0,0,399.35,139.6Z" transform="translate(-51.98 -48.75)"/><path class="cls-13" d="M338.42,190.68a2.31,2.31,0,0,1-2.61-1.66c-1.39-3-1.05-6-.06-9a33,33,0,0,1,3.89-7.36c1.27-2,2.79-3.87,2.62-6.47a12.25,12.25,0,0,0-1.32-4.42c-.62-1.33-1.27-2.63-1.84-4a8,8,0,0,1,.27-7c2-4,5.14-7.09,8.38-10.08a2.46,2.46,0,0,1,.34-.22c.38-.24.81-.4,1.11,0s-.18.64-.4.88c-1.65,1.84-3.35,3.65-5,5.5A23.75,23.75,0,0,0,341,151a7,7,0,0,0-.34,6.56q.93,2.13,1.89,4.25a10.13,10.13,0,0,1-.4,9.71c-1.32,2.3-2.82,4.48-3.91,6.91C336.43,182.47,335.81,186.51,338.42,190.68Z" transform="translate(-51.98 -48.75)"/><path class="cls-13" d="M353.21,141.63a2.44,2.44,0,0,1,.3-1.18,16.2,16.2,0,0,1,9.3-8.64c2.79-1,5.56-2,8.35-3.06a10.22,10.22,0,0,0,4.74-3.37c.3-.38.6-1,1.2-.65s.51,1.06.27,1.59a7.17,7.17,0,0,1-3.71,3.32,71.07,71.07,0,0,1-9.23,3.43,14.35,14.35,0,0,0-8.31,6.55,8.12,8.12,0,0,1-1.91,2.49c-.2.16-.43.35-.73.23S353.22,141.89,353.21,141.63Z" transform="translate(-51.98 -48.75)"/><path class="cls-13" d="M401.16,156.2c-.05,2.29-1.21,4.54-2.63,6.69a19.61,19.61,0,0,0-1.73,3.1,7.52,7.52,0,0,0-.23,6.08,14.54,14.54,0,0,1,.74,6.49,7.2,7.2,0,0,1-2,4.11.88.88,0,0,1-1.22.26c-.42-.28-.24-.75-.09-1.13a3,3,0,0,1,.47-.83,7.31,7.31,0,0,0,1-8c-1.8-4-.3-7.24,1.81-10.44a17.75,17.75,0,0,0,2.53-5,7.25,7.25,0,0,0-.7-5.29,27.45,27.45,0,0,0-2.52-4.23,2.77,2.77,0,0,1-.65-1.33c0-.21-.08-.49.21-.58a.49.49,0,0,1,.59.2c1.72,2.41,3.56,4.74,4.27,7.72A11.52,11.52,0,0,1,401.16,156.2Z" transform="translate(-51.98 -48.75)"/><path class="cls-13" d="M343.5,178.07a10.88,10.88,0,0,1,1.4-5.52c.53-1,1-2.06,1.53-3.06a10.64,10.64,0,0,0,.36-10.11c-.26-.55-.89-1.41,0-1.79s1.06.64,1.36,1.19a10.59,10.59,0,0,1,.57,9.74c-.7,1.58-1.48,3.13-2.27,4.67a10.22,10.22,0,0,0-.67,8.47c.11.29.53.6,0,.93s-.72,0-1-.2a3.47,3.47,0,0,1-1.15-2.4A17.51,17.51,0,0,1,343.5,178.07Z" transform="translate(-51.98 -48.75)"/><path class="cls-13" d="M351.92,136a3,3,0,0,1,1-2.36,34.68,34.68,0,0,1,14.19-9.77,20.47,20.47,0,0,1,4.75-1.28,3.75,3.75,0,0,1,1.76.07c.36.13.73.27.75.7s-.41.72-.82.76c-8,.83-14,5.29-19.59,10.47A6.29,6.29,0,0,1,351.92,136Z" transform="translate(-51.98 -48.75)"/><path class="cls-13" d="M389.3,175.85a23.14,23.14,0,0,0-.71-5.55,6.49,6.49,0,0,1,.77-5.14,17.32,17.32,0,0,0,2.93-8.14c.06-.45,0-1,.67-1s.77.56.78,1.07a11.15,11.15,0,0,1-1.87,7.15,8.21,8.21,0,0,0-1.33,7.62,16.71,16.71,0,0,1,.49,5,2,2,0,0,1-.32,1.31.8.8,0,0,1-.82.37.7.7,0,0,1-.58-.67C389.28,177.22,389.3,176.54,389.3,175.85Z" transform="translate(-51.98 -48.75)"/><path class="cls-13" d="M368,118.58a4.52,4.52,0,0,1,2,.29c.31.13.6.29.56.67s-.39.44-.73.44c-4.51-.08-8,2.26-11.37,4.84L355.68,127c-.16.13-.26.43-.55.26s-.28-.45-.18-.73a5.47,5.47,0,0,1,1-1.93A17.29,17.29,0,0,1,368,118.58Z" transform="translate(-51.98 -48.75)"/><path class="cls-13" d="M382.93,167.27c-.17-2,.88-3.8,1.3-5.75.18-.82.42-1.62.67-2.42.13-.43.26-.94.86-.87s.59.62.57,1.06a10.57,10.57,0,0,1-.8,4.14A8.35,8.35,0,0,0,385,170c.26.78.59,2-.59,2.15s-1-1.06-1.12-1.84A11,11,0,0,1,382.93,167.27Z" transform="translate(-51.98 -48.75)"/><path class="cls-13" d="M352,173a11.92,11.92,0,0,1,1.52-5.28c1-2,1.69-4,.8-6.27a.54.54,0,0,1,0-.28c0-.43-.3-1.08.21-1.23s.76.5.95.95a6.87,6.87,0,0,1,.07,5.7,46.83,46.83,0,0,0-2.09,4.75,4.68,4.68,0,0,0,.17,3.07c.1.27.73.52.11.83a.87.87,0,0,1-1.12-.25A3.09,3.09,0,0,1,352,173Z" transform="translate(-51.98 -48.75)"/><path class="cls-13" d="M394.38,141.78a8.15,8.15,0,0,1-1.2-3.48,13.58,13.58,0,0,0-5.84-8.73c-.32-.21-.92-.42-.67-.86s.8-.22,1.22,0a12,12,0,0,1,6.35,8.13A8.7,8.7,0,0,1,394.38,141.78Z" transform="translate(-51.98 -48.75)"/><path class="cls-13" d="M391.12,141.28a1.32,1.32,0,0,1-1-.83,14.59,14.59,0,0,0-5-5.12c-1.83-1.19-2.5-3.06-2.91-5.06-.07-.34-.17-.78.33-.93s.75.21.83.65c.51,2.7,2.38,4.3,4.5,5.76a9,9,0,0,1,3,3.82C391.09,140.09,391.43,140.63,391.12,141.28Z" transform="translate(-51.98 -48.75)"/><path class="cls-4" d="M371.53,151l10.13-.27a1.07,1.07,0,0,0,1-.39c1.26-1.65,3.08-2.72,4.46-4.26.37-.41.89-.92,1.36-.36s0,1.06-.42,1.42q-1.69,1.49-3.46,2.87c-1.05.82-1.85,1.74-1.06,3.09,2.1,3.6.46,6.43-1.74,9.19a14.08,14.08,0,0,1-11.67,5.76,13.88,13.88,0,0,1-8.84-3.51c-1.19-1-2.34-2-2.55-3.69a8.86,8.86,0,0,1,.26-2.69,26.82,26.82,0,0,1,1.12-5.61,1.13,1.13,0,0,0-.55-1.59c-1.14-.74-4.64-5.17-5.75-6-.33-.23-.76-.57-.44-1s.73-.18,1.1.06c1.06.72,4.6,4.95,5.54,5.79a4.74,4.74,0,0,0,3.64,1.19c2.14-.1,4.3-.07,6.45-.1Z" transform="translate(-51.98 -48.75)"/><rect class="cls-9" x="295.16" y="61.81" width="0.92" height="14.95"/><path class="cls-12" d="M346.56,118.33c.82-.3,1.42-.42,1.92,0,2.39,1.34,2.76,2.86,1.25,5.32a1.43,1.43,0,0,0,0,1.55,8.25,8.25,0,0,1,1,3.64c.13,2.42.39,4.83.55,7.25.05.66.12,1.4-.63,1.82-.63,0-1.26.18-1.86.2-1.35,0-2.79.53-4-.44-.44-4-.55-7.92.79-11.78.21-.59.57-1.11.08-1.78C343.82,121.7,344.12,120,346.56,118.33Z" transform="translate(-51.98 -48.75)"/><path class="cls-2" d="M354.88,182.07a30.21,30.21,0,0,1,7.77-6.38,1.79,1.79,0,0,1,2.35.39c2.18,2.06,4.44,4,6.63,6.09.48.45.7.1,1-.15,1.77-1.41,2.8-3.46,4.38-5a6.88,6.88,0,0,0,2.19-3c.29-1,1.33-.38,1.91.09,1,.83,1.87,1.86,2.93,2.68a41.9,41.9,0,0,1,6.57,6.34,4.57,4.57,0,0,0-1.62,2.16c-.67,1.45-1.28,2.93-2,4.35-2.8,5.53-5.84,10.94-9,16.27-1.07,1.81-2.29,3.55-3.48,5.39a69.37,69.37,0,0,1-13.65-17.84C358.86,189.65,356.8,185.9,354.88,182.07Z" transform="translate(-51.98 -48.75)"/><path class="cls-9" d="M368.64,206.17c.16-2.5,1.15-4.79,1.57-7.21.26-1.53.6-3,.91-4.55a.78.78,0,0,0-.08-.65c-1.2-1.69-1.59-3.76-2.59-5.55a2.1,2.1,0,0,1,0-2.21c.68-1.18,1.32-2.4,2.08-3.54a2.6,2.6,0,0,1,4-.42c1.1,1.16,2.51,2.11,3.16,3.59.8,1.8-.94,2.89-1.64,4.16a9.32,9.32,0,0,0-.58,8,50.12,50.12,0,0,1,2.39,9.37,2.23,2.23,0,0,1-.31,1.68q-1.43,2.09-3,4.11a1.17,1.17,0,0,1-2-.11,35.18,35.18,0,0,1-3.79-5.21A4.37,4.37,0,0,1,368.64,206.17Z" transform="translate(-51.98 -48.75)"/><path class="cls-15" d="M394.14,187.63a2.29,2.29,0,0,1,2,1.4c2,3.36,2.43,7.17,3.2,10.86,2,9.52,2.8,19.2,3.91,28.84,1.18,10.19,2.39,20.38,3.46,30.58s2.12,20.13,2.91,30.23c.83,10.56,1.08,21.15,1.66,31.72a141,141,0,0,0,1.21,14.93,24,24,0,0,1,.08,4c0,.61-.34,1.21-.89,1.25-2.61.2-4.59,1.88-6.86,2.86a33.87,33.87,0,0,1-7.06,2.23c-3.74.71-7.38-.25-11.06-.66a74,74,0,0,1-17.83-4.36,38.46,38.46,0,0,0-16.8-1.9c-5.53.44-11,1.53-16.49,2.08a27.2,27.2,0,0,1-7,.19,3.78,3.78,0,0,0-2.49.17c-.78.4-1.48-.48-1.28-1.69.27-1.63.62-3.24,1-4.83,3.43-12.8,5.47-25.88,8-38.87a58.37,58.37,0,0,1,1.55-6.26c2.39-7.77,3.44-15.82,4.28-23.83.76-7.37,1.42-14.76,2.18-22.14.48-4.69,1.4-9.33,1.45-14.07,0-2.52.1-5,.14-7.56.09-4.36,1-8.63,1.5-12.95.75-6.6,2.79-13,3.64-19.53.15-1.13.23-2.26.33-3.4,0-.28.05-.54.36-.66a2.64,2.64,0,0,1,1,1.57,18.78,18.78,0,0,0,4.15,8.37c3.32,4.25,6.31,8.74,9.83,12.84,2.84,3.29,5.74,6.52,9.42,8.93.88.57,1.6.87,2.51-.08a52.41,52.41,0,0,0,5.06-6.11c2-2.87,3.68-6,5.46-9A109.6,109.6,0,0,0,394.14,187.63Z" transform="translate(-51.98 -48.75)"/><path class="cls-10" d="M354.49,181.84c1.93,3.83,4,7.59,6,11.38a69.34,69.34,0,0,0,13.64,17.84c1.2-1.85,2.41-3.58,3.49-5.4,3.16-5.33,6.2-10.73,9-16.26.72-1.42,1.33-2.9,2-4.35a4.58,4.58,0,0,1,1.61-2.17,14.56,14.56,0,0,1,3.26,3.78c.23.39.4.8.6,1.21a110,110,0,0,1-7.42,15.1c-1.77,3-3.45,6.15-5.46,9a51.42,51.42,0,0,1-5.06,6.11c-.91.94-1.63.64-2.51.07-3.68-2.4-6.58-5.63-9.42-8.93-3.52-4.09-6.51-8.59-9.83-12.84a18.74,18.74,0,0,1-4.15-8.36,2.63,2.63,0,0,0-1-1.58c1.31-1.69,3-3,4.46-4.53C353.85,181.79,354.23,181.87,354.49,181.84Z" transform="translate(-51.98 -48.75)"/><path class="cls-7" d="M376.05,196.3s0,.4,0,1.07a1.85,1.85,0,0,0-.27,1.06c0,1.69-.23,3.4-.18,5,.08,2.85-.15,5.68-.31,8.51-.76,4-7.07,30.89-7.07,30.89,1.21,2.32,4.75,2.84,7.29,2.89l.4.11a2.17,2.17,0,0,0,1.57-.15c.5,0,.81-.07.81-.07.74-1.23,3.93-22.84,3.93-22.84.25-2.53,5.16-23.9,5.16-23.9C383.83,193.11,376.05,196.3,376.05,196.3Z" transform="translate(-51.98 -48.75)"/><path class="cls-8" d="M376.09,217.11a17.51,17.51,0,0,1,6.27,1.44c.73.32,1.23.87.95,1.63s-1,.68-1.8.47a22.11,22.11,0,0,0-6-1.19c-.77,0-1.95,0-1.85-1.09s1-1.32,2.06-1.26Z" transform="translate(-51.98 -48.75)"/><path class="cls-8" d="M369.18,242.24c2.34-1.64,6.73-.39,8,.85.72.73.61,1.57-.32,1.82a7.26,7.26,0,0,1-5.67-.8c-1.23-.7.14-1.06.48-1.53C370.82,242.29,370,242.67,369.18,242.24Zm4.56.76c1.44,1.13,1.44,1.13,2.62.88A4.65,4.65,0,0,0,373.74,243Zm-.67-.1c-.1-.07-.15-.14-.21-.14a1.51,1.51,0,0,0-.36.06c.06,0,.11.12.16.12A2.17,2.17,0,0,0,373.07,242.9Z" transform="translate(-51.98 -48.75)"/><path class="cls-16" d="M379.85,220.42s-1-1-6.35.28a22.27,22.27,0,0,1-5.49.85,8.27,8.27,0,0,1-2.46-.08c-2.3-.19-4,.21-4.17,1.4-.32,2.22-2.2,5.89,4.48,8.09l4.59,1.62.13,0,6,2.23c2.71.12,4.9-.84,6-3.39C384.19,227.53,383.65,223.35,379.85,220.42Z" transform="translate(-51.98 -48.75)"/><path class="cls-17" d="M382.82,229.56c0,.23,0,.47-.28.55a.68.68,0,0,1-.75-.21,6.25,6.25,0,0,0-2.41-2.32c-.24-.11-.25-.47-.1-.73a.58.58,0,0,1,.67-.32A4.63,4.63,0,0,1,382.82,229.56Z" transform="translate(-51.98 -48.75)"/><path class="cls-17" d="M380.52,232.2a3.59,3.59,0,0,1-.19.68c-.13.3,0,.84-.55.8s-.33-.55-.4-.88a3,3,0,0,0-1.22-2.18c-.3-.18-.55-.41-.29-.76a.81.81,0,0,1,.87-.25A2.62,2.62,0,0,1,380.52,232.2Z" transform="translate(-51.98 -48.75)"/><path class="cls-17" d="M379.42,223.42c.06-.35.37-.4.78-.35A5.11,5.11,0,0,1,383,225.5c.06.22.14.47-.05.63a.51.51,0,0,1-.48,0c-.93-.64-1.84-1.31-2.76-2A.71.71,0,0,1,379.42,223.42Z" transform="translate(-51.98 -48.75)"/><path class="cls-9" d="M334.82,202.41a20.93,20.93,0,0,0,3.3-4.43,51,51,0,0,1,7.95-9.14,5.65,5.65,0,0,1,2.29-1.16,6,6,0,0,1,2.28,2.31q3.28,4.81,6.47,9.7c1,1.6.83,2.58-.54,4a21.51,21.51,0,0,0-5.8,11.85c-.29,1.75.18,2.35,1.79,3.1a27.08,27.08,0,0,0,7.08,1.85c.1,5.11-.75,10.16-1.23,15.23q-1.05,11-1.57,22c-5.89-2-11.83-3.81-17.28-7-6.15-3.58-10-8.6-10.72-15.76a63.08,63.08,0,0,1,2.44-24.54C332.12,207.58,333.63,205.06,334.82,202.41Z" transform="translate(-51.98 -48.75)"/><path class="cls-10" d="M355.56,257.33q.51-11,1.56-22c.49-5.07,1.34-10.11,1.23-15.23l5.33.32a.94.94,0,0,1,1,.89,18.25,18.25,0,0,1,.2,3.54,57.26,57.26,0,0,0-.17,6.68c-.39,6.25-.75,12.51-1.21,18.75a33.07,33.07,0,0,1-.78,6.11c-.53,2.06-.87,2.28-2.92,1.9A21.33,21.33,0,0,1,355.56,257.33Z" transform="translate(-51.98 -48.75)"/></g></svg>