<svg xmlns="http://www.w3.org/2000/svg" viewBox="0 0 5384.29 1989.26"><defs><style>.cls-1{isolation:isolate;}.cls-2{fill:#e4f0ff;}.cls-3{fill:#f9b5b2;}.cls-4{fill:#07085b;}.cls-5,.cls-6{fill:#57ace5;}.cls-15,.cls-31,.cls-6,.cls-9{opacity:0.3;}.cls-14,.cls-15,.cls-25,.cls-31,.cls-34,.cls-6{mix-blend-mode:multiply;}.cls-7{fill:#026eaf;}.cls-8{fill:#02ccc0;}.cls-10{fill:#fff;}.cls-11{fill:#142666;}.cls-12{fill:#70c0fd;}.cls-13{fill:#4188e4;}.cls-14,.cls-25,.cls-32{fill:#97cef7;}.cls-15{fill:#e87b50;}.cls-16{fill:#0a9;}.cls-17{fill:#f4a640;}.cls-18{fill:#202121;}.cls-19{fill:#333;}.cls-20{fill:#183658;}.cls-21{fill:#fee4cb;}.cls-22{fill:#ffc0bb;}.cls-23,.cls-31{fill:#f99893;}.cls-24{fill:#09083c;}.cls-25,.cls-34{opacity:0.5;}.cls-26{fill:#81caef;}.cls-27{fill:#ef5488;}.cls-28{fill:#ea426e;}.cls-29{fill:#f76390;}.cls-30{fill:#daeef7;}.cls-33{fill:#feb546;}.cls-34{fill:#e0a689;}.cls-35{fill:#c9eafd;}</style></defs><title>6663</title><g class="cls-1"><g id="Layer_1" data-name="Layer 1"><path class="cls-2" d="M323,1999S-35.57,1784.11,150.6,1176.64,242.07,8.06,1192.67,31.45s1094.79,349.29,1596.47,348,886.67-35.32,1327.24-3.65C4668,415.45,5273.5,730.55,5425.25,1125.45s-52.75,866.49-52.75,866.49Z" transform="translate(-97 -30.74)"/><path class="cls-3" d="M4928.49,1380.85l-5.72,52.4s21.1,2.64,30.33,5.29,35.3-48.84,35.3-48.84-27.83-11.93-29.15-11.93S4928.49,1380.85,4928.49,1380.85Z" transform="translate(-97 -30.74)"/><polygon class="cls-4" points="5131.86 1592.46 5157.73 1962.26 5144.8 1962.26 5103.83 1596.47 5131.86 1592.46"/><polygon class="cls-4" points="4860.1 1592.46 4834.22 1962.26 4847.16 1962.26 4888.13 1596.47 4860.1 1592.46"/><path class="cls-5" d="M5341.77,1223.15s-206.83-6.13-220.21-5.18-25.76,44-25.76,44-60.42,224.14-59.21,230.3-56.36,150.6-56.36,150.6,49.65-1.32,51.85,0,192-16.29,194.67-18,12.3-34.79,12.75-36.55,14.94-130.35,14.94-130.35l7.47-70.89s28.56-60.83,29-61,26.81-53.48,28.56-56.12,29-32.14,29.88-34.79S5341.77,1223.15,5341.77,1223.15Z" transform="translate(-97 -30.74)"/><path class="cls-6" d="M5341.77,1223.15s-71.31-2.12-132.89-3.67c23.93,14.09,37.35,53.48,27.39,123.55-8.46,59.56-17.87,124.18-55.37,201.69-19.31,39.91-102.47,17.56-170.63,21.51-14.69,38.11-30,76.64-30,76.64s49.65-1.32,51.85,0,192-16.29,194.67-18,12.3-34.79,12.75-36.55,14.94-130.35,14.94-130.35l7.47-70.89s28.56-60.83,29-61,26.8-53.48,28.56-56.12,29-32.14,29.88-34.79S5341.77,1223.15,5341.77,1223.15Z" transform="translate(-97 -30.74)"/><path class="cls-7" d="M4942.44,1650.77h0a12.86,12.86,0,0,1,11.94-13.65c22.1-1.5,69.9-4.92,119.06-9.58,94.23-8.94,128.29-16.26,140.49-20.08a12.72,12.72,0,0,0,8.52-9c3.3-13.17,5.24-40.51,6.87-63.37,6.15-86.79,16.3-229.89,105.46-308.46a12.84,12.84,0,0,1,18.65,1.86h0a12.85,12.85,0,0,1-1.67,17.47c-81.23,71.33-90.55,202.86-96.8,290.95-3.56,50.22-5.76,74.87-16.73,86.34-5.29,5.53-15.14,15.82-158.4,29.59-50.83,4.88-100.86,8.46-123.71,10A12.84,12.84,0,0,1,4942.44,1650.77Zm277.82-45.92Z" transform="translate(-97 -30.74)"/><path class="cls-8" d="M4948.63,1468.48s5.66-199,16.17-221.94,47.69-27.3,47.69-27.3,96.95-14.4,122.14,9.41c1.88,1.78,45.7,59.95,38.7,335.83,0,0-83.25-45.8-224.7-69.28Z" transform="translate(-97 -30.74)"/><g class="cls-9"><polygon class="cls-10" points="3159.02 901.64 3521.72 901.64 3688.32 533.61 3325.62 533.61 3159.02 901.64"/><polygon class="cls-10" points="3743.62 533.61 3577.03 901.64 3939.73 901.64 4106.32 533.61 3743.62 533.61"/><polygon class="cls-10" points="2975.74 1306.54 3338.44 1306.54 3505.03 938.51 3142.33 938.51 2975.74 1306.54"/><polygon class="cls-10" points="3393.74 1306.54 3756.44 1306.54 3923.03 938.51 3560.33 938.51 3393.74 1306.54"/></g><rect class="cls-11" x="2471.64" y="675.65" width="47.02" height="190.6"/><rect class="cls-12" x="2914.58" y="780.92" width="37.44" height="190.21" transform="translate(3712.33 -2088.02) rotate(90)"/><rect class="cls-11" x="2939.88" y="743.35" width="37.44" height="190.21" transform="translate(3700.07 -2150.89) rotate(90)"/><rect class="cls-10" x="2900.52" y="706.73" width="37.44" height="190.21" transform="translate(3624.08 -2148.15) rotate(90)"/><rect class="cls-10" x="2524.95" y="598.87" width="48.08" height="264.56"/><rect class="cls-12" x="2421.77" y="628.03" width="44.28" height="235.4"/><polygon class="cls-12" points="2715.91 841.77 2676.11 861.24 2573.06 649.7 2612.85 630.23 2715.91 841.77"/><rect class="cls-13" x="2386.63" y="862.1" width="760.55" height="21.53"/><rect class="cls-11" x="4202.35" y="712.82" width="41.76" height="169.29"/><rect class="cls-10" x="4472.34" y="809.76" width="33.26" height="168.94" transform="translate(5286.21 -3625.48) rotate(90)"/><rect class="cls-14" x="4494.82" y="776.39" width="33.26" height="168.94" transform="translate(5275.32 -3681.32) rotate(90)"/><rect class="cls-11" x="4472.34" y="743.86" width="33.26" height="168.94" transform="translate(5220.31 -3691.38) rotate(90)"/><rect class="cls-12" x="4249.69" y="644.63" width="42.7" height="234.98"/><rect class="cls-10" x="4158.05" y="670.53" width="39.33" height="209.08"/><rect class="cls-11" x="4572.08" y="712.82" width="41.76" height="169.29"/><rect class="cls-12" x="4619.43" y="644.63" width="42.7" height="234.98"/><rect class="cls-10" x="4527.79" y="670.53" width="39.33" height="209.08"/><polygon class="cls-10" points="4789.04 860.37 4753.7 877.66 4662.16 689.77 4697.51 672.48 4789.04 860.37"/><rect class="cls-13" x="4126.84" y="878.42" width="675.52" height="19.13"/><path class="cls-10" d="M4887.67,1994l100.84-46.72a3,3,0,0,0,1.44-4l-2.58-5.59a3,3,0,0,0-3.93-1.45L4882.6,1983a3,3,0,0,0-1.45,4l2.58,5.59A3,3,0,0,0,4887.67,1994Z" transform="translate(-97 -30.74)"/><path class="cls-8" d="M4965.86,1903.91l17.62,28.92c2.18,3.57,1.7,7.94-1,9.19l-93.61,43.37c-2.43,1.13-5.55.68-8.18-1.66s-5.05-6.81-3.67-14.84c2.72-15.77,28-31.22,37.12-47.52a3.11,3.11,0,0,1,1.4-1.33l42.68-19.77C4960.67,1899.14,4963.9,1900.68,4965.86,1903.91Z" transform="translate(-97 -30.74)"/><path class="cls-10" d="M4929.44,1935.15h0a2.32,2.32,0,0,0-.62-2.74c-3.77-3.33-14.22-10.86-24.94-3.35a1.9,1.9,0,0,0-.1,2.46l0,0c.54.87,1.42,1.19,2,.77,9.63-6.69,18.66,0,21.77,2.85C4928.25,1935.78,4929,1935.77,4929.44,1935.15Z" transform="translate(-97 -30.74)"/><path class="cls-10" d="M4921.53,1943.59h0a2.32,2.32,0,0,0-.61-2.74c-3.77-3.33-14.22-10.87-24.95-3.36a1.91,1.91,0,0,0-.09,2.47v0c.54.87,1.43,1.19,2,.77,9.62-6.69,18.66,0,21.76,2.85C4920.34,1944.21,4921.13,1944.2,4921.53,1943.59Z" transform="translate(-97 -30.74)"/><path class="cls-10" d="M4914.18,1951.45h0a2.32,2.32,0,0,0-.61-2.74c-3.77-3.33-14.22-10.87-24.94-3.36a1.91,1.91,0,0,0-.1,2.47l0,0c.53.87,1.42,1.19,2,.77,9.63-6.69,18.66,0,21.76,2.85C4913,1952.07,4913.79,1952.06,4914.18,1951.45Z" transform="translate(-97 -30.74)"/><path class="cls-15" d="M4957,1948.92c-1.89-21.33,5.94-30,12.48-33.47a3.21,3.21,0,0,1,4.22,1.25l9.82,16.13c2.18,3.57,1.7,7.94-1,9.19l-20.93,9.7A3.3,3.3,0,0,1,4957,1948.92Z" transform="translate(-97 -30.74)"/><path class="cls-10" d="M4712,1996.14l107.1-29.58a3,3,0,0,0,2.07-3.66l-1.64-5.94a3,3,0,0,0-3.64-2.07l-107.1,29.58a3,3,0,0,0-2.08,3.66l1.64,5.94A3,3,0,0,0,4712,1996.14Z" transform="translate(-97 -30.74)"/><path class="cls-8" d="M4803.8,1920.07l12.67,31.43c1.56,3.87.38,8.11-2.48,8.9l-99.42,27.46c-2.58.71-5.59-.24-7.8-3s-3.87-7.54-1.2-15.24c5.24-15.11,32.7-26.22,44.36-40.81a3.05,3.05,0,0,1,1.61-1.07l45.32-12.53C4799.45,1914.52,4802.38,1916.57,4803.8,1920.07Z" transform="translate(-97 -30.74)"/><path class="cls-10" d="M4762.77,1944.93h0a2.33,2.33,0,0,0-.16-2.8c-3.18-3.91-12.26-13.05-24.06-7.39a1.9,1.9,0,0,0-.5,2.41v0c.39,1,1.21,1.41,1.87,1.1,10.59-5,18.4,3.08,21,6.37C4761.5,1945.35,4762.28,1945.47,4762.77,1944.93Z" transform="translate(-97 -30.74)"/><path class="cls-10" d="M4753.59,1952h0a2.3,2.3,0,0,0-.16-2.8c-3.17-3.91-12.26-13.05-24.06-7.39a1.9,1.9,0,0,0-.5,2.41l0,0c.38,1,1.21,1.41,1.87,1.1,10.59-5,18.4,3.08,21,6.37C4752.32,1952.38,4753.1,1952.5,4753.59,1952Z" transform="translate(-97 -30.74)"/><path class="cls-10" d="M4745.06,1958.51h0a2.3,2.3,0,0,0-.16-2.8c-3.17-3.91-12.25-13-24.06-7.39a1.9,1.9,0,0,0-.5,2.41l0,0c.38,1,1.21,1.41,1.87,1.1,10.59-5,18.4,3.08,21,6.37C4743.79,1958.94,4744.57,1959.06,4745.06,1958.51Z" transform="translate(-97 -30.74)"/><path class="cls-15" d="M4787.68,1963c1.61-21.35,10.74-28.59,17.76-31a3.2,3.2,0,0,1,4,1.93l7.07,17.53c1.56,3.87.38,8.11-2.48,8.9l-22.24,6.14A3.29,3.29,0,0,1,4787.68,1963Z" transform="translate(-97 -30.74)"/><path class="cls-16" d="M4971.22,1389.7c1.81-15.8,3.41-30.28,3.41-32.19,0-4.4-12-111-12-111s-29.45,64.3-36.46,136.51C4935.16,1387.56,4949.78,1392.15,4971.22,1389.7Z" transform="translate(-97 -30.74)"/><path class="cls-17" d="M4964.73,1432.53l1.4.72s.13-1.09.36-3Z" transform="translate(-97 -30.74)"/><path class="cls-18" d="M4966.13,1495.2s-241.4,27-254.29,109.2,38.09,324.43,38.09,324.43,40.43-2.67,55.66-12.07c0,0-15.23-270.08,7-287.7s144.14-59.89,146.48-64.58S4966.13,1495.2,4966.13,1495.2Z" transform="translate(-97 -30.74)"/><path class="cls-19" d="M4966.13,1495.2s-160.54,88.07-160.54,139.73,62.11,244.26,107.81,286.53c0,0,28.12-4.7,52.73-17.61l-55.08-248.95S5156,1622,5171.2,1564.48L5111,1501.07Z" transform="translate(-97 -30.74)"/><rect class="cls-20" x="4324.23" y="1464.45" width="18.16" height="497.31"/><rect class="cls-20" x="4495.61" y="1464.45" width="18.16" height="497.31"/><rect class="cls-20" x="5013.99" y="1464.45" width="18.16" height="497.31"/><rect class="cls-20" x="5185.37" y="1464.45" width="18.16" height="497.31"/><rect class="cls-21" x="4275.6" y="1438.62" width="979.07" height="31.71" rx="8"/><path class="cls-22" d="M5065.74,1179.71v49.7a7.12,7.12,0,0,1-4.07,6.45c-7.59,3.56-24.54,9.4-40.37.1a7,7,0,0,1-3.4-6.09V1185Z" transform="translate(-97 -30.74)"/><path class="cls-23" d="M5065.74,1206.33v-26.62L5017.9,1185v22.59C5026.88,1210.28,5043.58,1213,5065.74,1206.33Z" transform="translate(-97 -30.74)"/><path class="cls-23" d="M4987.35,1126.23c2.59,7.88-.41,16-6.7,18s-13.49-2.63-16.08-10.51.41-16,6.7-18S4984.76,1118.35,4987.35,1126.23Z" transform="translate(-97 -30.74)"/><path class="cls-22" d="M4986.46,1171.22a63.59,63.59,0,0,1-4.08-10.82,119.25,119.25,0,0,1-4.37-29.89c-.05-2-.22-3.94-.43-5.9a64.05,64.05,0,1,1,127.58-2.32,13.81,13.81,0,0,1,12.5-.11c7.34,3.92,9.34,14.55,4.46,23.76s-14.81,13.49-22.16,9.57a12.11,12.11,0,0,1-2.73-2c-5.34,31.13-32.63,53.55-63.34,50.92a57.37,57.37,0,0,1-37.77-18.91,26,26,0,0,1-2-2.18A56,56,0,0,1,4986.46,1171.22Z" transform="translate(-97 -30.74)"/><path class="cls-19" d="M5047.41,1123.89a5.59,5.59,0,1,0,6.05-5.1A5.61,5.61,0,0,0,5047.41,1123.89Z" transform="translate(-97 -30.74)"/><path class="cls-19" d="M4999.31,1122.94a5.59,5.59,0,1,0,6-5.11A5.59,5.59,0,0,0,4999.31,1122.94Z" transform="translate(-97 -30.74)"/><path class="cls-19" d="M5041.63,1112.25a52.74,52.74,0,0,1,8.17-2,27.8,27.8,0,0,1,7.83-.08,25.37,25.37,0,0,1,7.47,2.16l.94.38c.31.13.59.33.9.48l1.84,1c1.23.67,2.37,1.51,3.75,2.17a25,25,0,0,0-2.48-3.71,20.27,20.27,0,0,0-3.34-3.06,18.17,18.17,0,0,0-8.56-3.43,19,19,0,0,0-9.15,1A17.5,17.5,0,0,0,5041.63,1112.25Z" transform="translate(-97 -30.74)"/><polygon class="cls-4" points="4031.86 1592.46 4057.73 1962.26 4044.8 1962.26 4003.83 1596.47 4031.86 1592.46"/><polygon class="cls-4" points="3760.1 1592.46 3734.22 1962.26 3747.16 1962.26 3788.13 1596.47 3760.1 1592.46"/><path class="cls-5" d="M4241.77,1223.15s-206.83-6.13-220.21-5.18-25.76,44-25.76,44-60.42,224.14-59.21,230.3-56.36,150.6-56.36,150.6,49.65-1.32,51.85,0,192-16.29,194.67-18,12.3-34.79,12.75-36.55,14.94-130.35,14.94-130.35l7.47-70.89s28.56-60.83,29-61,26.81-53.48,28.56-56.12,29-32.14,29.88-34.79S4241.77,1223.15,4241.77,1223.15Z" transform="translate(-97 -30.74)"/><path class="cls-6" d="M4241.77,1223.15s-71.31-2.12-132.89-3.67c23.93,14.09,37.35,53.48,27.39,123.55-8.46,59.56-17.87,124.18-55.37,201.69-19.31,39.91-102.47,17.56-170.63,21.51-14.69,38.11-30,76.64-30,76.64s49.65-1.32,51.85,0,192-16.29,194.67-18,12.3-34.79,12.75-36.55,14.94-130.35,14.94-130.35l7.47-70.89s28.56-60.83,29-61,26.8-53.48,28.56-56.12,29-32.14,29.88-34.79S4241.77,1223.15,4241.77,1223.15Z" transform="translate(-97 -30.74)"/><path class="cls-7" d="M3842.44,1650.77h0a12.86,12.86,0,0,1,11.94-13.65c22.1-1.5,69.9-4.92,119.06-9.58,94.23-8.94,128.29-16.26,140.49-20.08a12.72,12.72,0,0,0,8.52-9c3.3-13.17,5.24-40.51,6.87-63.37,6.15-86.79,16.3-229.89,105.46-308.46a12.84,12.84,0,0,1,18.65,1.86h0a12.85,12.85,0,0,1-1.67,17.47c-81.23,71.33-90.55,202.86-96.8,290.95-3.56,50.22-5.76,74.87-16.73,86.34-5.29,5.53-15.13,15.82-158.4,29.59-50.83,4.88-100.86,8.46-123.71,10A12.84,12.84,0,0,1,3842.44,1650.77Zm277.82-45.92Z" transform="translate(-97 -30.74)"/><path class="cls-19" d="M5019.12,1111.47a17.6,17.6,0,0,0-7-5.54,18.76,18.76,0,0,0-9.06-1.66,18,18,0,0,0-8.77,2.83,19.92,19.92,0,0,0-3.55,2.82,24.78,24.78,0,0,0-2.72,3.53c1.42-.57,2.61-1.32,3.89-1.91l1.9-.83c.32-.13.61-.3.93-.41l1-.32a25.26,25.26,0,0,1,7.61-1.64,27.18,27.18,0,0,1,7.79.62A51.92,51.92,0,0,1,5019.12,1111.47Z" transform="translate(-97 -30.74)"/><path class="cls-23" d="M5029.64,1117.23a79.13,79.13,0,0,0-6.22,8.78,76.34,76.34,0,0,0-5.09,9.54,29,29,0,0,0-1.73,5.29,10.28,10.28,0,0,0-.16,1.5c0,.26,0,.56.05.83a4.32,4.32,0,0,0,.27.92c.09.16.18.32.28.47l.24.28c.17.18.32.37.5.54.35.32.69.66,1.06.94a25.28,25.28,0,0,0,4.64,2.93,35,35,0,0,0,5,2.07A59,59,0,0,1,5020,1145a12.34,12.34,0,0,1-.86-.92l-.38-.47-.18-.23a.34.34,0,0,0,0-.12,4.07,4.07,0,0,1,.12-2,28.74,28.74,0,0,1,1.71-4.83c1.37-3.23,3-6.39,4.56-9.58S5028.12,1120.49,5029.64,1117.23Z" transform="translate(-97 -30.74)"/><path class="cls-19" d="M5089.39,1040.63s-17.64-16.42-59-15.07-49.88,23.39-53.23,55.11l-.06,34.88s12.35-8,27.29-39.22c0,0,22.24,27.49,32.39,24.61s-3.08-22.59-3.08-22.59,43.68,43.6,71.39,44.35c0,0,18.24-48.91-1.77-67.5,0,0,15.48,1.22,16.4-1.91s-7.14-8.09-22.1-6.75c0,0,11.3-21.17,5.44-23.58S5089.39,1040.63,5089.39,1040.63Z" transform="translate(-97 -30.74)"/><path class="cls-10" d="M5011.14,1163c1.79,6.78,9.82,11.85,19.4,11.76s17.52-5.31,19.18-12.13Z" transform="translate(-97 -30.74)"/><path class="cls-24" d="M652.66,591.74H1877.07a12.52,12.52,0,0,1,12.52,12.52V1352a24,24,0,0,1-24,24H652.66a24,24,0,0,1-24-24V615.74A24,24,0,0,1,652.66,591.74Z"/><rect class="cls-12" x="650.78" y="621.88" width="1216.06" height="723.98" rx="4.89"/><path class="cls-25" d="M1963.84,738.82V661c0-4.62-3.12-8.37-7-8.37H754.74c-3.85,0-7,3.75-7,8.37v489.53Z" transform="translate(-97 -30.74)"/><polygon class="cls-22" points="652.38 959.3 652.51 969.22 653.63 993.88 605.09 987.49 599.8 980.3 599.38 961.56 597.78 944.01 630.05 944.01 652.38 959.3"/><path class="cls-22" d="M794.13,1591.38a70.74,70.74,0,0,1,0,24.87c-2.43,14-65.38,345.75-65.38,345.75l33.23,4.85s108.42-308.14,114.47-328.77,12.71-49.74-7.87-72.18S794.13,1591.38,794.13,1591.38Z" transform="translate(-97 -30.74)"/><path class="cls-22" d="M811.62,1971.59l-39.76-48-39.75,16.52,10,13.76,43.3,21.78s18.51,3.72,19.47,3.45S811.62,1971.59,811.62,1971.59Z" transform="translate(-97 -30.74)"/><path class="cls-4" d="M811.62,1971.59l8.61,10.8a6.37,6.37,0,0,1-6.93,10.07l-83.42-27.73a5.63,5.63,0,0,1-3.56-7.11l5.79-17.49C781.8,1976.32,802.77,1977.31,811.62,1971.59Z" transform="translate(-97 -30.74)"/><path class="cls-4" d="M674.13,856.88s-20.76-13.62-44.39,0-23.62,59.53-14.31,70.52-.48,25.87,18.13,40.21,48.25,19.61,65.17,2.85,4.51-54.14,4.51-54.14Z" transform="translate(-97 -30.74)"/><path class="cls-22" d="M755.52,1973.86l-45.68-28.54-39.67,23.77,13.77,9.92,47.95,7s18.73-2.31,19.56-2.86S755.52,1973.86,755.52,1973.86Z" transform="translate(-97 -30.74)"/><path class="cls-22" d="M645.34,1559.92s6.54,158.11,7.14,185.41,14.53,229.89,20.58,247.48l33.9-2.42s23.12-392.26,15.86-430.47S645.34,1559.92,645.34,1559.92Z" transform="translate(-97 -30.74)"/><path class="cls-22" d="M572.69,1430.77c-11.68-2.41-14.6,5.13-26.41,2.67l2.78,18.25c-1.59,3.55-5.13,13-5.13,13-13.15,38.19-12.43,34.08-11.12,34.79s11.19-13.42,12.31-12.1-5.65,24-3.64,23.44,10.82-20.82,12-20.06-5.72,22.59-2.75,23.35,9.68-23.4,11.79-21.84-5.39,26.16-2.57,26.42c2.37.22,11.43-27.08,14.26-35.78a1.48,1.48,0,0,1,2.57-.45c11.33,14.18,13,14.62,14.3,13,.91-1.14-4.93-16.58-9.56-31.34l-6.16-18Z" transform="translate(-97 -30.74)"/><path class="cls-4" d="M755.52,1973.86l11.57,7.54a6.37,6.37,0,0,1-3.42,11.74H675.78a5.62,5.62,0,0,1-5.61-5.62v-18.43C728.7,1987.76,748.92,1982.08,755.52,1973.86Z" transform="translate(-97 -30.74)"/><path class="cls-22" d="M1036.9,1009.57a1.41,1.41,0,0,0,2.37.73c6.16-6.14,25.65-25.34,27.56-24.13,2.28,1.44-14.72,19-13.61,21.27s17.26-15.32,19.45-13.38-13.08,17.46-12.44,18.6,16.85-12.17,18.81-11.81-13.6,16.69-13.22,18.29,14.87-6.08,15.67-4.91,1.53,1.81-26.14,28.46l-11.34,10-13.67,3.18-9.65-13.87s7.86-48.87,9.71-49.71S1033.43,992.62,1036.9,1009.57Z" transform="translate(-97 -30.74)"/><path class="cls-24" d="M667.76,1559.92l28.12,104.29c64.94-.07,161.83-6.1,210-38.25,0,0-62.92-293-104.68-366.43l-143.46-7.89s-99.49,138.87-26.85,410.62c0,0,12.42.91,32.24,1.49Z" transform="translate(-97 -30.74)"/><path class="cls-23" d="M790.26,912c-3,8.08-.15,16.56,6.3,18.94s14.09-2.24,17.06-10.32.14-16.56-6.31-18.94S793.22,903.93,790.26,912Z" transform="translate(-97 -30.74)"/><path class="cls-23" d="M694.25,970.31s1.29,10,2.12,22a51.9,51.9,0,0,0,39.5,11.4A51.08,51.08,0,0,0,749.5,1000c-.34-7.85-.22-15.13,1-18.61C753.83,971.76,694.25,970.31,694.25,970.31Z" transform="translate(-97 -30.74)"/><path class="cls-10" d="M797.46,1021l135.91,103.15,87-89.44s26,20.12,26,19.75S964.6,1182.29,944.52,1189s-149.65-83.78-149.65-83.78Z" transform="translate(-97 -30.74)"/><path class="cls-22" d="M789.58,958.71a64.58,64.58,0,0,0,4.61-11.07,123.25,123.25,0,0,0,5.6-30.86c.13-2,.38-4.08.66-6.1a66.48,66.48,0,1,0-132.26-7c-4.24-2.17-8.92-2.54-13-.56-7.76,3.8-10.21,14.76-5.47,24.49s14.88,14.52,22.64,10.72a12.77,12.77,0,0,0,2.91-2c4.43,32.47,32,56.71,63.89,55.08a59.59,59.59,0,0,0,39.86-18.27,28.19,28.19,0,0,0,2.17-2.19A58,58,0,0,0,789.58,958.71Z" transform="translate(-97 -30.74)"/><path class="cls-19" d="M729.8,912.86a6.25,6.25,0,1,1-6.56-5.93A6.27,6.27,0,0,1,729.8,912.86Z" transform="translate(-97 -30.74)"/><path class="cls-19" d="M781.06,912.86a6.25,6.25,0,1,1-6.56-5.93A6.27,6.27,0,0,1,781.06,912.86Z" transform="translate(-97 -30.74)"/><path class="cls-23" d="M748.87,900.93c0,2-.06,4,0,6.05s.17,4,.36,6a42.81,42.81,0,0,0,1,5.89,14.56,14.56,0,0,0,2.24,5.33c.15.17.28.38.44.53l.51.52a6.16,6.16,0,0,1,.56.58,7.68,7.68,0,0,1,.5.63,6.79,6.79,0,0,1,1.23,3,7.43,7.43,0,0,1-2,5.95,12.3,12.3,0,0,1-5.15,3.37,18,18,0,0,1-6,1,26.54,26.54,0,0,0,3-.52,17,17,0,0,0,2.82-1,12.47,12.47,0,0,0,4.69-3.42,6.66,6.66,0,0,0,1.58-5.23,6,6,0,0,0-1.08-2.52,5.58,5.58,0,0,0-.44-.55,5.78,5.78,0,0,0-.49-.5l-.56-.56a6.1,6.1,0,0,1-.52-.62,11.55,11.55,0,0,1-1.49-2.79,18.61,18.61,0,0,1-.89-3,38,38,0,0,1-.8-6.07A63.75,63.75,0,0,1,748.87,900.93Z" transform="translate(-97 -30.74)"/><path class="cls-10" d="M815.51,1155.79c.48-.51,21.33-22.8,17.28-64.59-2.2-22.68-13.88-43.39-24.24-57.72a49.66,49.66,0,0,0-39.34-20.58c-28.52-.53-74-1.15-74-1.15s-58.73-6.46-77.35,16.5-81.64,182.29-85.22,258.36,15,165.78,15,165.78,20.77,1.44,30.08,0-2.15-147.12,7.88-170.8,55.14-137.07,58-147.84l11.17,59.37A61.36,61.36,0,0,1,652,1225.8c-9.48,25.6-27.79,74.8-35.16,93,0,0,141,22.73,210.46-11.71l-.64-2.68A476,476,0,0,1,815.51,1155.79Z" transform="translate(-97 -30.74)"/><path class="cls-4" d="M735.05,902.43a38.69,38.69,0,0,0-8.79-3.38,27.74,27.74,0,0,0-9.1-.7,23.61,23.61,0,0,0-4.48.85c-.74.19-1.45.46-2.17.71-.37.13-.71.3-1.07.44s-.71.28-1.06.46a46.94,46.94,0,0,0-8,5,25,25,0,0,1,7.16-6.57,22.2,22.2,0,0,1,9.38-3.15,22.78,22.78,0,0,1,9.81,1.26,25.75,25.75,0,0,1,4.44,2.09A19.89,19.89,0,0,1,735.05,902.43Z" transform="translate(-97 -30.74)"/><path class="cls-4" d="M760.21,902.43a19.89,19.89,0,0,1,3.86-3,25.75,25.75,0,0,1,4.44-2.09,22.78,22.78,0,0,1,9.81-1.26,22.08,22.08,0,0,1,9.38,3.15,25.18,25.18,0,0,1,7.17,6.57,47,47,0,0,0-8-5,10,10,0,0,0-1.06-.46c-.36-.14-.7-.31-1.07-.44-.72-.25-1.43-.52-2.17-.71a23.66,23.66,0,0,0-4.47-.85,27.8,27.8,0,0,0-9.11.7A38.69,38.69,0,0,0,760.21,902.43Z" transform="translate(-97 -30.74)"/><path class="cls-22" d="M684.15,1011s44.86,57,54.4,77.53c0,0,26.33-34.63,27.49-75.9Z" transform="translate(-97 -30.74)"/><path class="cls-26" d="M738.55,1088.57c1.21,19.76,2,39.54,2.41,59.33.27,9.9.34,19.79.47,29.69s.05,19.8,0,29.7c0,5-.1,9.9-.21,14.85s-.16,9.9-.31,14.85c-.35,9.89-.62,19.79-1.2,29.68-1,19.77-2.55,39.55-5.41,59.15l.5-7.41.56-7.39c.29-4.94.5-9.88.75-14.82l.2-3.7.14-3.7.27-7.41L737,1274l.19-7.41c.57-19.76.86-39.54,1-59.31s.24-39.55.28-59.33Z" transform="translate(-97 -30.74)"/><path class="cls-26" d="M648.48,1115c-.29,1.6-.52,3.2-.85,4.79s-.65,3.17-1.06,4.74a64.41,64.41,0,0,1-3,9.23,80.05,80.05,0,0,0,2.19-9.4c.6-3.16,1-6.35,1.44-9.53.76-6.38,1.16-12.8,1.34-19.22l.12-4.82,0-4.82c.06-3.22-.16-6.43-.2-9.65,0-1.61-.17-3.22-.24-4.82l-.24-4.83c-.2-3.22-.49-6.43-.66-9.66.54,3.19,1,6.39,1.45,9.59s.72,6.42.94,9.65l.3,4.84c.11,1.62.15,3.23.18,4.85l.08,4.86Z" transform="translate(-97 -30.74)"/><path class="cls-4" d="M796.67,850.83C784.38,808.5,728.27,807,728.27,807c-86.78,6-73.12,82.31-70.25,94.93,2.51-.58,6-.51,10.17,1.78a23.78,23.78,0,0,1,4.36,3c10.22-3.13,13.31-20.13,18.6-28.33C698.33,867.27,730,873,742,865.11A29.63,29.63,0,0,0,755.21,845c46.29,7.35,45.57,56.37,45.57,56.37a17.22,17.22,0,0,1,4.48-.23S807.65,888.64,796.67,850.83Z" transform="translate(-97 -30.74)"/><path class="cls-10" d="M765.89,947.13c-1.58,6.5-9.14,11.49-18.29,11.59s-16.83-4.72-18.55-11.19Z" transform="translate(-97 -30.74)"/><ellipse class="cls-24" cx="1114.01" cy="293.61" rx="199.24" ry="199.65"/><ellipse class="cls-10" cx="1114.02" cy="293.61" rx="170.6" ry="170.95"/><rect class="cls-24" x="1056.57" y="291.97" width="4.84" height="62.89" transform="translate(638.58 1351.66) rotate(-90)"/><rect class="cls-24" x="1361" y="291.97" width="4.84" height="62.89" transform="translate(943.02 1656.09) rotate(-90)"/><rect class="cls-24" x="1111.33" y="111.05" width="4.83" height="63.02"/><rect class="cls-24" x="1111.33" y="414.9" width="4.83" height="63.02"/><path class="cls-24" d="M1216.22,324.35a5.21,5.21,0,1,1-5.21-5.21A5.21,5.21,0,0,1,1216.22,324.35Z" transform="translate(-97 -30.74)"/><path class="cls-24" d="M1211,326.69a2.32,2.32,0,0,1-1.65-.69l-93.54-93.74a2.33,2.33,0,0,1,3.29-3.29l93.55,93.74a2.34,2.34,0,0,1,0,3.29A2.32,2.32,0,0,1,1211,326.69Z" transform="translate(-97 -30.74)"/><path class="cls-24" d="M1241.09,419.09a1.72,1.72,0,0,1-.85-1L1210,326.58a1.69,1.69,0,1,1,3.21-1.06L1243.46,417a1.7,1.7,0,0,1-2.37,2Z" transform="translate(-97 -30.74)"/><path class="cls-22" d="M5067.16,1289.11l.06-.2Z" transform="translate(-97 -30.74)"/><path class="cls-22" d="M5068.44,1284.75a2.76,2.76,0,0,1,.08-.27A2.76,2.76,0,0,0,5068.44,1284.75Z" transform="translate(-97 -30.74)"/><path class="cls-22" d="M5069.68,1280.48s0-.1,0-.15S5069.69,1280.43,5069.68,1280.48Z" transform="translate(-97 -30.74)"/><path class="cls-22" d="M5071.91,1272.72l0-.13Z" transform="translate(-97 -30.74)"/><path class="cls-22" d="M5074.69,1262.88l.09-.31Z" transform="translate(-97 -30.74)"/><path class="cls-22" d="M5108.26,1423.5c-45.36-1.82-77.27-32.78-77.27-32.78h0c-1.49,2.37-2.85,4-4.05,4.66-14.06,7.93-191.91,46-209.49,44.48s-34.12,16-37.64,29.5h298.11S5109.22,1421.79,5108.26,1423.5Z" transform="translate(-97 -30.74)"/><path class="cls-22" d="M5073.85,1265.88l.06-.21Z" transform="translate(-97 -30.74)"/><path class="cls-22" d="M5072.88,1269.32l.12-.44Z" transform="translate(-97 -30.74)"/><path class="cls-16" d="M5087.76,1238.78a51.88,51.88,0,0,0-13.08,23c-7.6,27.25-34,106.81-47.32,128,0,0,35.56,35.78,80.92,37.61,15.83-28.09,31.77-68.15,35.12-107.07C5149.33,1251.38,5117.21,1209.4,5087.76,1238.78Z" transform="translate(-97 -30.74)"/><path class="cls-13" d="M3148.36,767.77c-.71-6.22-1.54-12.59-4.43-18.14-3.51-6.75-9.69-11.63-15.08-17a94.26,94.26,0,0,1-22.48-35.83c-3.6-10.4-5.39-21.47-10.35-31.29-3-6-7.16-11.36-10.6-17.12-8.12-13.64-12.55-29.75-23.57-41.16A49.48,49.48,0,0,0,3073,646.36c2.72,3.17,5.87,6,7.93,9.65,3.76,6.57,3.42,14.6,3.86,22.16a97.28,97.28,0,0,0,11.64,40.75c7.23,13.28,17.67,25.1,21.53,39.73,2.9,11,2,23.25,8.22,32.75a8.37,8.37,0,0,1,1.6,3.28,7.54,7.54,0,0,1-.12,2.06l-.42,2.64c-1.4,9-2.86,20.38,4.85,27.1,5.34,4.65,12.22,4.75,16-1.43s3.52-15.33,3.24-22.33C3150.92,791.06,3149.67,779.37,3148.36,767.77Z" transform="translate(-97 -30.74)"/><path class="cls-12" d="M3162.24,760.56c-3-10.38-7.65-20.27-10-30.82-2.27-10.24-2.28-20.82-2.29-31.31l0-34.46c0-7.15,0-14.35-1.19-21.4-2.54-15.18-10.43-29.21-11.77-44.54-.57-6.63.1-13.33-.63-19.94a31.43,31.43,0,0,0-3.14-11,4.89,4.89,0,0,0-8.78.24c-3.83,8.31-6.26,17.28-4.71,26.17.92,5.34,3.24,10.31,5,15.44,7.68,22.86,3.6,48.16,9.55,71.53,1.79,7,4.51,14,4.82,21.24.76,17.41-12.24,33.31-11.05,50.69,1,14.25,11.22,26,15.52,39.66,2.41,7.63,2.93,15.76,5.51,23.33,2,5.88,6.66,13,13.9,11.24,6.87-1.7,4.79-7.31,4.49-12.67C3166.38,795.85,3167.35,778.27,3162.24,760.56Z" transform="translate(-97 -30.74)"/><path class="cls-13" d="M3178,770.07c-.3-5.39-1.21-10.82-.46-16.17.64-4.51,2.44-8.77,3.72-13.15,2.41-8.21,3-16.82,3.59-25.35l3.18-46.52c1.64-24.11,3.3-48.28,7.81-72,1.25-6.59,2.65-13.73-.31-19.75-.62-1.27-1.85-2.61-3.2-2.19-1,.3-1.43,1.36-1.78,2.3C3180.67,604,3177,632.83,3166,659.15c-2.63,6.31-5.7,12.51-7.06,19.21-1.64,8-.74,16.35-.53,24.56a116,116,0,0,1-4.09,34.94c-1.7,5.92-4,11.7-4.91,17.79-1.16,7.6-.19,15.33.54,23a353.33,353.33,0,0,1,1.42,44.25c-.27,8.68,7.06,8.45,11.91,3.12,3.39-3.73,3.36-7.82,4.52-12.46C3171.57,798.29,3178.9,786.59,3178,770.07Z" transform="translate(-97 -30.74)"/><path class="cls-12" d="M3132.21,793.6c-6.48-10.4-19.38-16.32-23.52-27.86-1.05-2.94-1.47-6.1-2.75-8.94-2.86-6.31-9.36-9.88-15.75-12.78a1.35,1.35,0,0,0-1.91,1.21h0a4.64,4.64,0,0,0,2,3.9,26,26,0,0,1,10.33,14.08c2,6.77,1.12,14.18,3.57,20.79,2.06,5.54,6.3,10.08,8.29,15.65,1.82,5.09,1.63,10.65,2.48,16s3.23,11,8.13,13.27C3140.83,837.08,3136.39,800.33,3132.21,793.6Z" transform="translate(-97 -30.74)"/><path class="cls-13" d="M3206,790.17c-.28,5,.49,10.31-1.48,14.94-1.26,3-3.52,5.37-5.38,8-6.53,9.24-8.9,22.32-18.94,27.52a3.41,3.41,0,0,1-2.13.52A3.3,3.3,0,0,1,3176,839c-2.46-5.73.3-12.19,1.94-18.21a4.44,4.44,0,0,0,0-3.19c-.55-1.07-1.81-1.53-2.67-2.37-1.71-1.67-1.55-4.43-1.21-6.8a154.5,154.5,0,0,1,3.58-17.57,30.67,30.67,0,0,1,3.76-9.4c2.08-3.1,5.1-5.41,7.93-7.84a94,94,0,0,0,27.42-40.49c1.16-3.38,2.2-6.94,4.59-9.59s6.67-4,9.59-1.95c2.07,1.46-6.43,15.14-7.42,16.78-2.84,4.68-2.87,8.76-4.48,14C3215.08,765.09,3206.75,776.5,3206,790.17Z" transform="translate(-97 -30.74)"/><path class="cls-12" d="M3196.11,796c1.85-4.8,3.73-9.66,4.34-14.78.68-5.68-.22-11.49.75-17.13,1.24-7.25,5.47-13.62,7.56-20.67,1.51-5.1,1.89-10.45,2.79-15.68,2.6-15,9.64-29.59,7.62-44.65-.44-3.28-1.92-7.09-5.17-7.65-2.94-.51-5.62,2.18-6.39,5.07s-.19,6,0,8.93a36.9,36.9,0,0,1-6.6,23.63c-4.62,6.54-11.33,11.47-15.49,18.31-5.1,8.4-5.8,18.65-8.4,28.13-5.18,18.85-18.17,35.29-20.53,54.7-.94,7.72.87,17.11,8,20.19C3185.22,843.31,3191.44,808.06,3196.11,796Z" transform="translate(-97 -30.74)"/><path class="cls-10" d="M3160.08,810.17h-47.31a5,5,0,0,0-4.87,6.18l17.24,72.71a5,5,0,0,0,4.87,3.86h56.83a5,5,0,0,0,4.87-3.86L3209,816.35a5,5,0,0,0-4.88-6.18Z" transform="translate(-97 -30.74)"/><path class="cls-19" d="M3852.68,1136.86c10.41-40.6,27-56.69,55.8-71.85,22.07-11.6,48.14-15.34,74.89-6.68,54.53,17.67,68.61,77.45,74.12,108.36,18.78,105.37,106.9,195,74.83,267.1s-182.59,64.39-182.59,64.39l-69-49.75s-6.13-121.14-6.15-131-26.16-9.18-26.16-58.7C3848.39,1219.25,3840.43,1184.6,3852.68,1136.86Z" transform="translate(-97 -30.74)"/><path class="cls-22" d="M3669.86,1285.89a1.54,1.54,0,0,1-2.48,1.1c-7.48-5.84-31.12-24.09-33-22.52-2.28,1.87,18.45,18.68,17.55,21.26s-20.72-14.33-22.84-11.94,16.46,17.2,15.92,18.52-19.85-11-21.94-10.31,16.94,16.28,16.74,18.07-16.91-4.63-17.63-3.25-1.42,2.16,32.07,27.4l13.61,9.37,15.23,1.64,8.64-16.3s-14.94-51.92-17.06-52.6S3671.39,1267.06,3669.86,1285.89Z" transform="translate(-97 -30.74)"/><path class="cls-27" d="M3897.77,1262.1s-116.69,132.38-121.62,133-83.13-91-83.13-91-28,23.34-32.9,31.42c0,0,83.56,139.29,105,147.19s164-126.56,164-126.56Z" transform="translate(-97 -30.74)"/><path class="cls-17" d="M3884.16,1432.53l1.4.72s.13-1.09.36-3Z" transform="translate(-97 -30.74)"/><path class="cls-22" d="M3992.3,1263.37A48.9,48.9,0,0,0,3980,1285c-7.95,28.49-34.46,120.92-45.64,127.22-13.22,7.45-180.42,43.27-197,41.81s-32.08,15-35.39,27.74h280.27s56.07-69.06,62.32-141.76C4050.19,1275.22,4020,1235.75,3992.3,1263.37Z" transform="translate(-97 -30.74)"/><path class="cls-22" d="M3970.84,1209.41v46.72a6.68,6.68,0,0,1-3.83,6.07c-7.13,3.34-23.07,8.83-38,.09a6.63,6.63,0,0,1-3.2-5.73v-42.2Z" transform="translate(-97 -30.74)"/><path class="cls-23" d="M3970.84,1234.43v-25l-45,4.95v21.23C3934.3,1238.15,3950,1240.7,3970.84,1234.43Z" transform="translate(-97 -30.74)"/><path class="cls-22" d="M3896.31,1201.42a59.67,59.67,0,0,1-3.84-10.17,112.41,112.41,0,0,1-4.11-28.1c-.05-1.86-.21-3.7-.4-5.55a60.22,60.22,0,1,1,119.94-2.18,13,13,0,0,1,11.75-.1c6.91,3.68,8.79,13.68,4.19,22.33s-13.91,12.69-20.82,9a11.85,11.85,0,0,1-2.57-1.89c-5,29.26-30.68,50.34-59.55,47.87a54,54,0,0,1-35.51-17.78c-.61-.59-1.24-1.27-1.9-2A52.47,52.47,0,0,1,3896.31,1201.42Z" transform="translate(-97 -30.74)"/><path class="cls-19" d="M3950.62,1164.34a4.84,4.84,0,1,0,5.23-4.42A4.86,4.86,0,0,0,3950.62,1164.34Z" transform="translate(-97 -30.74)"/><path class="cls-19" d="M3909,1163.51a4.84,4.84,0,1,0,5.23-4.42A4.85,4.85,0,0,0,3909,1163.51Z" transform="translate(-97 -30.74)"/><path class="cls-19" d="M3945.63,1154.26a46.61,46.61,0,0,1,7.07-1.69,24,24,0,0,1,6.76-.07,22,22,0,0,1,6.47,1.87l.81.33c.27.12.51.28.78.41l1.59.84c1.07.58,2.06,1.3,3.24,1.88a20.46,20.46,0,0,0-2.14-3.22,16.92,16.92,0,0,0-2.89-2.64,15.74,15.74,0,0,0-7.4-3,16.45,16.45,0,0,0-7.92.89A15.21,15.21,0,0,0,3945.63,1154.26Z" transform="translate(-97 -30.74)"/><path class="cls-19" d="M3926.15,1153.59a15.24,15.24,0,0,0-6.06-4.8,16.33,16.33,0,0,0-7.83-1.43,15.71,15.71,0,0,0-7.6,2.45,17.63,17.63,0,0,0-3.06,2.44,21,21,0,0,0-2.36,3.06c1.23-.5,2.26-1.15,3.37-1.65l1.64-.73c.28-.11.53-.26.81-.36l.83-.27a22.11,22.11,0,0,1,6.58-1.42,23.78,23.78,0,0,1,6.74.54A45.23,45.23,0,0,1,3926.15,1153.59Z" transform="translate(-97 -30.74)"/><path class="cls-23" d="M3935.25,1158.57a69.52,69.52,0,0,0-5.38,7.6,65.82,65.82,0,0,0-4.4,8.26,24.72,24.72,0,0,0-1.5,4.57,9.07,9.07,0,0,0-.14,1.3c0,.23,0,.48,0,.71a3.63,3.63,0,0,0,.24.8,3.38,3.38,0,0,0,.24.41l.21.24c.14.16.28.33.43.47a11.59,11.59,0,0,0,.92.81,22.36,22.36,0,0,0,4,2.54,29.51,29.51,0,0,0,4.32,1.78,50.71,50.71,0,0,1-7.34-5.43c-.27-.25-.5-.53-.74-.8l-.33-.41-.16-.2,0-.1a3.5,3.5,0,0,1,.1-1.75,25.56,25.56,0,0,1,1.48-4.19c1.19-2.79,2.59-5.52,4-8.28S3933.94,1161.39,3935.25,1158.57Z" transform="translate(-97 -30.74)"/><polygon class="cls-22" points="3721.3 1851.99 3724.07 1921.26 3690.79 1921.49 3687.61 1856.07 3721.3 1851.99"/><path class="cls-10" d="M3733.43,1991.78l95.64.65a3.68,3.68,0,0,0,3.75-3.68l0-2.76a3.83,3.83,0,0,0-3.82-3.74l-95.64-.64a3.67,3.67,0,0,0-3.75,3.68l0,2.76A3.81,3.81,0,0,0,3733.43,1991.78Z" transform="translate(-97 -30.74)"/><path class="cls-24" d="M3827.77,1951.34l3.67,28.32c.45,3.49-1.52,6.65-4.13,6.63l-90.95-.62a6.75,6.75,0,0,1-6-4.2c-1.3-2.79-1.59-7,2.44-12.59,8-11.22,34.77-13.79,47.77-23.33l42.37.29C3825.32,1945.85,3827.36,1948.18,3827.77,1951.34Z" transform="translate(-97 -30.74)"/><path class="cls-10" d="M3787.17,1962h0a1.88,1.88,0,0,0,.49-2.31c-1.82-3.89-7.48-13.36-18.82-11.5-.66.11-1.09,1-1,1.84v0c.12.85.71,1.41,1.35,1.31,10.16-1.63,15,6.72,16.45,10A1.06,1.06,0,0,0,3787.17,1962Z" transform="translate(-97 -30.74)"/><path class="cls-10" d="M3777.75,1965.6h0a1.85,1.85,0,0,0,.5-2.3c-1.82-3.89-7.48-13.36-18.82-11.5a1.56,1.56,0,0,0-1,1.84v0c.11.85.71,1.41,1.34,1.31,10.17-1.63,15,6.72,16.46,10A1,1,0,0,0,3777.75,1965.6Z" transform="translate(-97 -30.74)"/><path class="cls-10" d="M3769,1968.94h0a1.88,1.88,0,0,0,.5-2.3c-1.82-3.89-7.49-13.36-18.83-11.5a1.56,1.56,0,0,0-1,1.84v0c.12.86.71,1.42,1.35,1.32,10.16-1.63,15,6.72,16.45,10C3767.82,1969,3768.45,1969.27,3769,1968.94Z" transform="translate(-97 -30.74)"/><path class="cls-15" d="M3803,1986.12c7-22.81,19.3-25.25,26-24.67l2.36,18.21c.45,3.49-1.52,6.65-4.13,6.63Z" transform="translate(-97 -30.74)"/><polygon class="cls-22" points="3564.72 1851.99 3567.49 1918.26 3534.21 1918.49 3531.03 1856.07 3564.72 1851.99"/><path class="cls-10" d="M3576.85,1991.78l95.64.65a3.68,3.68,0,0,0,3.75-3.68l0-2.76a3.83,3.83,0,0,0-3.82-3.74l-95.64-.64a3.67,3.67,0,0,0-3.75,3.68l0,2.76A3.81,3.81,0,0,0,3576.85,1991.78Z" transform="translate(-97 -30.74)"/><path class="cls-24" d="M3671.19,1951.34l3.67,28.32c.45,3.49-1.52,6.65-4.13,6.63l-90.95-.62a6.74,6.74,0,0,1-6-4.2c-1.3-2.79-1.59-7,2.44-12.59,8-11.22,34.77-13.79,47.77-23.33l42.37.29C3668.74,1945.85,3670.78,1948.18,3671.19,1951.34Z" transform="translate(-97 -30.74)"/><path class="cls-10" d="M3630.59,1962h0a1.88,1.88,0,0,0,.49-2.31c-1.82-3.89-7.48-13.36-18.82-11.5-.66.11-1.09,1-1,1.84v0c.12.85.71,1.41,1.34,1.31,10.17-1.63,15,6.72,16.46,10A1.06,1.06,0,0,0,3630.59,1962Z" transform="translate(-97 -30.74)"/><path class="cls-10" d="M3621.17,1965.6h0a1.85,1.85,0,0,0,.5-2.3c-1.82-3.89-7.49-13.36-18.83-11.5a1.57,1.57,0,0,0-1,1.84v0c.11.85.71,1.41,1.34,1.31,10.16-1.63,15,6.72,16.46,10A1,1,0,0,0,3621.17,1965.6Z" transform="translate(-97 -30.74)"/><path class="cls-10" d="M3612.42,1968.94h0a1.86,1.86,0,0,0,.49-2.3c-1.82-3.89-7.48-13.36-18.82-11.5a1.55,1.55,0,0,0-1,1.84v0c.12.86.71,1.42,1.35,1.32,10.16-1.63,15,6.72,16.45,10C3611.24,1969,3611.87,1969.27,3612.42,1968.94Z" transform="translate(-97 -30.74)"/><path class="cls-15" d="M3646.45,1986.12c7-22.81,19.3-25.25,26.05-24.67l2.36,18.21c.45,3.49-1.52,6.65-4.13,6.63Z" transform="translate(-97 -30.74)"/><path class="cls-24" d="M3799.33,1521.1s-165.52.6-191.07,33.87-45,258,0,356.32c0,0,58.24,2,71.53-6.14,0,0-4.09-165.88-2.05-209.9s32.7-50.17,36.79-54.27S3799.33,1521.1,3799.33,1521.1Z" transform="translate(-97 -30.74)"/><path class="cls-24" d="M3818,1762.25c-1.49-13.84-3.42-31.82-5.52-52.16h0c-3.75-40-8.47-63.91-3.46-63.42,39.88,3.86,148.34-15.51,212.41-28,39-7.62,61.29-50.15,44-86a42.35,42.35,0,0,0-7.94-11.58c-29.92-29.88-91.67-20.29-91.6-24.47-349.47,29.17-272.47,89.17-239.7,296.33h0c.19.89.37,1.78.56,2.66h0c14.21,68.5,27.63,124.88,27.63,124.88s51.09,2,80.72-5.12C3835.13,1915.7,3825.89,1834.79,3818,1762.25Z" transform="translate(-97 -30.74)"/><path class="cls-28" d="M4033.61,1255.14c-11.39-10.76-38.38-13.22-63.33-12.87l.56.24c-21.89,24.37-45,2.86-45,2.86h0c-4.45.53-7.07.92-7.07.92s-16.57,7.87-34.46,30.1c-.25.31-19.46,20.85-21.35,45.25-1.35,17.39,21,42.78,21,52.72s-10.29,82-10.29,82l3.89-.49c0,.22,0,.39,0,.49,0,.9-8,2.17-18.11,3.42-.45,12.87-.68,20.88-.68,20.88v25.11c133,22.08,212.64,59.35,212.64,59.35C4078,1305.71,4035.38,1256.82,4033.61,1255.14Z" transform="translate(-97 -30.74)"/><path class="cls-29" d="M3992.3,1263.37A48.9,48.9,0,0,0,3980,1285c-7.95,28.49-34.46,120.92-45.64,127.22-10.51,5.92-118.36,29.78-170.42,38.58,0,0,3.81,15.52,7.23,31h211.12s56.07-69.06,62.32-141.76C4050.19,1275.22,4020,1235.75,3992.3,1263.37Z" transform="translate(-97 -30.74)"/><path class="cls-4" d="M3345.7,1283.47h251.65L3668.7,1458h121.22a6.13,6.13,0,0,1,6.13,6.15h0a6.14,6.14,0,0,1-6.13,6.15H3429.33Z" transform="translate(-97 -30.74)"/><path class="cls-30" d="M3470.48,1383.06c1.49,7.44,7.95,12.42,14.45,11.11s10.56-8.38,9.07-15.82-7.95-12.42-14.45-11.11S3469,1375.63,3470.48,1383.06Z" transform="translate(-97 -30.74)"/><path class="cls-19" d="M3908.37,1085.93s67.59,62.39,99.53,69.49c0,0,4.25-48.37,3.84-50s-40.49-39.74-43-39.33-75.19,10.77-75.19,10.77l-19.93,49.26Z" transform="translate(-97 -30.74)"/><path class="cls-19" d="M3870,1099.18l17.64,50s35.54-25.16,49.23-50-35.47-15.73-35.47-15.73Z" transform="translate(-97 -30.74)"/><path class="cls-31" d="M3950,1196.58a15.37,15.37,0,0,0-12.56,2.59s-6.94-3.7-11.89.65c0,0,3.13,9.75,14,8.31A11.33,11.33,0,0,0,3950,1196.58Z" transform="translate(-97 -30.74)"/><path class="cls-23" d="M3955.44,1192.62a32,32,0,0,1-3.68,3,32.59,32.59,0,0,1-4,2.5,28.34,28.34,0,0,1-8.79,3,24.18,24.18,0,0,1-9.24-.37,34.37,34.37,0,0,1-8.71-3.61,29.74,29.74,0,0,0,4,2.64,25.71,25.71,0,0,0,4.47,1.86,22.11,22.11,0,0,0,4.79.88,24.12,24.12,0,0,0,4.88-.21,25.24,25.24,0,0,0,9.06-3.43A27.29,27.29,0,0,0,3955.44,1192.62Z" transform="translate(-97 -30.74)"/><rect class="cls-10" x="876.82" y="1325.98" width="97.26" height="19.89"/><rect class="cls-10" x="1032.35" y="1325.98" width="97.26" height="19.89"/><rect class="cls-32" x="4158.05" y="714.97" width="39.33" height="19.38"/><rect class="cls-14" x="4249.69" y="668.73" width="42.7" height="19.38"/><rect class="cls-32" x="4202.35" y="852.51" width="41.76" height="10.99"/><rect class="cls-32" x="4527.79" y="688.11" width="39.33" height="12.48"/><rect class="cls-32" x="4527.79" y="855.98" width="39.33" height="12.48"/><rect class="cls-32" x="4572.08" y="734.34" width="41.76" height="21.43"/><rect class="cls-10" x="4619.43" y="664.77" width="42.7" height="13.65"/><rect class="cls-14" x="4516.25" y="1322.04" width="41.85" height="168.94" transform="translate(5846.69 -3161.4) rotate(90)"/><rect class="cls-11" x="4524.16" y="1331.58" width="42.79" height="234.5" transform="translate(5897.39 -3127.47) rotate(90)"/><rect class="cls-10" x="4512.93" y="1261.56" width="39.41" height="208.65" transform="translate(5801.52 -3197.49) rotate(90)"/><rect class="cls-32" x="4593.48" y="1359.66" width="39.41" height="12.45" transform="translate(5882.08 -3278.05) rotate(90)"/><rect class="cls-32" x="4425.96" y="1359.65" width="39.41" height="12.45" transform="translate(5714.55 -3110.52) rotate(90)"/><rect class="cls-10" x="4614.5" y="1442.02" width="42.79" height="13.62" transform="translate(5987.73 -3217.8) rotate(90)"/><rect class="cls-10" x="2421.77" y="646.57" width="44.28" height="15.27"/><rect class="cls-32" x="2481.96" y="691.78" width="26.37" height="72.71"/><rect class="cls-32" x="2524.95" y="628.03" width="48.08" height="11.49"/><rect class="cls-32" x="2524.95" y="826.44" width="48.08" height="15.06"/><polygon class="cls-4" points="2896.86 1591.97 2922.73 1961.76 2909.8 1961.76 2868.83 1595.97 2896.86 1591.97"/><polygon class="cls-4" points="2625.1 1591.97 2599.22 1961.76 2612.16 1961.76 2653.13 1595.97 2625.1 1591.97"/><path class="cls-5" d="M3106.77,1222.65s-206.83-6.13-220.21-5.17-25.76,44-25.76,44-60.42,224.14-59.21,230.31-56.36,150.6-56.36,150.6,49.65-1.32,51.85,0,192-16.3,194.67-18.06,12.31-34.79,12.75-36.55,14.94-130.34,14.94-130.34l7.47-70.9s28.56-60.83,29-61,26.81-53.47,28.56-56.11,29-32.15,29.88-34.79S3106.77,1222.65,3106.77,1222.65Z" transform="translate(-97 -30.74)"/><path class="cls-6" d="M3106.77,1222.65s-71.31-2.11-132.89-3.66c23.93,14.08,37.35,53.47,27.39,123.55-8.46,59.55-17.87,124.18-55.37,201.68-19.31,39.92-102.47,17.56-170.63,21.51-14.69,38.11-30,76.65-30,76.65s49.65-1.32,51.85,0,192-16.3,194.67-18.06,12.31-34.79,12.75-36.55,14.94-130.34,14.94-130.34l7.47-70.9s28.56-60.83,29-61,26.8-53.47,28.56-56.11,29-32.15,29.88-34.79S3106.77,1222.65,3106.77,1222.65Z" transform="translate(-97 -30.74)"/><path class="cls-7" d="M2707.44,1650.27h0a12.84,12.84,0,0,1,11.94-13.64c22.1-1.5,69.9-4.92,119.06-9.59,94.23-8.94,128.29-16.26,140.49-20.08a12.72,12.72,0,0,0,8.52-9c3.3-13.17,5.24-40.5,6.87-63.37,6.15-86.78,16.3-229.88,105.46-308.45a12.83,12.83,0,0,1,18.65,1.85h0a12.85,12.85,0,0,1-1.67,17.47c-81.23,71.33-90.55,202.86-96.8,291-3.56,50.21-5.76,74.86-16.73,86.33-5.29,5.53-15.13,15.82-158.4,29.59-50.83,4.88-100.86,8.47-123.71,10A12.84,12.84,0,0,1,2707.44,1650.27Zm277.82-45.92Z" transform="translate(-97 -30.74)"/><polygon class="cls-22" points="2444.3 1848.73 2436.47 1911.75 2394.3 1915.03 2394.95 1856.59 2444.3 1848.73"/><path class="cls-10" d="M2427.22,1991.9l115.2.78a4.43,4.43,0,0,0,4.52-4.44l0-3.32a4.6,4.6,0,0,0-4.6-4.5l-115.2-.78a4.44,4.44,0,0,0-4.52,4.44l0,3.32A4.6,4.6,0,0,0,2427.22,1991.9Z" transform="translate(-97 -30.74)"/><path class="cls-28" d="M2540.85,1943.18l4.42,34.12c.55,4.2-1.82,8-5,8l-109.56-.74a8.16,8.16,0,0,1-7.2-5.06c-1.56-3.36-1.91-8.42,2.94-15.17,9.68-13.52,41.88-16.61,57.54-28.1l51,.35C2537.91,1936.58,2540.36,1939.38,2540.85,1943.18Z" transform="translate(-97 -30.74)"/><path class="cls-10" d="M2492,1956.05h0a2.25,2.25,0,0,0,.59-2.77c-2.19-4.68-9-16.1-22.67-13.85a1.87,1.87,0,0,0-1.17,2.21v0c.14,1,.86,1.7,1.62,1.58,12.24-2,18,8.09,19.82,12A1.27,1.27,0,0,0,2492,1956.05Z" transform="translate(-97 -30.74)"/><path class="cls-10" d="M2480.61,1960.37h0a2.27,2.27,0,0,0,.59-2.78c-2.19-4.68-9-16.1-22.67-13.85a1.87,1.87,0,0,0-1.17,2.21v0c.14,1,.86,1.7,1.62,1.58,12.24-2,18.05,8.09,19.82,12A1.28,1.28,0,0,0,2480.61,1960.37Z" transform="translate(-97 -30.74)"/><path class="cls-10" d="M2470.06,1964.39h0a2.25,2.25,0,0,0,.6-2.78c-2.19-4.68-9-16.09-22.68-13.85-.79.13-1.31,1.15-1.17,2.21v0c.13,1,.85,1.7,1.62,1.58,12.24-2,18,8.09,19.82,12C2468.64,1964.45,2469.4,1964.78,2470.06,1964.39Z" transform="translate(-97 -30.74)"/><path class="cls-15" d="M2511.06,1985.08c8.38-27.47,23.24-30.41,31.37-29.72l2.84,21.94c.55,4.2-1.82,8-5,8Z" transform="translate(-97 -30.74)"/><polygon class="cls-3" points="2638.93 1330.3 2631.96 1402.95 2659.64 1408.24 2674.89 1379.44 2672.39 1341.3 2650.86 1326.31 2638.93 1330.3"/><path class="cls-17" d="M2764,1246.54s-28.1,73.28-28.1,114.5c0,0,14.73,9.68,36,7s3.39-86.31,4.18-88.51S2764,1246.54,2764,1246.54Z" transform="translate(-97 -30.74)"/><polygon class="cls-22" points="2509.04 1850.08 2490.39 1910.89 2447.48 1911.18 2454.95 1866.79 2509.04 1850.08"/><path class="cls-3" d="M2854.19,1413.9l-51.58,77.95L2734,1478.3l-116.39-87,20.41-30.26s109.05,65.5,118.33,67.34S2791,1371,2791,1371Z" transform="translate(-97 -30.74)"/><path class="cls-10" d="M2482.83,1993l115.2.78a4.44,4.44,0,0,0,4.52-4.44l0-3.32a4.6,4.6,0,0,0-4.6-4.5l-115.2-.78a4.43,4.43,0,0,0-4.52,4.44l0,3.32A4.6,4.6,0,0,0,2482.83,1993Z" transform="translate(-97 -30.74)"/><path class="cls-29" d="M2596.47,1944.31l4.41,34.11c.55,4.21-1.82,8-5,8l-109.55-.74a8.14,8.14,0,0,1-7.2-5.06c-1.56-3.36-1.91-8.42,2.93-15.18,9.69-13.51,41.89-16.6,57.55-28.09l51,.34C2593.52,1937.7,2596,1940.51,2596.47,1944.31Z" transform="translate(-97 -30.74)"/><path class="cls-10" d="M2547.56,1957.18h0a2.25,2.25,0,0,0,.6-2.77c-2.19-4.69-9-16.1-22.68-13.86-.79.13-1.31,1.16-1.17,2.22v0c.14,1,.86,1.71,1.63,1.58,12.24-2,18,8.1,19.82,12C2546.14,1957.24,2546.9,1957.57,2547.56,1957.18Z" transform="translate(-97 -30.74)"/><path class="cls-10" d="M2536.22,1961.49h0a2.24,2.24,0,0,0,.6-2.77c-2.19-4.68-9-16.1-22.68-13.86-.79.13-1.31,1.16-1.17,2.22v0c.13,1,.85,1.71,1.62,1.59,12.24-2,18,8.09,19.82,12C2534.8,1961.55,2535.56,1961.88,2536.22,1961.49Z" transform="translate(-97 -30.74)"/><path class="cls-10" d="M2525.67,1965.51h0a2.24,2.24,0,0,0,.6-2.77c-2.19-4.68-9-16.1-22.67-13.86-.79.13-1.32,1.16-1.18,2.22v0c.14,1,.86,1.71,1.62,1.59,12.24-2,18,8.09,19.82,12C2524.25,1965.57,2525,1965.91,2525.67,1965.51Z" transform="translate(-97 -30.74)"/><path class="cls-15" d="M2566.67,1986.21c8.39-27.47,23.24-30.42,31.37-29.72l2.84,21.93c.55,4.21-1.82,8-5,8Z" transform="translate(-97 -30.74)"/><path class="cls-24" d="M2972.55,1564.48C2966.69,1509.87,2902,1509,2902,1509l-34.8-3-.84-7.39s-239.91-28.56-272.71,80.26S2536,1903,2536,1903s31.67,19.27,74.65,0c0,0,60.8-231.23,83.57-253.9s186.36-26.4,186.36-26.4S2978.41,1619.08,2972.55,1564.48Z" transform="translate(-97 -30.74)"/><path class="cls-33" d="M2747.85,1468.48s5.66-199,16.17-221.94,47.7-27.3,47.7-27.3,96.94-14.4,122.13,9.41c1.89,1.78,45.71,59.95,38.7,335.83,0,0-83.25-45.8-224.7-69.28Z" transform="translate(-97 -30.74)"/><path class="cls-22" d="M2867.09,1179.71v49.7a7.11,7.11,0,0,1-4.08,6.45c-7.58,3.56-24.54,9.4-40.37.1a7.06,7.06,0,0,1-3.39-6.09V1185Z" transform="translate(-97 -30.74)"/><path class="cls-23" d="M2867.09,1217.89v-26.62l-47.84,5.26v22.58C2828.22,1221.84,2844.93,1224.56,2867.09,1217.89Z" transform="translate(-97 -30.74)"/><rect class="cls-10" x="2147.49" y="1401.63" width="266.59" height="36.99"/><rect class="cls-12" x="2115.27" y="1364.64" width="266.59" height="36.99"/><path class="cls-24" d="M2707.28,1504s-179.22-5.67-219.94,32.87-13.41,328.6-6.62,355.2c0,0,37.16,17.71,66.57,8.64s18.1-136,18.1-136-3.39-121.29,1.13-138.29,66.74-29.47,66.74-29.47,96.14-66.87,90.49-66.87S2707.28,1504,2707.28,1504Z" transform="translate(-97 -30.74)"/><path class="cls-4" d="M2659.51,1333.78l-28.66-79.22a5.34,5.34,0,0,0-7.39-3l-54.24,26.71a6.1,6.1,0,0,0-2.89,7.9l46.92,107.72a6.74,6.74,0,0,0,8.52,3.64l47.58-17.63Z" transform="translate(-97 -30.74)"/><path class="cls-22" d="M2611,1339.45a4.22,4.22,0,0,1,.1-.62c1.34-5.16,2.8-5.79,3.78-5.78a4.52,4.52,0,0,1,.06-2.32c2.43-7.37,5.2-.69,5.2-.69,6.87,10.23,28.13,19.42,28.13,19.42l7.26,1.58c-.36-1.22,4-17.26,4-17.26s15.16,27.55,15.31,27.87c.48,1.27-7.52,12.54-10.88,16.24s-9.91,12.7-10.33,13.41c0,0-15.75-10-21.39-14.94-6.56-5.43-16.84-14.14-20.87-18.68a9.33,9.33,0,0,1-2.34-9C2607.28,1345.15,2609,1341.78,2611,1339.45Z" transform="translate(-97 -30.74)"/><path class="cls-23" d="M2611.08,1339a17.47,17.47,0,0,0,2.15,5.86,26.6,26.6,0,0,0,3.7,5.06,30.72,30.72,0,0,0,4.72,4.11c.84.62,1.76,1.13,2.63,1.69s1.84,1,2.77,1.41c-1.69-1.19-3.39-2.35-5-3.66a45.41,45.41,0,0,1-4.49-4.16,37.32,37.32,0,0,1-3.77-4.81A25.45,25.45,0,0,1,2611.08,1339Z" transform="translate(-97 -30.74)"/><path class="cls-23" d="M2609,1348.64a17.48,17.48,0,0,0,2.6,5.67,27.23,27.23,0,0,0,4.08,4.76,31.07,31.07,0,0,0,5,3.72c.88.55,1.83,1,2.74,1.48s1.92.81,2.88,1.18c-1.78-1-3.57-2.07-5.25-3.25a47.67,47.67,0,0,1-4.8-3.8,37.39,37.39,0,0,1-4.13-4.49A25.06,25.06,0,0,1,2609,1348.64Z" transform="translate(-97 -30.74)"/><path class="cls-23" d="M2614.86,1333.05a17.62,17.62,0,0,0,2.14,5.85,26.79,26.79,0,0,0,3.7,5.07,31.27,31.27,0,0,0,4.73,4.11c.84.62,1.75,1.13,2.62,1.69s1.85,1,2.78,1.41c-1.7-1.2-3.4-2.35-5-3.66a46.55,46.55,0,0,1-4.48-4.17,36.37,36.37,0,0,1-3.77-4.8A25.22,25.22,0,0,1,2614.86,1333.05Z" transform="translate(-97 -30.74)"/><path class="cls-22" d="M2890.15,1413.9l-51.58,77.95L2770,1478.3l-116.39-87L2674,1361s109,65.5,118.32,67.34,34.58-57.41,34.58-57.41Z" transform="translate(-97 -30.74)"/><path class="cls-17" d="M2934.38,1281.68c-5.64,30.92-20.44,102.52-41.84,135.59,0,0-51.73-3.79-80.87-39.17,0,0,39.82-98.39,50.22-118.55,8.35-16.2,48.63-64.38,68.55-16.58A68.66,68.66,0,0,1,2934.38,1281.68Z" transform="translate(-97 -30.74)"/><rect class="cls-20" x="2115.27" y="1464.45" width="18.16" height="497.31"/><rect class="cls-20" x="2286.65" y="1464.45" width="18.16" height="497.31"/><rect class="cls-20" x="2805.02" y="1464.45" width="18.16" height="497.31"/><rect class="cls-20" x="2976.4" y="1464.45" width="18.16" height="497.31"/><rect class="cls-21" x="2066.63" y="1438.62" width="979.07" height="31.71" rx="8"/><path class="cls-4" d="M2909.45,1136.82s16.55-59.27-15.56-83.26-67.31-23.13-91.81-10.8-40.88,58.54-31.35,85.83l80.46-21.88Z" transform="translate(-97 -30.74)"/><path class="cls-23" d="M2786.58,1136.2c3,7.68.37,15.82-5.75,18.18s-13.49-1.93-16.44-9.61-.38-15.81,5.74-18.18S2783.62,1128.53,2786.58,1136.2Z" transform="translate(-97 -30.74)"/><path class="cls-22" d="M2787.91,1180.8a62.35,62.35,0,0,1-4.58-10.51,117.77,117.77,0,0,1-5.79-29.39c-.16-2-.42-3.89-.72-5.82a63.51,63.51,0,1,1,126.23-8.59,13.69,13.69,0,0,1,12.38-.73c7.47,3.52,10,14,5.58,23.31s-14,14.09-21.47,10.57a11.89,11.89,0,0,1-2.81-1.85c-3.76,31.09-29.68,54.64-60.22,53.55a56.92,56.92,0,0,1-38.34-16.86c-.67-.59-1.37-1.27-2.11-2.06A55.09,55.09,0,0,1,2787.91,1180.8Z" transform="translate(-97 -30.74)"/><path class="cls-23" d="M2825.34,1124.38c-.42,3.62-.74,7.17-1.21,10.62s-1.18,7-2.73,9.27l-.31.36a5,5,0,0,1-.37.44,8.94,8.94,0,0,0-1.07,1.29,7.25,7.25,0,0,0-1.22,3.25,7.52,7.52,0,0,0,2.28,6.1,12.23,12.23,0,0,0,10.71,3c-3.48-.92-6.77-2.42-8.56-4.9a4.83,4.83,0,0,1-1-3.75,4.13,4.13,0,0,1,.76-1.67,5.72,5.72,0,0,1,.66-.75l.5-.57.56-.66a14.13,14.13,0,0,0,2.19-5.66,29.52,29.52,0,0,0,.44-5.59A37.94,37.94,0,0,0,2825.34,1124.38Z" transform="translate(-97 -30.74)"/><path class="cls-19" d="M2845.94,1130.92a5.54,5.54,0,1,0,5.74-5.35A5.55,5.55,0,0,0,2845.94,1130.92Z" transform="translate(-97 -30.74)"/><path class="cls-19" d="M2798.26,1132.35A5.54,5.54,0,1,0,2804,1127,5.55,5.55,0,0,0,2798.26,1132.35Z" transform="translate(-97 -30.74)"/><path class="cls-4" d="M2840,1117.84a57.85,57.85,0,0,1,8.23-1.27,28,28,0,0,1,7.69.47,26.12,26.12,0,0,1,7.22,2.57c1.24.5,2.29,1.35,3.53,2s2.28,1.6,3.62,2.33a24,24,0,0,0-2.14-3.9,19.65,19.65,0,0,0-3.1-3.29,17.85,17.85,0,0,0-8.29-4,18.58,18.58,0,0,0-9.17.46A17,17,0,0,0,2840,1117.84Z" transform="translate(-97 -30.74)"/><path class="cls-4" d="M2815.48,1118.58a17.09,17.09,0,0,0-7.73-4.41,18.67,18.67,0,0,0-9.19-.18,17.92,17.92,0,0,0-8.16,4.26,18.83,18.83,0,0,0-3,3.39,22.78,22.78,0,0,0-2,4c1.32-.77,2.38-1.69,3.55-2.45s2.24-1.56,3.47-2.1a26,26,0,0,1,7.13-2.79,27.81,27.81,0,0,1,7.67-.7A57.16,57.16,0,0,1,2815.48,1118.58Z" transform="translate(-97 -30.74)"/><path class="cls-4" d="M2902.09,1127.31c3.79-3,6.57-2.64,6.57-2.64l-.81-19.44-5.5-11.93s-22.17-32.43-23-33.24-18.31-11.75-19.4-12.32-26.4,2.14-26.4,2.14-43.84-11-37.38,12.52,38.23,37.07,39.94,36.11c-5-5.43-4.93-20.21-4.93-20.21C2853,1104.15,2895.48,1124.27,2902.09,1127.31Z" transform="translate(-97 -30.74)"/><path class="cls-10" d="M2809.75,1165.92c1,7,7.22,12.66,15.11,13.17s14.8-4.28,16.66-11.1Z" transform="translate(-97 -30.74)"/><rect class="cls-34" x="2763.59" y="1438.62" width="282.12" height="31.71" rx="8"/><rect class="cls-14" x="2127.92" y="1370.36" width="126.12" height="24.66"/><rect class="cls-35" x="2344.13" y="1401.63" width="13.62" height="36.99"/><rect class="cls-12" x="164.71" y="1962.21" width="5190.58" height="27.05" rx="13.5"/><rect class="cls-20" x="3219.5" y="1464.45" width="18.16" height="497.31"/><rect class="cls-20" x="3390.88" y="1464.45" width="18.16" height="497.31"/><rect class="cls-20" x="3909.26" y="1464.45" width="18.16" height="497.31"/><rect class="cls-20" x="4080.64" y="1464.45" width="18.16" height="497.31"/><rect class="cls-21" x="3170.87" y="1438.62" width="979.07" height="31.71" rx="8"/><rect class="cls-34" x="3866.63" y="1438.62" width="282.12" height="31.71" rx="8"/><rect class="cls-34" x="4972.68" y="1438.62" width="282.12" height="31.71" rx="8"/></g></g></svg>