<svg width="796" height="575" viewBox="0 0 796 575" fill="none" xmlns="http://www.w3.org/2000/svg">
<path d="M34.4706 289.428C43.0854 272.065 47.9577 256.942 45.3533 255.65C42.749 254.358 33.654 267.386 25.0392 284.748C16.4245 302.111 11.5521 317.233 14.1565 318.526C16.7608 319.818 25.8558 306.79 34.4706 289.428Z" fill="#E0E0E0"/>
<path d="M471.479 506.465C480.093 489.102 485.643 474.315 483.873 473.437C482.103 472.559 473.685 485.923 465.071 503.285C456.456 520.648 450.907 535.435 452.676 536.313C454.446 537.191 462.864 523.827 471.479 506.465Z" fill="#E0E0E0"/>
<path d="M236.643 418.691L220.406 405.284L175.715 459.407L191.952 472.814L236.643 418.691Z" fill="#F55F44"/>
<path opacity="0.05" d="M199.304 477.132L222.368 482.554L238.433 414.228L215.369 408.805L199.304 477.132Z" fill="black"/>
<path d="M201.87 477.735L222.368 482.554L238.433 414.228L217.935 409.409L201.87 477.735Z" fill="#F55F44"/>
<path d="M46.1333 254.078L13.3765 320.098L451.933 537.696L484.69 471.677L46.1333 254.078Z" fill="url(#paint0_linear)"/>
<path d="M452.713 536.124C444.129 532.006 7.86894 315.406 14.1565 318.526C38.3702 281.568 45.3534 255.65 45.3534 255.65L483.91 473.249C483.91 473.249 468.508 500.278 452.713 536.124Z" fill="#EFEFEF"/>
<path opacity="0.05" d="M273.277 368.739L237.123 350.801L205.927 413.676L242.08 431.614L273.277 368.739Z" fill="black"/>
<path d="M271.705 367.959L238.695 351.581L207.498 414.456L240.508 430.834L271.705 367.959Z" fill="#F55F44"/>
<path opacity="0.05" d="M265.417 364.839L243.411 353.92L212.214 416.796L234.221 427.715L265.417 364.839Z" fill="black"/>
<path d="M263.846 364.059L244.983 354.7L213.786 417.576L232.649 426.935L263.846 364.059Z" fill="#F55F44"/>
<path d="M261.306 566.851C262.921 566.851 264.231 565.541 264.231 563.925C264.231 562.309 262.921 560.999 261.306 560.999C259.69 560.999 258.38 562.309 258.38 563.925C258.38 565.541 259.69 566.851 261.306 566.851Z" fill="#DBDBDB"/>
<g opacity="0.5">
<path opacity="0.5" d="M698.394 33H695.394V50H698.394V33Z" fill="#47E6B1"/>
<path opacity="0.5" d="M705.394 43V40H688.394V43H705.394Z" fill="#47E6B1"/>
</g>
<path d="M204.894 357.5L180.894 393.5C180.894 393.5 188.894 430.5 365.894 429.5C542.894 428.5 556.894 393.5 556.894 393.5L523.894 345.5L422.894 276.5L204.894 357.5Z" fill="#6C63FF"/>
<path opacity="0.15" d="M204.894 357.5L180.894 393.5C180.894 393.5 188.894 430.5 365.894 429.5C542.894 428.5 556.894 393.5 556.894 393.5L523.894 345.5L422.894 276.5L204.894 357.5Z" fill="black"/>
<path d="M715.394 224L400.394 363L16.394 224L368.394 64L541.184 143.67L547.374 146.53L715.394 224Z" fill="#6C63FF"/>
<path opacity="0.15" d="M715.394 224L400.394 363L16.394 224L368.394 64L541.184 143.67L547.374 146.53L715.394 224Z" fill="black"/>
<path d="M553.894 257.32L547.894 257.68L541.184 143.67L547.374 146.53L553.894 257.32Z" fill="#F5F5F5"/>
<path d="M208.894 223.5L180.894 393.5C180.894 393.5 381.894 328.5 556.894 393.5L530.894 213.5C530.894 213.5 295.894 184.5 208.894 223.5Z" fill="#6C63FF"/>
<path d="M553.394 292C569.411 292 582.394 283.046 582.394 272C582.394 260.954 569.411 252 553.394 252C537.378 252 524.394 260.954 524.394 272C524.394 283.046 537.378 292 553.394 292Z" fill="#F5F5F5"/>
<defs>
<linearGradient id="paint0_linear" x1="232.655" y1="428.897" x2="265.411" y2="362.878" gradientUnits="userSpaceOnUse">
<stop stop-color="#808080" stop-opacity="0.25"/>
<stop offset="0.53514" stop-color="#808080" stop-opacity="0.12"/>
<stop offset="1" stop-color="#808080" stop-opacity="0.1"/>
</linearGradient>
</defs>
</svg>
