<svg width="842" height="179" viewBox="0 0 842 179" fill="none" xmlns="http://www.w3.org/2000/svg">
<path d="M522.936 169.612C517.292 169.608 511.88 167.426 507.89 163.544C503.9 159.663 501.659 154.4 501.659 148.913C501.659 143.425 503.9 138.163 507.89 134.281C511.88 130.4 517.292 128.217 522.936 128.213H839.209C837.619 125.375 835.271 123.005 832.412 121.353C829.554 119.701 826.29 118.828 822.965 118.825H194.298C186.096 118.834 178.233 122.008 172.437 127.65C166.641 133.292 163.386 140.939 163.387 148.913C163.391 156.885 166.648 164.529 172.443 170.17C178.238 175.81 186.098 178.986 194.298 179H822.965C826.29 178.998 829.554 178.125 832.412 176.473C835.271 174.821 837.619 172.451 839.209 169.612L522.936 169.612Z" fill="#CCCCCC" fill-opacity="0.2"/>
<path d="M839.629 139.619H538.927C538.467 139.618 538.026 139.44 537.701 139.123C537.376 138.806 537.193 138.377 537.193 137.929C537.193 137.482 537.376 137.053 537.701 136.736C538.026 136.419 538.467 136.241 538.927 136.24H839.629C840.09 136.241 840.531 136.419 840.856 136.736C841.181 137.053 841.363 137.482 841.363 137.929C841.363 138.377 841.181 138.806 840.856 139.123C840.531 139.44 840.09 139.618 839.629 139.619Z" fill="#CCCCCC" fill-opacity="0.2"/>
<path d="M839.629 150.602H538.927C538.466 150.602 538.024 150.424 537.698 150.108C537.372 149.791 537.189 149.361 537.189 148.913C537.189 148.465 537.372 148.035 537.698 147.718C538.024 147.401 538.466 147.223 538.927 147.223H839.629C840.09 147.223 840.533 147.401 840.858 147.718C841.184 148.035 841.368 148.465 841.368 148.913C841.368 149.361 841.184 149.791 840.858 150.108C840.533 150.424 840.09 150.602 839.629 150.602V150.602Z" fill="#CCCCCC" fill-opacity="0.2"/>
<path d="M839.629 161.586H538.927C538.467 161.585 538.026 161.406 537.701 161.089C537.376 160.773 537.193 160.343 537.193 159.896C537.193 159.449 537.376 159.019 537.701 158.703C538.026 158.386 538.467 158.207 538.927 158.206H839.629C840.09 158.207 840.531 158.386 840.856 158.703C841.181 159.019 841.363 159.449 841.363 159.896C841.363 160.343 841.181 160.773 840.856 161.089C840.531 161.406 840.09 161.585 839.629 161.586Z" fill="#CCCCCC" fill-opacity="0.2"/>
<path d="M441.243 111.316C435.598 111.312 430.186 109.13 426.196 105.248C422.206 101.367 419.965 96.1042 419.965 90.6168C419.965 85.1295 422.206 79.8667 426.196 75.9853C430.186 72.1038 435.598 69.9214 441.243 69.9176H757.515C755.925 67.0788 753.577 64.7089 750.719 63.057C747.86 61.405 744.597 60.532 741.272 60.5296H112.605C104.403 60.5386 96.5401 63.7126 90.7439 69.3541C84.9478 74.9957 81.6926 82.6433 81.6934 90.6168C81.6976 98.5887 84.9545 106.234 90.7495 111.874C96.5445 117.515 104.404 120.69 112.605 120.704H741.272C744.597 120.702 747.86 119.829 750.719 118.177C753.577 116.525 755.925 114.155 757.515 111.316L441.243 111.316Z" fill="#6C63FF" fill-opacity="0.2"/>
<path d="M757.936 81.3234H457.234C456.773 81.3223 456.332 81.1438 456.007 80.827C455.682 80.5102 455.5 80.081 455.5 79.6336C455.5 79.1861 455.682 78.757 456.007 78.4402C456.332 78.1234 456.773 77.945 457.234 77.9439H757.936C758.397 77.9439 758.839 78.1219 759.165 78.4388C759.491 78.7557 759.674 79.1854 759.674 79.6336C759.674 80.0817 759.491 80.5115 759.165 80.8284C758.839 81.1453 758.397 81.3234 757.936 81.3234V81.3234Z" fill="#CCCCCC" fill-opacity="0.2"/>
<path d="M757.936 92.3066H457.234C456.773 92.3066 456.331 92.1285 456.005 91.8116C455.679 91.4947 455.496 91.065 455.496 90.6168C455.496 90.1687 455.679 89.7389 456.005 89.422C456.331 89.1051 456.773 88.9271 457.234 88.9271H757.936C758.397 88.9271 758.839 89.1051 759.165 89.422C759.491 89.7389 759.674 90.1687 759.674 90.6168C759.674 91.065 759.491 91.4947 759.165 91.8116C758.839 92.1285 758.397 92.3066 757.936 92.3066V92.3066Z" fill="#CCCCCC" fill-opacity="0.2"/>
<path d="M757.936 103.29H457.234C456.773 103.289 456.332 103.11 456.007 102.794C455.682 102.477 455.5 102.048 455.5 101.6C455.5 101.153 455.682 100.723 456.007 100.407C456.332 100.09 456.773 99.9115 457.234 99.9104H757.936C758.164 99.9099 758.391 99.9532 758.602 100.038C758.813 100.123 759.006 100.247 759.167 100.404C759.329 100.561 759.458 100.747 759.545 100.953C759.633 101.158 759.678 101.378 759.678 101.6C759.678 101.822 759.633 102.042 759.545 102.248C759.458 102.453 759.329 102.639 759.167 102.796C759.006 102.953 758.813 103.078 758.602 103.162C758.391 103.247 758.164 103.29 757.936 103.29V103.29Z" fill="#CCCCCC" fill-opacity="0.2"/>
<path d="M359.549 51.0751C353.905 51.0714 348.493 48.8889 344.503 45.0074C340.513 41.126 338.271 35.8632 338.271 30.3759C338.271 24.8885 340.513 19.6257 344.503 15.7443C348.493 11.8628 353.905 9.68033 359.549 9.67657H675.822C674.231 6.83781 671.883 4.46795 669.025 2.816C666.167 1.16404 662.903 0.290974 659.578 0.288513H30.911C22.709 0.29746 14.8462 3.47144 9.05016 9.11303C3.25411 14.7546 -0.00102048 22.4023 2.39982e-07 30.3757C0.00414987 38.3476 3.26094 45.9924 9.05587 51.6329C14.8508 57.2734 22.7106 60.449 30.911 60.463H659.578C662.903 60.4606 666.167 59.5876 669.025 57.9356C671.883 56.2837 674.231 53.9139 675.822 51.0751L359.549 51.0751Z" fill="#CCCCCC" fill-opacity="0.2"/>
<path d="M676.242 21.0823H375.54C375.08 21.0813 374.639 20.9028 374.314 20.586C373.989 20.2692 373.806 19.84 373.806 19.3926C373.806 18.9451 373.989 18.5159 374.314 18.1992C374.639 17.8824 375.08 17.7039 375.54 17.7028H676.242C676.703 17.7028 677.145 17.8809 677.471 18.1977C677.797 18.5146 677.98 18.9444 677.98 19.3926C677.98 19.8407 677.797 20.2706 677.471 20.5874C677.145 20.9043 676.703 21.0823 676.242 21.0823Z" fill="#CCCCCC" fill-opacity="0.2"/>
<path d="M676.242 32.0656H375.54C375.312 32.0656 375.086 32.0219 374.875 31.937C374.664 31.8521 374.472 31.7276 374.311 31.5707C374.15 31.4138 374.022 31.2275 373.934 31.0225C373.847 30.8175 373.802 30.5978 373.802 30.3759C373.802 30.154 373.847 29.9342 373.934 29.7292C374.022 29.5242 374.15 29.338 374.311 29.181C374.472 29.0241 374.664 28.8996 374.875 28.8147C375.086 28.7298 375.312 28.6861 375.54 28.6861H676.242C676.47 28.6861 676.696 28.7298 676.907 28.8147C677.118 28.8996 677.31 29.0241 677.471 29.181C677.633 29.338 677.761 29.5242 677.848 29.7292C677.935 29.9342 677.98 30.154 677.98 30.3759C677.98 30.5978 677.935 30.8175 677.848 31.0225C677.761 31.2275 677.633 31.4138 677.471 31.5707C677.31 31.7276 677.118 31.8521 676.907 31.937C676.696 32.0219 676.47 32.0656 676.242 32.0656V32.0656Z" fill="#CCCCCC" fill-opacity="0.2"/>
<path d="M676.242 43.0489H375.54C375.079 43.0489 374.637 42.8708 374.311 42.5539C373.985 42.237 373.802 41.8073 373.802 41.3591C373.802 40.911 373.985 40.4812 374.311 40.1643C374.637 39.8474 375.079 39.6694 375.54 39.6694H676.242C676.47 39.6694 676.696 39.7131 676.907 39.798C677.118 39.8829 677.31 40.0074 677.471 40.1643C677.633 40.3212 677.761 40.5075 677.848 40.7125C677.935 40.9175 677.98 41.1372 677.98 41.3591C677.98 41.581 677.935 41.8008 677.848 42.0058C677.761 42.2108 677.633 42.397 677.471 42.5539C677.31 42.7108 677.118 42.8353 676.907 42.9203C676.696 43.0052 676.47 43.0489 676.242 43.0489V43.0489Z" fill="#CCCCCC" fill-opacity="0.2"/>
</svg>
