<svg width="959" height="803" viewBox="0 0 959 803" fill="none" xmlns="http://www.w3.org/2000/svg">
<path opacity="0.1" d="M958.99 465.51C958.99 466.12 958.99 466.73 958.99 467.33C958.883 477.85 958.26 488.343 957.12 498.81C957.125 498.873 957.125 498.937 957.12 499C957.03 499.87 956.93 500.73 956.83 501.6C956.66 503.07 956.48 504.53 956.28 506C953.949 523.893 950.091 541.554 944.75 558.79V558.79C937.594 582.08 927.478 604.356 914.65 625.07C910.703 631.403 906.5 637.533 902.04 643.46C899.66 646.6 897.23 649.67 894.72 652.69C892.96 654.803 891.167 656.883 889.34 658.93L888.2 660.19C878.589 670.743 868.229 680.588 857.2 689.65C839.2 704.57 819.82 717.55 800.13 729.59C799.01 730.28 797.88 730.96 796.75 731.59C796.671 731.647 796.588 731.697 796.5 731.74C769.74 747.92 741.99 762.52 713.4 774.21C682.1 787.04 649.78 796.37 616.62 800.45C570.4 806.13 523.62 801.51 477.68 793.57C439.473 787.005 401.728 777.986 364.68 766.57L358.58 764.66C355.42 763.653 352.263 762.627 349.11 761.58C330.063 755.28 311.23 748.28 292.61 740.58C245.845 721.319 201.17 697.331 159.28 668.99C153.947 665.403 148.69 661.737 143.51 657.99C136.27 652.777 129.117 647.41 122.05 641.89L117.69 638.51C99.1965 624.029 81.8698 608.116 65.87 590.92C44.35 567.5 25.96 541.08 13.87 510.92C11.9634 506.18 10.2167 501.35 8.63003 496.43L8.48003 495.94C7.68003 493.44 6.94003 490.94 6.26003 488.34C5.26003 484.62 4.38336 480.853 3.63003 477.04C3.47003 476.31 3.33003 475.58 3.20003 474.84C0.809915 462.007 -0.245709 448.961 0.0500269 435.91C0.300132 424.475 1.63952 413.091 4.05003 401.91V401.91C6.51724 390.32 10.3193 379.055 15.38 368.34V368.34C19.9534 358.705 25.7806 349.717 32.71 341.61V341.61C37.5793 335.942 43.0553 330.825 49.04 326.35C59.89 318.27 71.92 312.64 84.39 308.19C90.25 306.09 96.19 304.25 102.16 302.54C106.39 301.32 110.64 300.16 114.87 299.02L127.35 295.65C135.35 293.47 143.35 291.23 151.23 288.81C172.71 282.25 193.76 274.31 213.23 262.47C216.31 260.6 219.45 258.55 222.59 256.35C226.59 253.57 230.53 250.55 234.43 247.29C238.37 243.99 242.23 240.46 245.91 236.72C246.48 236.14 247.04 235.56 247.6 234.97C250.6 231.81 253.51 228.5 256.21 225.06C257.53 223.38 258.81 221.67 260.03 219.93C261.72 217.52 263.32 215.07 264.8 212.55C272.22 199.95 276.8 186.05 276.26 171.4C276.181 168.986 275.964 166.579 275.61 164.19C274.31 155.36 273.06 146.74 272.14 138.31C268.28 103.44 269.91 71.82 296.08 42.11C328.62 5.18 379.69 -2.35 426.18 0.599997C560.59 9.1 682.95 85.84 790.48 177.2C799.78 185.093 808.967 193.093 818.04 201.2C820.327 203.24 822.617 205.293 824.91 207.36C841.91 222.67 858.65 238.55 874.24 255.56C875.5 256.94 876.76 258.32 878 259.71C878.76 260.57 879.53 261.42 880.28 262.29C885.14 267.79 889.857 273.423 894.43 279.19C906.681 294.499 917.5 310.901 926.75 328.19C940.914 355.322 950.503 384.605 955.13 414.86V414.86C956.87 425.847 958.015 436.92 958.56 448.03C958.73 451.3 958.84 454.58 958.9 457.85C958.9 458.9 958.9 459.94 958.9 460.99C959 462.51 959 463.99 958.99 465.51Z" fill="#6C63FF" fill-opacity="0.3"/>
</svg>
